<?xml version="1.0" encoding="UTF-8"?>
<!-- Generator: visioncortex VTracer 0.6.3 -->
<svg version="1.1" xmlns="http://www.w3.org/2000/svg" width="1280" height="416">
<path d="M0 0 C2.91 2.29 4.91 4.97 7 8 C7.52 8.73 8.05 9.47 8.59 10.23 C13.23 17.28 15.59 24.99 18 33 C18.33 32.32 18.66 31.64 19 30.95 C25.66 17.9 35.14 7.61 49.12 2.56 C57.51 0.08 64.95 0.3 73 4 C79.3 8.54 82.59 14.78 85 22 C85.98 36.52 83.14 47.77 73.52 58.86 C66.85 65.82 59.8 72.44 50 74 C52.75 77.02 55.26 78.72 59.34 79.37 C66.41 79.55 71.49 77.79 77.97 75.05 C82.2 73.58 84.72 73.87 89 75 C89.66 75.33 90.32 75.66 91 76 C90.95 74.69 90.95 74.69 90.89 73.36 C90.52 56.97 94.99 43.02 105.68 30.39 C115.2 20.61 125.38 14.75 139.12 14.38 C146.28 14.42 150.78 16.14 156 21 C156.93 21.76 156.93 21.76 157.88 22.54 C164.11 28.02 168.32 35.3 169.51 43.54 C169.87 54.78 166.74 62.84 159.56 71.4 C153.72 77.33 146.92 82.39 140 87 C151.66 95.98 151.66 95.98 163.44 104.81 C164.28 105.44 165.13 106.06 166 106.71 C167.88 108.18 167.88 108.18 170 108 C171.45 104.32 172.88 100.63 174.31 96.94 C174.76 95.78 175.21 94.63 175.67 93.44 C178.15 86.99 180.55 80.51 182.8 73.97 C197.47 31.26 197.47 31.26 213 22.5 C218.63 20.07 224.25 19.18 230.19 21 C238.04 24.47 241.9 32.42 245 40 C246.27 43.38 247.46 46.77 248.62 50.19 C248.91 51.02 249.2 51.86 249.5 52.72 C253.65 65.26 255.5 78.39 257.36 91.43 C257.69 93.7 258.03 95.97 258.37 98.24 C261.86 122.11 261.86 122.11 257.46 128.46 C253.39 132.75 249.13 135.68 243.25 136.56 C239.73 135.95 237.72 135.32 235 133 C233.25 127.51 234.02 121.37 234.21 115.69 C234.23 114.86 234.24 114.03 234.26 113.18 C234.28 112.42 234.3 111.67 234.32 110.89 C234.22 110.27 234.11 109.64 234 109 C227.93 104.96 219.74 105.89 212.62 105.81 C211.94 105.8 211.25 105.79 210.53 105.77 C205.42 105.76 205.42 105.76 201 108 C199.25 110.38 199.25 110.38 197.69 113.19 C194.62 118.19 191.44 122.18 187 126 C186.07 126.8 185.14 127.61 184.19 128.44 C178.97 130.99 173.47 130.82 168 129 C166.26 130.14 166.26 130.14 164.62 131.81 C160.45 135.56 157.94 137 152.19 137 C143.47 135.54 137.06 127.41 130.85 121.63 C125.34 116.25 125.34 116.25 119 112 C119.15 113.21 119.31 114.41 119.46 115.66 C121.01 130.21 121.01 130.21 117.25 134.88 C112.98 138.62 107.62 141.15 102 142 C97.01 140.49 94.93 138.24 92.22 133.91 C89.76 128.04 90.11 121.7 90.12 115.44 C90.11 114.03 90.09 112.63 90.06 111.22 C90.02 107.82 90 104.41 90 101 C89.4 101.41 88.8 101.81 88.19 102.23 C86.99 103.04 86.99 103.04 85.77 103.86 C84.6 104.65 84.6 104.65 83.4 105.46 C72.95 112.17 60.27 114.82 47.88 113.88 C39.33 111.95 34.63 106.93 28.94 100.62 C27.57 99.14 26.21 97.65 24.84 96.16 C23.87 95.1 23.87 95.1 22.88 94.02 C21.14 92.15 19.34 90.36 17.5 88.59 C15 86 15 86 15 84 C14.34 84 13.68 84 13 84 C12.74 84.74 12.49 85.48 12.23 86.24 C9.71 91.89 4.74 96.59 -0.94 99.06 C-6.89 100.86 -12.05 100.01 -17.5 97.19 C-19.96 95.03 -20.77 94.21 -21 91 C-21.66 91 -22.32 91 -23 91 C-23.21 91.8 -23.41 92.61 -23.62 93.44 C-26.83 101.74 -32.2 108.71 -40 113.14 C-43.66 114.72 -47.19 114.64 -50.94 113.31 C-54.35 111.61 -55.83 110.44 -57.2 106.85 C-57.6 105.44 -57.6 105.44 -58 104 C-58.98 104.49 -59.95 104.99 -60.96 105.5 C-62.24 106.14 -63.53 106.79 -64.81 107.44 C-65.46 107.76 -66.1 108.09 -66.76 108.42 C-76.69 113.41 -90.02 115.48 -101 113 C-107.36 110 -111.4 105.75 -116.06 100.56 C-120.49 95.69 -124.81 91.07 -130 87 C-130.71 88.03 -130.71 88.03 -131.43 89.09 C-145.22 108.68 -167.93 127.87 -192.01 132.59 C-202.46 133.88 -210.61 131.33 -219 125 C-230.51 114.32 -238.92 99.69 -239.54 83.85 C-239.7 65.25 -231.84 51.16 -219 38 C-217.7 36.64 -217.7 36.64 -216.38 35.25 C-202.59 22.19 -180.73 6.43 -160.88 5.62 C-155.79 6.12 -151.91 6.87 -148.38 10.8 C-146.23 13.89 -144.87 15.88 -145.31 19.69 C-150.74 27.13 -159 29.93 -167.19 33.44 C-185.55 41.37 -202.18 48.74 -210.31 68.19 C-213.06 76.32 -213.53 84.51 -209.94 92.44 C-206.28 98.73 -202.08 102.52 -195.19 104.94 C-186.93 107.02 -180 105.69 -172.58 101.65 C-165.02 96.82 -158.54 91.04 -153 84 C-155.71 82.19 -157.16 81.56 -160.22 80.82 C-161.06 80.61 -161.9 80.41 -162.77 80.2 C-163.67 79.99 -164.57 79.78 -165.5 79.56 C-166.43 79.34 -167.36 79.12 -168.31 78.9 C-175.42 77.25 -182.54 76 -189.78 75.08 C-194.37 74.45 -197.99 73.48 -202 71 C-204 68 -204 68 -204.12 64.75 C-202.52 59.39 -199.63 56.99 -195 54 C-178.24 45.27 -150.33 51.85 -133 56 C-132.98 55.37 -132.95 54.73 -132.92 54.08 C-132.18 38.93 -123.45 22.14 -112.35 11.9 C-104.31 5.4 -94.69 0.24 -84.07 0.71 C-77.68 1.6 -71.53 3.21 -67 8 C-60.47 16.75 -59.19 25.23 -60 36 C-62.37 49.84 -71.6 60.93 -82.76 68.99 C-86.84 71.54 -90.21 73.24 -95 74 C-92.25 77.02 -89.74 78.72 -85.66 79.37 C-78.58 79.55 -73.5 77.77 -67.02 75.06 C-62.7 73.55 -60.37 73.75 -56 75 C-53 76.56 -53 76.56 -51 78 C-50.76 77.16 -50.52 76.33 -50.27 75.46 C-48.82 71.51 -46.94 68.14 -44.75 64.56 C-44.35 63.9 -43.95 63.24 -43.53 62.56 C-35.95 50.26 -35.95 50.26 -30 48 C-23.1 47.39 -16.51 47.58 -10 50 C-12.02 38.9 -16.79 29.54 -22.25 19.77 C-23.65 16.48 -23.04 13.29 -22 10 C-17.29 2.18 -9.21 -3.58 0 0 Z M-150 16 C-149 18 -149 18 -149 18 Z M-64 22 C-63 26 -63 26 -63 26 Z M81 22 C82 25 82 25 82 25 Z M-92 27 C-99.34 33.89 -102.2 40.54 -105 50 C-102.79 51.38 -102.79 51.38 -99.25 50.06 C-94.27 48.1 -91.55 44.6 -89 40 C-88.07 37.19 -87.89 34.69 -87.94 31.75 C-87.96 30.51 -87.98 29.28 -88 28 C-89.32 27.67 -90.64 27.34 -92 27 Z M53 27 C46.86 33.17 41.21 39.7 40.91 48.8 C40.94 49.52 40.97 50.25 41 51 C45.32 50.16 48.85 49.25 51.9 45.94 C56.08 39.73 57.14 35.5 57 28 C55.68 27.67 54.36 27.34 53 27 Z M-64 28 C-64 29.65 -64 31.3 -64 33 C-63.67 33 -63.34 33 -63 33 C-63 31.35 -63 29.7 -63 28 C-63.33 28 -63.66 28 -64 28 Z M81 29 C81 30.65 81 32.3 81 34 C81.33 34 81.66 34 82 34 C82 32.35 82 30.7 82 29 C81.67 29 81.34 29 81 29 Z M-102 31 C-101 33 -101 33 -101 33 Z M43 31 C44 33 44 33 44 33 Z M-65 34 C-65.33 36.31 -65.66 38.62 -66 41 C-65.34 40.67 -64.68 40.34 -64 40 C-64 38.02 -64 36.04 -64 34 C-64.33 34 -64.66 34 -65 34 Z M41 34 C42 36 42 36 42 36 Z M80 34 C81 38 81 38 81 38 Z M-105 36 C-104 39 -104 39 -104 39 Z M40 36 C41 38 41 38 41 38 Z M39 39 C40 41 40 41 40 41 Z M79 39 C80 42 80 42 80 42 Z M38 41 C39 44 39 44 39 44 Z M165 41 C166 43 166 43 166 43 Z M-67 42 C-66 44 -66 44 -66 44 Z M78 42 C79 44 79 44 79 44 Z M-108 44 C-107 47 -107 47 -107 47 Z M37 44 C38 47 38 47 38 47 Z M127.14 45.82 C122.99 48.11 120.1 50.71 118 55 C117.44 59.73 117.58 64.26 118 69 C120.19 70.38 120.19 70.38 123.56 69 C130.01 66.45 136.28 61.92 140 56 C139.81 51.62 138.61 48.51 136 45 C132.43 43.81 130.56 44.39 127.14 45.82 Z M-69 46 C-68 48 -68 48 -68 48 Z M165 47 C165 48.65 165 50.3 165 52 C165.33 52 165.66 52 166 52 C166 50.35 166 48.7 166 47 C165.67 47 165.34 47 165 47 Z M-70 48 C-69 50 -69 50 -69 50 Z M75 48 C76 50 76 50 76 50 Z M215 49 C216 51 216 51 216 51 Z M220 50 C217.96 55.72 216.3 61.48 214.81 67.38 C214.63 68.08 214.45 68.78 214.27 69.5 C213.55 72.41 213 74.99 213 78 C217.67 79.21 222.21 79.09 227 79 C228.11 75.67 227.88 74.61 227.07 71.29 C226.85 70.37 226.63 69.46 226.41 68.52 C226.17 67.56 225.93 66.61 225.69 65.62 C225.46 64.68 225.24 63.73 225 62.76 C223.93 58.35 222.76 54.19 221 50 C220.67 50 220.34 50 220 50 Z M-72 51 C-71 53 -71 53 -71 53 Z M73 51 C73 54 73 54 73 54 Z M164 52 C165 55 165 55 165 55 Z M214 52 C215 55 215 55 215 55 Z M114 53 C115 55 115 55 115 55 Z M-210 55 C-209 57 -209 57 -209 57 Z M163 56 C164 58 164 58 164 58 Z M-211 57 C-210 59 -210 59 -210 59 Z M213 57 C214 60 214 60 214 60 Z M162 58 C163 60 163 60 163 60 Z M-212 59 C-211 61 -211 61 -211 61 Z M161 60 C162 62 162 62 162 62 Z M-213 61 C-212 63 -212 63 -212 63 Z M160 62 C161 64 161 64 161 64 Z M212 62 C213 66 213 66 213 66 Z M-214 63 C-213 65 -213 65 -213 65 Z M211 66 C212 70 212 70 212 70 Z M-216 68 C-215 71 -215 71 -215 71 Z M210 70 C211 73 211 73 211 73 Z M-217 72 C-217 73.65 -217 75.3 -217 77 C-216.67 77 -216.34 77 -216 77 C-216 75.35 -216 73.7 -216 72 C-216.33 72 -216.66 72 -217 72 Z M209 73 C210 76 210 76 210 76 Z M9 82 C10 84 10 84 10 84 Z M8 84 C9 86 9 86 9 86 Z M-135 85 C-134 87 -134 87 -134 87 Z M-27 89 C-26 92 -26 92 -26 92 Z M-29 94 C-29 97 -29 97 -29 97 Z M-31 97 C-30 99 -30 99 -30 99 Z M-32 99 C-32.66 100.32 -33.32 101.64 -34 103 C-33.01 102.34 -32.02 101.68 -31 101 C-31.33 100.34 -31.66 99.68 -32 99 Z M254 100 C255 102 255 102 255 102 Z M196 106 C197 108 197 108 197 108 Z M255 107 C256 109 256 109 256 109 Z M195 108 C196 110 196 110 196 110 Z M115 111 C115 114.3 115 117.6 115 121 C115.33 121 115.66 121 116 121 C116 117.7 116 114.4 116 111 C115.67 111 115.34 111 115 111 Z M193 111 C194 113 194 113 194 113 Z M256 114 C255.67 116.97 255.34 119.94 255 123 C255.66 122.67 256.32 122.34 257 122 C257 119.36 257 116.72 257 114 C256.67 114 256.34 114 256 114 Z " fill="#020300" transform="translate(745,218)"/>
<path d="M0 0 C5.69 4.08 10.91 8.28 15 14 C15 14.66 15 15.32 15 16 C15.94 15.57 15.94 15.57 16.91 15.12 C23.12 12.43 28.28 10.48 35.02 12.65 C39.48 14.48 39.48 14.48 41 16 C41.06 18.5 41.07 20.98 41.03 23.48 C41.01 25.05 41 26.63 40.99 28.2 C40.97 30.67 40.94 33.15 40.9 35.62 C40.04 58.42 40.04 58.42 48.45 78.75 C53.15 82.92 57.8 83.32 63.83 83.2 C67.85 82.83 69.91 81.24 72.53 78.27 C79.13 69.93 81.2 62.08 81.25 51.5 C81.25 50.71 81.26 49.91 81.26 49.09 C81.2 43.05 80.29 37.61 78.56 31.8 C77.72 27.57 78.13 24.42 80.38 20.73 C85.34 15.08 88.98 13.35 96.56 12.69 C100.41 13.04 102.74 13.95 106 16 C111.13 23.7 111.46 34.93 112 44 C112.34 43.38 112.68 42.77 113.03 42.13 C119.61 30.63 126.98 22.61 139.44 17.62 C147.19 16.27 155.04 15.9 162 20 C173.08 27.87 179.38 39.35 182.58 52.37 C184.07 61.74 184.19 71.79 179 80 C173.62 87.03 167.72 92.67 160 97 C159.25 97.44 158.51 97.88 157.74 98.33 C147.63 103.87 134.58 108.13 123 106 C116.42 103.44 112.8 99.24 110 92.88 C108.2 87.69 107.04 82.38 106 77 C105.67 77.61 105.34 78.21 105 78.84 C97.98 91.22 88.24 101.9 74.34 106.44 C60.5 109.77 45.74 110.2 33 103 C22.39 95.86 18.52 85.54 15.12 73.69 C14.91 72.93 14.69 72.18 14.47 71.41 C13.24 66.8 12.79 62.77 13 58 C12.34 58 11.68 58 11 58 C10.74 58.58 10.48 59.16 10.21 59.75 C8.92 62.15 7.45 63.92 5.62 65.94 C3.69 68.08 1.83 70.22 0.06 72.51 C-6.09 79.96 -14.48 84.72 -23 89 C-22.49 93.12 -21.68 95.96 -19.44 99.44 C-17.09 103.55 -15.95 106.2 -17 111 C-20 115.5 -23.87 120.05 -29 122 C-33.09 122.52 -36.53 122.83 -40.2 120.76 C-42.35 118.66 -42.66 117.41 -43.25 114.5 C-45.66 105.64 -51.32 98.22 -59.17 93.46 C-63.69 91.13 -68.3 88.99 -72.97 86.98 C-79.98 83.86 -85.11 79.29 -88 72 C-92.32 54.74 -89.97 37.27 -81.37 21.77 C-77.75 15.73 -73.05 10.86 -68 6 C-67.22 5.23 -66.45 4.46 -65.65 3.66 C-46.98 -14.05 -20.97 -13.73 0 0 Z M37 19 C37 23.62 37 28.24 37 33 C37.33 33 37.66 33 38 33 C38 28.38 38 23.76 38 19 C37.67 19 37.34 19 37 19 Z M-53.59 35.8 C-57.91 42.53 -57.89 50.27 -57 58 C-55.37 62.06 -53.07 64.93 -50 68 C-46.78 68.34 -46.78 68.34 -44.44 65.62 C-43.63 64.76 -42.83 63.89 -42 63 C-41.34 62.34 -40.68 61.68 -40 61 C-36.62 61 -36.62 61 -33 62 C-30.56 65.06 -30.56 65.06 -29 68 C-23.84 67.39 -20.04 65.3 -16.58 61.39 C-12.02 55.33 -9.89 48.6 -10 41 C-11.73 35.44 -13.86 31.97 -18.8 28.87 C-31.4 22.26 -44.61 25.32 -53.59 35.8 Z M-58 34 C-57 36 -57 36 -57 36 Z M-59 36 C-58 38 -58 38 -58 38 Z M-60 39 C-59 41 -59 41 -59 41 Z M-61 42 C-60 45 -60 45 -60 45 Z M136 45 C135.67 47.31 135.34 49.62 135 52 C137.31 49.28 137.31 49.28 136.62 46.81 C136.42 46.21 136.21 45.62 136 45 Z M141 45 C139.01 49.24 138.46 53.39 138 58 C137.54 62.64 136.84 66.68 135 71 C135.07 73.67 135.07 73.67 136 76 C139.15 78.1 141.17 78.6 144.93 78.51 C148.95 77.52 150.92 74.38 153 71 C155.63 65.27 155.79 59.84 153.81 53.88 C152.23 50.06 150.36 47.5 147 45 C143.79 44.58 143.79 44.58 141 45 Z M36 48 C37 50 37 50 37 50 Z M134 54 C135 58 135 58 135 58 Z M7 56 C8 58 8 58 8 58 Z M37 57 C38 60 38 60 38 60 Z M179 57 C180 60 180 60 180 60 Z M133 64 C134 68 134 68 134 68 Z M179 64 C180 68 180 68 180 68 Z M178 68 C179 71 179 71 179 71 Z M131 69 C132 71 132 71 132 71 Z M177 71 C178 75 178 75 178 75 Z M101 75 C102 78 102 78 102 78 Z M99 79 C100 81 100 81 100 81 Z M97 82 C98 84 98 84 98 84 Z " fill="#030300" transform="translate(149,228)"/>
<path d="M0 0 C3.11 1.97 4.52 3.34 5.55 6.91 C6.36 12.3 5.8 17.59 5.26 22.98 C4.89 27.33 4.91 31.64 5 36 C5.51 34.98 6.02 33.97 6.55 32.92 C14.24 18.14 22.92 7.65 39 2 C46.57 -0.27 53.67 0.59 60.81 3.82 C68.12 7.77 71.46 15.38 74 23 C75.01 35.73 71.91 46.55 63.96 56.57 C56.63 65.01 49.1 70.32 39 75 C44.9 79.19 49.82 80.14 57 79 C60.17 77.87 63.16 76.58 66.18 75.09 C69.97 73.63 73.14 73.35 77.01 74.7 C80.81 76.94 83.32 78.75 85 83 C85.68 89.15 84.3 93.82 80.73 98.75 C71.02 109.74 55.94 112.87 42 114 C34.16 114.23 28.64 111.39 22.94 106.08 C20.85 103.92 18.82 101.73 16.81 99.5 C15.44 98.01 14.08 96.52 12.71 95.03 C12.07 94.34 11.44 93.64 10.78 92.93 C8.58 90.55 6.31 88.26 4 86 C3.85 86.63 3.71 87.26 3.55 87.91 C0.88 98.13 -4.2 104.28 -13 110 C-13.97 110.64 -14.94 111.28 -15.94 111.94 C-20.19 113.41 -23.68 113.19 -28 112 C-32.17 109.22 -32.9 105.76 -34 101 C-34.5 101.85 -34.99 102.69 -35.5 103.56 C-38.92 108.57 -42.78 113.11 -48.79 114.77 C-52.86 115.27 -56.07 115.29 -60 114.06 C-65.91 107.97 -65.9 98.33 -66.64 90.34 C-67.09 84.9 -67.09 84.9 -70.54 80.99 C-71.35 80.66 -72.16 80.34 -73 80 C-74.2 77.6 -74.05 76.4 -73.81 73.75 C-73.76 73 -73.7 72.25 -73.64 71.48 C-73 69 -73 69 -71.03 66.35 C-68.29 61.83 -68.11 57.82 -67.75 52.62 C-67.67 51.7 -67.6 50.77 -67.52 49.82 C-67.33 47.55 -67.16 45.27 -67 43 C-67.41 43.5 -67.81 44 -68.23 44.51 C-72.79 49.65 -72.79 49.65 -76.09 50.59 C-78.3 50.72 -80.41 50.66 -82.62 50.5 C-83.73 50.47 -83.73 50.47 -84.86 50.43 C-88.67 50.28 -92.28 49.79 -96 49 C-96 49.91 -96 50.82 -96 51.76 C-96 60.37 -96.02 68.98 -96.08 77.58 C-96.11 82.01 -96.13 86.43 -96.12 90.86 C-96.11 95.13 -96.14 99.4 -96.18 103.67 C-96.19 105.3 -96.19 106.93 -96.18 108.56 C-96.1 122.9 -96.1 122.9 -99.8 127.43 C-104.03 131.41 -108.87 132.73 -114.5 133.44 C-118.94 132.88 -122.44 131.78 -126 129 C-127.06 125.87 -127.39 123.96 -127.5 120.75 C-127.56 119.87 -127.61 118.99 -127.67 118.08 C-128.97 93.83 -128.46 69.23 -127 45 C-127.88 45.16 -128.76 45.32 -129.66 45.48 C-137.18 46.65 -145.31 47.18 -152 43 C-154.81 39.91 -155.83 37.74 -156.75 33.69 C-155.62 28.12 -152.07 24.81 -148 21 C-145.63 19.81 -144.54 20 -141.93 20.22 C-132.71 21.15 -132.71 21.15 -124.35 18.18 C-123.12 16.61 -121.94 14.99 -120.82 13.34 C-117.67 9.29 -112.97 7.11 -108 6 C-103.49 7.27 -101.49 9.02 -99 13 C-98.42 14.72 -97.88 16.45 -97.38 18.19 C-96.99 19.54 -96.99 19.54 -96.59 20.92 C-96.3 21.95 -96.3 21.95 -96 23 C-95.24 22.96 -94.49 22.93 -93.71 22.89 C-90.26 22.74 -86.82 22.65 -83.38 22.56 C-82.19 22.5 -81 22.45 -79.77 22.38 C-71.07 22.21 -71.07 22.21 -67.83 24.59 C-66.34 26.33 -65.11 28 -64 30 C-63.82 29.38 -63.63 28.77 -63.44 28.13 C-60.45 19.4 -55.06 13.03 -47 8.44 C-42.72 6.58 -38.59 6.16 -34 7 C-30.94 8.5 -30.94 8.5 -29 11 C-28.34 16.85 -29.13 21.62 -32.02 26.84 C-33.17 29.37 -33.49 31.56 -33.82 34.32 C-33.94 35.33 -34.07 36.34 -34.19 37.38 C-34.32 38.43 -34.44 39.48 -34.56 40.56 C-34.81 42.65 -35.06 44.73 -35.32 46.82 C-35.42 47.74 -35.53 48.66 -35.64 49.61 C-36 52 -36 52 -37 55 C-34.03 55 -31.06 55 -28 55 C-27.8 53.15 -27.59 51.31 -27.39 49.46 C-27.21 47.8 -27.03 46.13 -26.84 44.46 C-26.3 39.54 -25.91 34.66 -25.7 29.71 C-25.65 28.66 -25.59 27.6 -25.53 26.52 C-25.43 24.47 -25.36 22.42 -25.31 20.36 C-24.86 12.41 -21.88 8.25 -16 3 C-11.1 -0.51 -5.86 -1.01 0 0 Z M1 12 C1 13.65 1 15.3 1 17 C1.33 17 1.66 17 2 17 C2 15.35 2 13.7 2 12 C1.67 12 1.34 12 1 12 Z M-34 19 C-33 22 -33 22 -33 22 Z M-36 23 C-35 25 -35 25 -35 25 Z M0 24 C0 26.64 0 29.28 0 32 C0.33 32 0.66 32 1 32 C1 29.36 1 26.72 1 24 C0.67 24 0.34 24 0 24 Z M37.62 30.05 C32.79 35.86 29.95 43.57 29 51 C35.47 50.09 38.52 48.29 42.59 43.15 C46.16 37.72 46.27 33.23 45 27 C41.58 27 40.18 27.83 37.62 30.05 Z M69 33 C70 37 70 37 70 37 Z M-39 35 C-38 38 -38 38 -38 38 Z M68 37 C69 39 69 39 69 39 Z M28 38 C29 40 29 40 29 40 Z M-40 40 C-40 41.98 -40 43.96 -40 46 C-39.67 46 -39.34 46 -39 46 C-39 44.02 -39 42.04 -39 40 C-39.33 40 -39.66 40 -40 40 Z M67 41 C68 43 68 43 68 43 Z M26 43 C27 46 27 46 27 46 Z M66 43 C67 45 67 45 67 45 Z M65 45 C66 47 66 47 66 47 Z M25 47 C26 49 26 49 26 49 Z M64 47 C65 49 65 49 65 49 Z M-41 50 C-40 53 -40 53 -40 53 Z M-34 82 C-35.35 84.13 -35.35 84.13 -34.06 87.12 C-33.54 88.55 -33.54 88.55 -33 90 C-30.85 86.77 -30.8 85.72 -31 82 C-31.99 82 -32.98 82 -34 82 Z M-2 88 C-1 91 -1 91 -1 91 Z M80 88 C81 92 81 92 81 92 Z M-3 92 C-2 94 -2 94 -2 94 Z M79 92 C80 94 80 94 80 94 Z M-38 97 C-37 99 -37 99 -37 99 Z M-40 101 C-39 103 -39 103 -39 103 Z " fill="#040400" transform="translate(358,75)"/>
<path d="M0 0 C4.49 3.76 6.08 7.85 6.79 13.59 C6.85 20.87 5.22 27.36 0.69 33.12 C-2.98 36.84 -6.94 39.05 -12.19 39.56 C-15.94 38.18 -18.24 36.05 -20.19 32.56 C-20.38 29.81 -20.38 29.81 -20.19 27.56 C-41.13 23.67 -65.55 29.05 -83.87 39.67 C-86.95 41.43 -89.79 42.57 -93.19 43.56 C-91.87 47.52 -89.32 49.16 -86.12 51.62 C-85.49 52.11 -84.86 52.6 -84.21 53.1 C-72.18 62.25 -59.1 69.29 -45.78 76.37 C-36.99 81.07 -28.47 86.01 -20.19 91.56 C-18.86 92.44 -18.86 92.44 -17.5 93.34 C-12.09 97.22 -8.53 101.8 -4.82 107.3 C-3.38 109.66 -3.38 109.66 -1.19 110.56 C-1.07 109.32 -1.07 109.32 -0.96 108.05 C2.52 70.17 2.52 70.17 6.88 61.34 C9.23 56.21 9.34 51.57 9.31 46 C9.28 37.72 10.34 31.95 15.56 25.36 C23.86 17.48 23.86 17.48 30.38 17.06 C33.86 17.18 34.55 17.32 37.25 19.75 C39.8 24.35 41.1 27.96 41.12 33.25 C41.14 34.2 41.16 35.16 41.18 36.14 C40.86 39.09 40.31 41.27 39.39 44.06 C37.68 49.66 36.88 55.19 36.21 60.98 C36.08 62.05 35.95 63.11 35.82 64.2 C35.55 66.44 35.28 68.67 35.02 70.91 C34.63 74.29 34.21 77.67 33.8 81.05 C32.59 91.08 31.43 100.88 31.93 110.99 C31.76 114.64 30.56 116.7 27.91 119.16 C21.29 123.58 14.66 126.48 6.65 125.15 C4.81 124.56 4.81 124.56 1.81 122.56 C1.67 123.86 1.52 125.16 1.38 126.5 C-0.12 133.02 -4.26 136.33 -9.19 140.56 C-9.69 141.03 -10.2 141.5 -10.72 141.98 C-19.59 150.18 -27.13 153.79 -39.19 154.56 C-40.43 154.65 -41.68 154.74 -42.96 154.82 C-57.08 155.23 -71.2 153.28 -85.19 151.56 C-87.01 151.35 -87.01 151.35 -88.86 151.12 C-92.31 150.7 -95.75 150.23 -99.19 149.75 C-100.23 149.62 -101.26 149.49 -102.33 149.36 C-110.24 148.16 -110.24 148.16 -113.34 144.73 C-116.04 140.11 -116.17 136.76 -115.19 131.56 C-112.46 124.61 -106.54 119.2 -100.24 115.39 C-97.83 114.42 -95.97 114.26 -93.38 114.25 C-92.56 114.23 -91.75 114.22 -90.92 114.2 C-88.01 114.59 -85.76 115.59 -83.11 116.8 C-79.67 118.16 -76.08 118.64 -72.44 119.19 C-71.64 119.31 -70.85 119.44 -70.03 119.57 C-59.35 121.2 -48.99 121.7 -38.19 121.56 C-51.7 113.52 -65.36 105.79 -79.19 98.31 C-88.17 93.4 -96.4 88.26 -104.19 81.56 C-104.84 81.01 -105.49 80.45 -106.16 79.88 C-113.4 73.24 -117.49 65.1 -118.39 55.36 C-118.69 42.49 -112.87 32.2 -104.25 23 C-91.02 9.94 -71.91 2.19 -54.19 -2.44 C-53.11 -2.74 -52.03 -3.04 -50.93 -3.34 C-35.32 -7.12 -13.99 -9.19 0 0 Z M1.81 8.56 C2.81 10.56 2.81 10.56 2.81 10.56 Z M1.81 15.56 C1.15 19.19 0.49 22.82 -0.19 26.56 C0.47 26.23 1.13 25.9 1.81 25.56 C2.97 22.09 2.88 19.2 2.81 15.56 C2.48 15.56 2.15 15.56 1.81 15.56 Z M36.81 32.56 C37.81 36.56 37.81 36.56 37.81 36.56 Z M35.81 37.56 C36.81 41.56 36.81 41.56 36.81 41.56 Z M34.81 42.56 C35.81 44.56 35.81 44.56 35.81 44.56 Z M33.81 45.56 C34.81 47.56 34.81 47.56 34.81 47.56 Z M32.81 47.56 C32.81 49.87 32.81 52.18 32.81 54.56 C33.14 54.56 33.47 54.56 33.81 54.56 C33.81 52.25 33.81 49.94 33.81 47.56 C33.48 47.56 33.15 47.56 32.81 47.56 Z M31.81 55.56 C31.81 58.2 31.81 60.84 31.81 63.56 C32.14 63.56 32.47 63.56 32.81 63.56 C32.81 60.92 32.81 58.28 32.81 55.56 C32.48 55.56 32.15 55.56 31.81 55.56 Z M30.81 64.56 C30.81 67.2 30.81 69.84 30.81 72.56 C31.14 72.56 31.47 72.56 31.81 72.56 C31.81 69.92 31.81 67.28 31.81 64.56 C31.48 64.56 31.15 64.56 30.81 64.56 Z M29.81 73.56 C29.81 75.54 29.81 77.52 29.81 79.56 C30.14 79.56 30.47 79.56 30.81 79.56 C30.81 77.58 30.81 75.6 30.81 73.56 C30.48 73.56 30.15 73.56 29.81 73.56 Z M28.81 81.56 C28.81 83.21 28.81 84.86 28.81 86.56 C29.14 86.56 29.47 86.56 29.81 86.56 C29.81 84.91 29.81 83.26 29.81 81.56 C29.48 81.56 29.15 81.56 28.81 81.56 Z M27.81 88.56 C27.81 90.87 27.81 93.18 27.81 95.56 C28.14 95.56 28.47 95.56 28.81 95.56 C28.81 93.25 28.81 90.94 28.81 88.56 C28.48 88.56 28.15 88.56 27.81 88.56 Z M-3.19 123.56 C-2.19 126.56 -2.19 126.56 -2.19 126.56 Z M-4.19 127.56 C-3.19 129.56 -3.19 129.56 -3.19 129.56 Z " fill="#020300" transform="translate(588.1875,63.4375)"/>
<path d="M0 0 C6.3 5.4 10.93 11.09 11.89 19.63 C11.99 22.15 11.99 24.66 11.94 27.19 C11.94 28.03 11.94 28.87 11.95 29.74 C11.82 44.82 6.27 54.73 -4.38 65.25 C-10.99 71.26 -18.59 74.67 -27.38 76.25 C-27.19 77.95 -27.19 77.95 -27 79.69 C-26.99 85.33 -29.88 89.04 -33.38 93.25 C-36.75 96.54 -39.76 98.23 -44.38 99.25 C-49.24 99.16 -52.47 98.2 -56.09 94.82 C-60.62 89.28 -60.97 82.13 -61.38 75.25 C-62.59 75.13 -63.81 75 -65.06 74.88 C-68.46 74.53 -71.24 73.6 -74.38 72.25 C-74.35 73.47 -74.33 74.69 -74.31 75.94 C-74.37 88.65 -74.37 88.65 -77.08 92.97 C-83.47 98.57 -89.72 98.68 -98 98.58 C-101.07 98.28 -102.76 98.05 -105.25 96.31 C-109.27 90.52 -107.5 84.76 -106.38 78.12 C-106.19 77.12 -106.01 76.11 -105.82 75.07 C-105.29 71.72 -105.22 68.63 -105.38 65.25 C-106.55 65.75 -107.73 66.24 -108.94 66.75 C-112.92 68.22 -116.09 68.81 -120.38 68.25 C-127.57 64.8 -130.64 58.41 -133.38 51.25 C-133.41 52.16 -133.45 53.06 -133.49 54 C-134.09 65.07 -135.38 74.07 -143.38 82.25 C-149.05 86.72 -153.92 89.7 -161.37 89.59 C-164.91 88.99 -166.35 87.07 -168.38 84.25 C-169.81 78.86 -169.16 73.77 -168.56 68.31 C-168.48 67.44 -168.4 66.58 -168.31 65.68 C-167.79 60.66 -166.82 56.1 -165.38 51.25 C-165.18 49.48 -165.03 47.71 -164.94 45.94 C-163.65 30.52 -155.65 21.36 -144.38 11.25 C-137.8 6.33 -130.37 5.5 -122.38 6.25 C-115.05 8.59 -110.79 15.29 -106.38 21.25 C-105.95 20.85 -105.53 20.45 -105.09 20.04 C-99.54 15.03 -94.25 11.58 -86.43 11.89 C-80.8 12.87 -76.01 15.89 -72.38 20.25 C-68.65 27.7 -72.1 39.46 -73.38 47.25 C-72.7 46.89 -72.02 46.53 -71.33 46.16 C-70.44 45.69 -69.54 45.23 -68.62 44.75 C-67.74 44.29 -66.86 43.82 -65.95 43.34 C-63.38 42.25 -63.38 42.25 -59.38 42.25 C-59.31 41.03 -59.25 39.82 -59.19 38.56 C-57.62 24.74 -50.08 11.92 -40.15 2.46 C-28.15 -7.09 -13.32 -6.91 0 0 Z M7.62 19.25 C8.62 23.25 8.62 23.25 8.62 23.25 Z M-75.38 23.25 C-74.38 25.25 -74.38 25.25 -74.38 25.25 Z M-23.38 23.25 C-24.19 25 -25 26.75 -25.81 28.5 C-26.49 29.96 -26.49 29.96 -27.18 31.45 C-28.82 35.28 -29.51 38.35 -29.44 42.5 C-29.42 43.74 -29.4 44.97 -29.38 46.25 C-26.45 46.15 -24.14 46.07 -21.38 45.25 C-17.63 40.83 -16.23 36.97 -16.12 31.25 C-16.1 30.38 -16.07 29.52 -16.05 28.62 C-16.2 26.21 -16.2 26.21 -17.64 24.44 C-19.57 22.87 -19.57 22.87 -23.38 23.25 Z M-29.38 25.25 C-28.38 27.25 -28.38 27.25 -28.38 27.25 Z M-75.38 27.25 C-75.38 28.9 -75.38 30.55 -75.38 32.25 C-75.04 32.25 -74.72 32.25 -74.38 32.25 C-74.38 30.6 -74.38 28.95 -74.38 27.25 C-74.71 27.25 -75.03 27.25 -75.38 27.25 Z M-30.38 27.25 C-29.38 29.25 -29.38 29.25 -29.38 29.25 Z M7.62 27.25 C7.62 29.89 7.62 32.53 7.62 35.25 C7.96 35.25 8.28 35.25 8.62 35.25 C8.62 32.61 8.62 29.97 8.62 27.25 C8.29 27.25 7.97 27.25 7.62 27.25 Z M-31.38 30.25 C-30.38 32.25 -30.38 32.25 -30.38 32.25 Z M-76.38 32.25 C-75.38 35.25 -75.38 35.25 -75.38 35.25 Z M-32.38 32.25 C-31.38 36.25 -31.38 36.25 -31.38 36.25 Z M-77.38 35.25 C-76.38 38.25 -76.38 38.25 -76.38 38.25 Z M6.62 35.25 C6.62 37.23 6.62 39.21 6.62 41.25 C6.96 41.25 7.28 41.25 7.62 41.25 C7.62 39.27 7.62 37.29 7.62 35.25 C7.29 35.25 6.97 35.25 6.62 35.25 Z M-33.38 38.25 C-32.38 41.25 -32.38 41.25 -32.38 41.25 Z M5.62 41.25 C5.29 42.9 4.97 44.55 4.62 46.25 C5.28 45.92 5.94 45.59 6.62 45.25 C6.29 43.93 5.97 42.61 5.62 41.25 Z M2.62 48.25 C3.62 50.25 3.62 50.25 3.62 50.25 Z M1.62 50.25 C2.62 52.25 2.62 52.25 2.62 52.25 Z M-138.38 51.25 C-138.38 52.9 -138.38 54.55 -138.38 56.25 C-138.04 56.25 -137.72 56.25 -137.38 56.25 C-137.38 54.6 -137.38 52.95 -137.38 51.25 C-137.71 51.25 -138.03 51.25 -138.38 51.25 Z M-0.38 53.25 C-0.38 56.25 -0.38 56.25 -0.38 56.25 Z M-139.38 63.25 C-139.38 64.9 -139.38 66.55 -139.38 68.25 C-139.04 68.25 -138.72 68.25 -138.38 68.25 C-138.38 66.6 -138.38 64.95 -138.38 63.25 C-138.71 63.25 -139.03 63.25 -139.38 63.25 Z M-141.38 70.25 C-140.38 72.25 -140.38 72.25 -140.38 72.25 Z M-78.38 70.25 C-77.38 74.25 -77.38 74.25 -77.38 74.25 Z M-142.38 72.25 C-141.38 74.25 -141.38 74.25 -141.38 74.25 Z M-79.38 74.25 C-78.38 77.25 -78.38 77.25 -78.38 77.25 Z M-32.38 75.25 C-31.38 77.25 -31.38 77.25 -31.38 77.25 Z M-32.38 82.25 C-32.71 83.24 -33.03 84.23 -33.38 85.25 C-32.72 85.25 -32.06 85.25 -31.38 85.25 C-31.71 84.26 -32.03 83.27 -32.38 82.25 Z " fill="#030300" transform="translate(792.375,79.75)"/>
<path d="M0 0 C2.81 1.56 2.81 1.56 5 4 C5.81 7.75 5.81 7.75 6 11 C6.66 10.84 7.32 10.67 8 10.5 C17.49 8.92 17.49 8.92 20.67 11.19 C22.36 13.49 22.71 15.38 23.19 18.19 C23.35 19.09 23.5 19.99 23.67 20.92 C23.78 21.61 23.89 22.29 24 23 C24.56 22.28 25.11 21.55 25.69 20.8 C34.12 10.13 44.03 1.5 58.05 -0.26 C65.29 -0.64 72.28 1.2 78.11 5.59 C84.17 11.73 86.7 19.82 87.19 28.3 C86.67 41.51 81.07 51.63 72 61 C58.97 73 58.97 73 52 73 C55.58 76.83 58.15 78.15 63.38 78.38 C67.98 78.37 71.39 77.22 75.62 75.44 C81.19 73.15 84.24 72.11 90 74 C94.17 76.45 96.56 78.69 98.12 83.31 C97.87 90.8 96.08 95.41 90.62 100.69 C80.87 108.78 71.48 111.63 59 112 C57.23 112.24 55.46 112.49 53.69 112.75 C47.22 113.39 42.53 111.43 37.5 107.44 C33.95 104.19 31.1 100.45 28.19 96.63 C25.88 93.85 23.37 91.55 20.69 89.12 C12.85 81.32 12.76 72.53 12.62 62 C12.65 55.11 13.29 48.84 15.34 42.21 C16.14 39.91 16.14 39.91 16 37 C14.91 37.64 13.81 38.28 12.69 38.94 C10.42 40.27 8.53 41.16 6 42 C5.84 43.75 5.84 43.75 5.68 45.54 C5.28 49.91 4.87 54.28 4.46 58.65 C4.28 60.54 4.1 62.42 3.94 64.31 C3.69 67.03 3.43 69.75 3.17 72.47 C3.06 73.72 3.06 73.72 2.95 74.99 C1.85 86.01 -2.57 94.27 -10.94 101.56 C-15.15 103.54 -17.36 103.66 -22 103 C-25.36 100.42 -26.83 98.97 -27.56 94.74 C-27.52 93.47 -27.48 92.19 -27.44 90.88 C-27.42 90.16 -27.4 89.44 -27.38 88.71 C-27.12 80.42 -26.42 72.14 -25.71 63.88 C-25.08 56.24 -24.89 48.67 -25 41 C-26.7 40.96 -26.7 40.96 -28.44 40.92 C-43.64 40.41 -43.64 40.41 -50 36 C-52.48 32.28 -52.65 29.31 -52 25 C-49.53 20.07 -45.66 15.97 -41 13 C-36.68 11.6 -32.7 12.25 -28.31 12.94 C-23.68 13.7 -23.68 13.7 -19 14 C-18.72 12.98 -18.72 12.98 -18.44 11.94 C-14.86 4.63 -8.42 -1.03 0 0 Z M19 15 C20 17 20 17 20 17 Z M19 18 C19 19.65 19 21.3 19 23 C19.33 23 19.66 23 20 23 C20 21.35 20 19.7 20 18 C19.67 18 19.34 18 19 18 Z M82 20 C83 23 83 23 83 23 Z M50.62 29.12 C45.66 34.87 42.35 42.41 42 50 C47.9 49.08 51.08 47.86 54.74 43.06 C57.62 38.34 59.17 33.97 58.69 28.44 C58.46 27.63 58.23 26.83 58 26 C54.55 26 53.19 26.88 50.62 29.12 Z M82 28 C82 30.31 82 32.62 82 35 C82.33 35 82.66 35 83 35 C83 32.69 83 30.38 83 28 C82.67 28 82.34 28 82 28 Z M45 29 C46 31 46 31 46 31 Z M42 34 C43 36 43 36 43 36 Z M41 36 C42 38 42 38 42 38 Z M81 36 C82 38 82 38 82 38 Z M40 38 C41 41 41 41 41 41 Z M80 39 C79.67 40.65 79.34 42.3 79 44 C79.66 43.67 80.32 43.34 81 43 C80.67 41.68 80.34 40.36 80 39 Z M1 40 C2 43 2 43 2 43 Z M38 44 C39 48 39 48 39 48 Z M78 44 C79 46 79 46 79 46 Z M77 46 C78 48 78 48 78 48 Z M0 49 C0 52.3 0 55.6 0 59 C0.33 59 0.66 59 1 59 C1 55.7 1 52.4 1 49 C0.67 49 0.34 49 0 49 Z M75 49 C76 51 76 51 76 51 Z M-1 61 C-1 64.3 -1 67.6 -1 71 C-0.67 71 -0.34 71 0 71 C0 67.7 0 64.4 0 61 C-0.33 61 -0.66 61 -1 61 Z M-2 72 C-2 74.64 -2 77.28 -2 80 C-1.67 80 -1.34 80 -1 80 C-1 77.36 -1 74.72 -1 72 C-1.33 72 -1.66 72 -2 72 Z M-3 81 C-2 84 -2 84 -2 84 Z M93 85 C93 86.65 93 88.3 93 90 C93.33 90 93.66 90 94 90 C94 88.35 94 86.7 94 85 C93.67 85 93.34 85 93 85 Z M-5 86 C-4 88 -4 88 -4 88 Z M-6 88 C-6 91 -6 91 -6 91 Z " fill="#020300" transform="translate(382,219)"/>
<path d="M0 0 C2.96 2.67 4.19 4.64 4.94 8.55 C5.2 13.7 4.74 16.65 1.31 20.62 C-0.48 22.46 -0.48 22.46 -2.5 24.25 C-3.2 24.91 -3.91 25.58 -4.63 26.26 C-9.27 29.48 -14.56 30.88 -19.9 32.61 C-20.73 32.89 -21.57 33.18 -22.42 33.47 C-23.18 33.72 -23.94 33.96 -24.72 34.22 C-26.62 35.1 -26.62 35.1 -27.36 36.95 C-27.56 40.17 -26.75 42.73 -25.85 45.82 C-25.48 47.14 -25.11 48.45 -24.74 49.76 C-24.55 50.45 -24.35 51.13 -24.15 51.83 C-16.21 80.1 -16.21 80.1 -20.88 91.69 C-26.83 101.04 -35.16 107.71 -45.81 110.5 C-53.97 112.07 -63.68 112.35 -71.5 109.25 C-74.13 107.26 -76.09 105.25 -77.5 102.25 C-77.65 99.02 -77.65 99.02 -77.5 96.25 C-78.2 96.82 -78.9 97.38 -79.62 97.96 C-89.49 105.59 -89.49 105.59 -96.5 105.25 C-100.82 104.36 -104.36 103.35 -107.56 100.25 C-108.5 98.25 -108.5 98.25 -108.5 95.25 C-109.16 95.25 -109.82 95.25 -110.5 95.25 C-110.6 95.96 -110.7 96.68 -110.8 97.41 C-112.76 105.39 -118.73 112.72 -125.5 117.25 C-129.33 119.42 -132.06 119.71 -136.5 119.25 C-141.28 116.81 -144.06 114.03 -146.5 109.25 C-147.67 92.43 -135.51 72.15 -125.5 59.25 C-122.31 55.98 -119.36 53.36 -114.67 53.08 C-113.54 53.08 -112.41 53.07 -111.25 53.06 C-110.13 53.05 -109.01 53.03 -107.86 53.02 C-104.42 53.26 -101.7 54.02 -98.5 55.25 C-98.86 46.15 -102.49 39.61 -106.73 31.69 C-109.82 25.63 -111.44 21.91 -109.5 15.25 C-106.52 10.15 -102.12 6.16 -96.5 4.25 C-92.65 3.69 -90.99 3.97 -87.6 5.91 C-76.47 14.31 -71.38 28.91 -69.5 42.25 C-69.31 46.76 -69.31 51.26 -69.31 55.77 C-69.31 57.91 -69.29 60.06 -69.28 62.2 C-69.24 70.07 -69.69 77.56 -71.5 85.25 C-70.61 84.43 -69.73 83.6 -68.81 82.75 C-65.11 80.03 -62.26 79.98 -57.73 80.09 C-56.56 80.12 -55.4 80.14 -54.19 80.16 C-53.3 80.19 -52.42 80.22 -51.5 80.25 C-51.81 79.09 -51.81 79.09 -52.13 77.9 C-53.08 74.31 -54.01 70.72 -54.94 67.12 C-55.26 65.91 -55.59 64.69 -55.92 63.43 C-59.38 49.96 -61.83 36.81 -54.94 24.19 C-45.71 9.95 -17.21 -8.6 0 0 Z M0.5 6.25 C1.5 9.25 1.5 9.25 1.5 9.25 Z M0.5 10.25 C1.5 14.25 1.5 14.25 1.5 14.25 Z M-75.5 32.25 C-74.5 34.25 -74.5 34.25 -74.5 34.25 Z M-74.5 38.25 C-73.5 40.25 -73.5 40.25 -73.5 40.25 Z M-73.5 44.25 C-72.5 48.25 -72.5 48.25 -72.5 48.25 Z M-29.5 47.25 C-28.5 49.25 -28.5 49.25 -28.5 49.25 Z M-73.5 60.25 C-73.5 63.88 -73.5 67.51 -73.5 71.25 C-73.17 71.25 -72.84 71.25 -72.5 71.25 C-72.5 67.62 -72.5 63.99 -72.5 60.25 C-72.83 60.25 -73.16 60.25 -73.5 60.25 Z M-74.5 72.25 C-74.5 74.23 -74.5 76.21 -74.5 78.25 C-74.17 78.25 -73.84 78.25 -73.5 78.25 C-73.5 76.27 -73.5 74.29 -73.5 72.25 C-73.83 72.25 -74.16 72.25 -74.5 72.25 Z M-75.5 78.25 C-74.5 81.25 -74.5 81.25 -74.5 81.25 Z M-23.5 80.25 C-23.5 81.9 -23.5 83.55 -23.5 85.25 C-23.17 85.25 -22.84 85.25 -22.5 85.25 C-22.5 83.6 -22.5 81.95 -22.5 80.25 C-22.83 80.25 -23.16 80.25 -23.5 80.25 Z M-76.5 82.25 C-75.5 84.25 -75.5 84.25 -75.5 84.25 Z M-24.5 85.25 C-23.5 88.25 -23.5 88.25 -23.5 88.25 Z M-25.5 88.25 C-24.5 90.25 -24.5 90.25 -24.5 90.25 Z M-26.5 90.25 C-26.5 93.25 -26.5 93.25 -26.5 93.25 Z M-114.5 93.25 C-113.5 95.25 -113.5 95.25 -113.5 95.25 Z M-116.5 98.25 C-115.5 100.25 -115.5 100.25 -115.5 100.25 Z M-117.5 100.25 C-116.5 102.25 -116.5 102.25 -116.5 102.25 Z M-119.5 103.25 C-118.5 105.25 -118.5 105.25 -118.5 105.25 Z M-120.5 105.25 C-120.5 108.25 -120.5 108.25 -120.5 108.25 Z " fill="#020300" transform="translate(1073.5,69.75)"/>
<path d="M0 0 C2.96 2.67 4.19 4.64 4.94 8.55 C5.2 13.7 4.74 16.65 1.31 20.62 C-0.48 22.46 -0.48 22.46 -2.5 24.25 C-3.2 24.91 -3.91 25.58 -4.63 26.26 C-9.27 29.48 -14.56 30.88 -19.9 32.61 C-20.73 32.89 -21.57 33.18 -22.42 33.47 C-23.56 33.84 -23.56 33.84 -24.72 34.22 C-26.63 35.1 -26.63 35.1 -27.34 37.01 C-27.55 39.92 -26.94 42.13 -26.14 44.94 C-25.67 46.61 -25.67 46.61 -25.2 48.31 C-24.86 49.46 -24.53 50.62 -24.19 51.81 C-21.88 59.92 -19.83 67.92 -18.5 76.25 C-18.19 75.19 -17.87 74.13 -17.55 73.03 C-12.77 57.14 -7.01 44.52 7.92 35.59 C15.75 31.52 24.31 30.77 32.94 32.83 C43.36 37.44 50.39 48.07 54.75 58.14 C58.32 68.03 59.95 81.15 56.06 91.25 C47.99 105.76 33.27 114.78 17.73 119.36 C1.51 123.08 1.51 123.08 -5.25 119.62 C-12.48 114.8 -15.27 108.43 -17.5 100.25 C-18.33 95.93 -18.97 91.61 -19.5 87.25 C-19.95 88.36 -20.41 89.48 -20.88 90.62 C-25.04 98.93 -32.63 106.25 -41.5 109.25 C-50.76 112.2 -62.33 112.84 -71.5 109.25 C-74.97 106.81 -76.99 104.19 -78.07 100.07 C-78.43 95.6 -77.5 92.66 -74.94 89 C-73.83 87.72 -72.68 86.46 -71.5 85.25 C-70.76 84.45 -70.76 84.45 -70 83.64 C-66.12 80.19 -62.87 80.02 -57.75 80.12 C-56 80.15 -56 80.15 -54.21 80.18 C-53.31 80.2 -52.42 80.23 -51.5 80.25 C-51.71 79.43 -51.91 78.61 -52.13 77.76 C-52.9 74.69 -53.67 71.63 -54.44 68.56 C-54.77 67.24 -55.1 65.91 -55.43 64.59 C-55.91 62.68 -56.39 60.77 -56.87 58.86 C-57.16 57.72 -57.45 56.57 -57.74 55.39 C-60.34 44.6 -60.54 34.92 -55.25 24.87 C-46.83 11.34 -31.18 3.29 -16.21 -1.16 C-10.23 -2.46 -5.55 -2.77 0 0 Z M0.5 6.25 C1.5 9.25 1.5 9.25 1.5 9.25 Z M0.5 11.25 C1.5 14.25 1.5 14.25 1.5 14.25 Z M-32.5 35.25 C-31.5 37.25 -31.5 37.25 -31.5 37.25 Z M11.5 59.25 C12.5 61.25 12.5 61.25 12.5 61.25 Z M16.5 60.25 C14.06 65.35 12.94 69.7 12.44 75.31 C11.97 80.19 11.24 84.63 9.5 89.25 C12.29 92.17 13.68 93.16 17.81 93.62 C21.59 93.57 21.59 93.57 24.25 91.12 C28.71 85.43 30.06 81.19 29.86 74.01 C29.19 68.84 27.16 64.97 23.56 61.25 C21.06 60.04 19.25 60.02 16.5 60.25 Z M10.5 61.25 C11.5 64.25 11.5 64.25 11.5 64.25 Z M9.5 65.25 C10.5 69.25 10.5 69.25 10.5 69.25 Z M53.5 70.25 C53.5 71.9 53.5 73.55 53.5 75.25 C53.83 75.25 54.16 75.25 54.5 75.25 C54.5 73.6 54.5 71.95 54.5 70.25 C54.17 70.25 53.84 70.25 53.5 70.25 Z M8.5 71.25 C8.17 75.21 7.84 79.17 7.5 83.25 C8.16 82.92 8.82 82.59 9.5 82.25 C9.5 78.62 9.5 74.99 9.5 71.25 C9.17 71.25 8.84 71.25 8.5 71.25 Z M53.5 79.25 C53.5 80.9 53.5 82.55 53.5 84.25 C53.83 84.25 54.16 84.25 54.5 84.25 C54.5 82.6 54.5 80.95 54.5 79.25 C54.17 79.25 53.84 79.25 53.5 79.25 Z M-23.5 82.25 C-22.5 85.25 -22.5 85.25 -22.5 85.25 Z M6.5 83.25 C7.5 85.25 7.5 85.25 7.5 85.25 Z M52.5 84.25 C53.5 87.25 53.5 87.25 53.5 87.25 Z M-24.5 85.25 C-23.5 88.25 -23.5 88.25 -23.5 88.25 Z M51.5 87.25 C52.5 89.25 52.5 89.25 52.5 89.25 Z M-25.5 88.25 C-24.5 90.25 -24.5 90.25 -24.5 90.25 Z M-26.5 90.25 C-26.5 93.25 -26.5 93.25 -26.5 93.25 Z M49.5 91.25 C50.5 93.25 50.5 93.25 50.5 93.25 Z " fill="#020300" transform="translate(872.5,69.75)"/>
<path d="M0 0 C1.35 1.1 2.67 2.25 3.94 3.44 C4.57 3.98 5.2 4.52 5.86 5.08 C12.08 10.75 16.48 17.85 17.18 26.32 C17.43 37.6 14.75 45.18 7.5 53.84 C1.65 59.77 -5.15 64.83 -12.06 69.44 C-10.23 70.84 -8.41 72.25 -6.57 73.65 C-5.02 74.85 -3.46 76.04 -1.91 77.24 C1.47 79.84 4.84 82.42 8.38 84.8 C14.94 89.25 18.46 92.68 20.44 100.4 C20.88 103.89 20.33 105.83 18.42 108.8 C13.99 114.13 9.09 118.87 1.94 119.66 C-7.63 119.21 -14.57 110.25 -21.14 104.14 C-24.72 100.83 -28.37 97.62 -32.06 94.44 C-31.98 95.64 -31.9 96.85 -31.82 98.09 C-31.12 112.64 -31.12 112.64 -34.88 117.31 C-39.11 121.08 -44.46 123.59 -50.06 124.44 C-55.05 122.92 -57.16 120.68 -59.86 116.33 C-62.31 110.45 -61.85 104.15 -61.75 97.89 C-61.75 96.38 -61.75 94.88 -61.75 93.37 C-61.75 90.23 -61.72 87.08 -61.68 83.94 C-61.63 79.94 -61.62 75.94 -61.62 71.95 C-61.62 68.84 -61.6 65.73 -61.58 62.63 C-61.57 61.15 -61.57 59.68 -61.56 58.21 C-61.5 39.95 -57.1 23.83 -44.06 10.44 C-32.91 0.53 -14.54 -9.27 0 0 Z M12.94 23.44 C13.94 25.44 13.94 25.44 13.94 25.44 Z M-32.06 33.44 C-34.5 37.08 -34.27 40.4 -34.19 44.69 C-34.17 45.95 -34.15 47.21 -34.13 48.52 C-34.11 49.48 -34.09 50.44 -34.06 51.44 C-31.87 52.81 -31.87 52.81 -28.5 51.44 C-22.04 48.88 -15.81 44.36 -12.06 38.44 C-12.06 32.92 -14.42 30.26 -18.06 26.44 C-23.09 26.44 -28.63 30.11 -32.06 33.44 Z M12.94 29.44 C12.94 31.09 12.94 32.74 12.94 34.44 C13.27 34.44 13.6 34.44 13.94 34.44 C13.94 32.79 13.94 31.14 13.94 29.44 C13.61 29.44 13.28 29.44 12.94 29.44 Z M11.94 34.44 C12.94 37.44 12.94 37.44 12.94 37.44 Z M-38.06 35.44 C-37.06 37.44 -37.06 37.44 -37.06 37.44 Z M10.94 38.44 C11.94 40.44 11.94 40.44 11.94 40.44 Z M9.94 40.44 C10.94 42.44 10.94 42.44 10.94 42.44 Z M8.94 42.44 C9.94 44.44 9.94 44.44 9.94 44.44 Z M7.94 44.44 C8.94 46.44 8.94 46.44 8.94 46.44 Z M-37.06 91.44 C-37.06 95.4 -37.06 99.36 -37.06 103.44 C-36.73 103.44 -36.4 103.44 -36.06 103.44 C-36.06 99.48 -36.06 95.52 -36.06 91.44 C-36.39 91.44 -36.72 91.44 -37.06 91.44 Z M15.94 101.44 C16.94 104.44 16.94 104.44 16.94 104.44 Z " fill="#F7D906" transform="translate(1202.0625,235.5625)"/>
<path d="M0 0 C3.62 3.97 4.21 7.86 4.19 13.12 C4.2 14.64 4.2 14.64 4.2 16.19 C3.93 19.26 3.36 21.4 1.94 24.12 C-1.06 26.12 -1.06 26.12 -3.56 25.88 C-6.06 25.12 -6.06 25.12 -9.06 23.12 C-10.05 20.5 -10.48 17.88 -11.06 15.12 C-36.52 11.13 -61.13 18.1 -83.57 29.85 C-85.73 30.95 -87.87 31.88 -90.12 32.75 C-93.22 34.2 -94.61 35.04 -96.06 38.12 C-96.06 41.54 -95.26 42.89 -93.06 45.5 C-89.19 48.89 -85.17 52.03 -81.06 55.12 C-80.27 55.74 -79.48 56.36 -78.67 57 C-68.55 64.71 -57.23 70.38 -46.02 76.34 C-15.99 92.35 -15.99 92.35 -14.06 98.12 C-12.73 98.79 -11.4 99.46 -10.06 100.12 C-4.42 106.53 -0.58 114.85 -1 123.5 C-2.06 127.12 -2.06 127.12 -4.44 129.06 C-5.24 129.49 -5.24 129.49 -6.05 129.92 C-9.84 132.19 -13.05 135.31 -16.38 138.2 C-23.05 142.98 -32.77 141.46 -40.69 141.5 C-41.5 141.5 -42.31 141.51 -43.14 141.51 C-55.72 141.54 -67.99 140.64 -80.44 138.81 C-81.18 138.71 -81.92 138.6 -82.69 138.49 C-100.28 135.91 -100.28 135.91 -104.06 132.12 C-104.87 125.47 -104.87 125.47 -102.86 122.11 C-100.26 118.99 -97.93 116.57 -94.06 115.12 C-91.59 115.08 -91.59 115.08 -89 115.38 C-88.14 115.46 -87.29 115.55 -86.4 115.64 C-84.06 116.12 -84.06 116.12 -81.06 118.12 C-76.78 119.11 -72.41 119.65 -68.06 120.25 C-66.14 120.52 -66.14 120.52 -64.18 120.79 C-42.47 123.77 -42.47 123.77 -21.06 121.12 C-23.78 111.47 -32.16 106.33 -40.37 101.67 C-47.09 97.97 -53.95 94.51 -60.77 91.01 C-99.25 71.11 -99.25 71.11 -106.06 54.12 C-106.49 51.34 -106.54 48.63 -106.5 45.81 C-106.49 45.06 -106.48 44.3 -106.48 43.53 C-106.3 37.64 -105.31 33.12 -102.06 28.12 C-101.68 27.47 -101.31 26.81 -100.92 26.13 C-89.65 8.66 -63.9 1.83 -45.06 -2.88 C-44.05 -3.14 -43.03 -3.41 -41.99 -3.69 C-29 -6.62 -11.6 -7.1 0 0 Z " fill="#F9DA06" transform="translate(586.0625,65.875)"/>
<path d="M0 0 C3.76 2.52 7.02 5.07 10 8.5 C10.7 9.24 11.4 9.99 12.12 10.75 C17.44 18.54 18.17 27.28 17 36.5 C15.09 44.02 12.39 51.79 7 57.5 C6.34 57.5 5.68 57.5 5 57.5 C4.91 58.1 4.81 58.69 4.72 59.3 C3.83 62.01 2.72 62.89 0.5 64.62 C-2.19 66.7 -2.19 66.7 -4 69.5 C-5.61 70.5 -7.26 71.42 -8.94 72.31 C-9.92 72.85 -10.91 73.38 -11.93 73.93 C-13.89 74.93 -15.89 75.88 -17.92 76.76 C-23.38 78.97 -23.38 78.97 -26.31 83.81 C-25.87 89.03 -24.77 93.73 -21 97.5 C-20.33 99.34 -20.33 99.34 -19.81 101.44 C-19.63 102.13 -19.45 102.82 -19.27 103.53 C-19 105.5 -19 105.5 -20 108.5 C-21.43 108.75 -22.87 108.97 -24.31 109.19 C-25.11 109.32 -25.91 109.44 -26.74 109.57 C-29 109.5 -29 109.5 -30.69 108.3 C-32.18 106.25 -32.89 104.41 -33.69 102 C-39.85 86.02 -51.8 79.65 -66.62 72.91 C-72.37 70.08 -75.18 67.74 -77.41 61.66 C-78.34 58.26 -78.84 55.02 -79 51.5 C-79.05 50.86 -79.1 50.22 -79.16 49.56 C-79.89 33.45 -74.31 18.89 -64 6.68 C-46.45 -12.48 -21.44 -13.01 0 0 Z M-51.59 33.3 C-55.91 40.03 -55.89 47.77 -55 55.5 C-53.37 59.56 -51.07 62.43 -48 65.5 C-44.78 65.84 -44.78 65.84 -42.44 63.12 C-41.63 62.26 -40.83 61.39 -40 60.5 C-39.34 59.84 -38.68 59.18 -38 58.5 C-34.62 58.5 -34.62 58.5 -31 59.5 C-28.56 62.56 -28.56 62.56 -27 65.5 C-21.84 64.89 -18.04 62.8 -14.58 58.89 C-10.02 52.83 -7.89 46.1 -8 38.5 C-9.73 32.94 -11.86 29.47 -16.8 26.37 C-29.4 19.76 -42.61 22.82 -51.59 33.3 Z M-56 31.5 C-55 33.5 -55 33.5 -55 33.5 Z M-57 33.5 C-56 35.5 -56 35.5 -56 35.5 Z M-58 36.5 C-57 38.5 -57 38.5 -57 38.5 Z M-59 39.5 C-58 42.5 -58 42.5 -58 42.5 Z " fill="#F8D906" transform="translate(147,230.5)"/>
<path d="M0 0 C10.39 7.92 16.44 21.13 18.17 33.82 C18.96 46 17.45 54.04 9.45 63.41 C-2.36 75.9 -18.87 83.48 -36.08 84.32 C-41.81 84.14 -45.67 82.8 -49.83 78.82 C-58.11 69.05 -59.64 55.12 -58.67 42.75 C-56.76 26.34 -49.67 11.99 -36.95 1.32 C-25.38 -6.89 -11.92 -7.68 0 0 Z M-28.83 22.82 C-27.83 24.82 -27.83 24.82 -27.83 24.82 Z M-23.83 22.82 C-26.44 29.59 -27.55 36.07 -28.4 43.27 C-28.83 46.82 -28.83 46.82 -29.57 50.09 C-30.11 52.8 -30.11 52.8 -28.66 54.66 C-25.79 56.48 -23.46 56.48 -20.12 56.36 C-16.61 55.53 -15.06 53.74 -12.99 50.88 C-9.6 44.86 -9.43 39.49 -10.83 32.82 C-12.61 28.19 -14.59 25.45 -18.83 22.82 C-21.54 22.48 -21.54 22.48 -23.83 22.82 Z M-29.83 24.82 C-28.83 28.82 -28.83 28.82 -28.83 28.82 Z M-30.83 29.82 C-30.83 31.47 -30.83 33.12 -30.83 34.82 C-30.5 34.82 -30.17 34.82 -29.83 34.82 C-29.83 33.17 -29.83 31.52 -29.83 29.82 C-30.16 29.82 -30.49 29.82 -30.83 29.82 Z M13.17 29.82 C14.17 31.82 14.17 31.82 14.17 31.82 Z M14.17 36.82 C15.17 38.82 15.17 38.82 15.17 38.82 Z M-31.83 39.82 C-32.16 42.13 -32.49 44.44 -32.83 46.82 C-32.17 46.49 -31.51 46.16 -30.83 45.82 C-30.83 43.84 -30.83 41.86 -30.83 39.82 C-31.16 39.82 -31.49 39.82 -31.83 39.82 Z M14.17 40.82 C15.17 44.82 15.17 44.82 15.17 44.82 Z M13.17 44.82 C12.84 46.8 12.51 48.78 12.17 50.82 C12.83 50.49 13.49 50.16 14.17 49.82 C14.17 48.17 14.17 46.52 14.17 44.82 C13.84 44.82 13.51 44.82 13.17 44.82 Z M9.17 54.82 C10.17 56.82 10.17 56.82 10.17 56.82 Z " fill="#F8D906" transform="translate(1121.83203125,250.1796875)"/>
<path d="M0 0 C7.31 4.96 10.73 12.21 13.25 20.53 C14.74 28.44 12.44 35.78 8.25 42.53 C5.43 45.51 2.35 47.91 -0.99 50.28 C-3.02 51.72 -5 53.22 -6.98 54.72 C-10.42 57.32 -13.87 59.9 -17.34 62.46 C-18.73 63.47 -18.73 63.47 -19.75 64.53 C-18 65.77 -16.26 67 -14.51 68.24 C-12.99 69.32 -11.47 70.4 -9.94 71.49 C-6.07 74.24 -2.18 76.92 1.84 79.46 C2.56 79.93 3.28 80.39 4.03 80.87 C5.39 81.75 6.77 82.6 8.16 83.44 C12.71 86.39 14.37 89.19 15.95 94.36 C16.29 96.8 16.14 98.23 15.25 100.53 C10.43 105.47 10.43 105.47 6.88 105.66 C-0.39 102.54 -6 97.74 -11.62 92.28 C-13.02 90.95 -14.43 89.61 -15.83 88.28 C-16.5 87.64 -17.17 86.99 -17.86 86.33 C-20.32 83.98 -22.8 81.65 -25.31 79.34 C-26.01 78.69 -26.71 78.04 -27.44 77.36 C-30.37 74.94 -30.37 74.94 -36.75 71.53 C-36.75 83.08 -36.75 94.63 -36.75 106.53 C-42.75 109.53 -42.75 109.53 -45.37 109.03 C-48.3 107.18 -49.82 105.41 -51.75 102.53 C-52.25 99.52 -52.25 99.52 -52.25 96.13 C-52.26 94.85 -52.27 93.58 -52.28 92.26 C-52.27 90.87 -52.25 89.49 -52.24 88.1 C-52.24 86.66 -52.24 85.22 -52.25 83.78 C-52.25 80.76 -52.24 77.74 -52.21 74.72 C-52.18 70.9 -52.19 67.07 -52.2 63.24 C-52.21 60.26 -52.2 57.29 -52.19 54.31 C-52.18 52.9 -52.18 51.49 -52.19 50.08 C-52.21 32.71 -49.29 19.39 -37.73 6.24 C-27.69 -3.33 -12.29 -6.93 0 0 Z M-24.61 24.35 C-28.76 26.64 -31.64 29.24 -33.75 33.53 C-34.31 38.26 -34.17 42.79 -33.75 47.53 C-31.55 48.91 -31.55 48.91 -28.18 47.53 C-21.74 44.98 -15.46 40.45 -11.75 34.53 C-11.93 30.15 -13.14 27.04 -15.75 23.53 C-19.32 22.34 -21.19 22.92 -24.61 24.35 Z M-37.75 31.53 C-36.75 33.53 -36.75 33.53 -36.75 33.53 Z " fill="#F7D906" transform="translate(896.74609375,239.46875)"/>
<path d="M0 0 C3.25 1.96 4.81 3.8 6.38 7.31 C6.72 7.95 7.07 8.59 7.43 9.25 C11.27 16.7 11.62 24.01 9.12 32 C5.38 41.81 1.15 49.47 -8.62 54.31 C-9.66 54.86 -9.66 54.86 -10.71 55.41 C-15.95 58.12 -19.91 59.45 -25.88 59.38 C-26.77 59.37 -27.66 59.36 -28.58 59.35 C-29.25 59.34 -29.93 59.32 -30.62 59.31 C-29.38 65.67 -25.64 68.66 -20.62 72.31 C-15.48 75.7 -10.85 77.27 -4.62 76.31 C-0.45 75.32 3.64 74.22 7.45 72.23 C10.45 70.8 13.11 71.08 16.38 71.31 C19.45 73.37 20.17 73.97 21.38 77.31 C21.82 80.82 21.71 82.7 20 85.81 C13.21 92.28 5.84 95.24 -3.31 96.44 C-4 96.54 -4.68 96.64 -5.38 96.74 C-13.11 97.75 -19.52 97.21 -25.99 92.59 C-31.45 87.87 -36.29 82.49 -41.05 77.09 C-42.04 75.97 -43.05 74.87 -44.09 73.79 C-51.17 66.11 -50.13 55.42 -49.93 45.65 C-49.32 31.49 -43.87 17.78 -34.25 7.25 C-25.39 -0.81 -11.32 -5.23 0 0 Z M-17.62 20.31 C-23.76 26.48 -29.41 33.01 -29.72 42.11 C-29.69 42.84 -29.66 43.56 -29.62 44.31 C-25.3 43.48 -21.77 42.56 -18.73 39.25 C-14.54 33.05 -13.48 28.81 -13.62 21.31 C-14.95 20.98 -16.26 20.65 -17.62 20.31 Z M-27.62 24.31 C-26.62 26.31 -26.62 26.31 -26.62 26.31 Z M-29.62 27.31 C-28.62 29.31 -28.62 29.31 -28.62 29.31 Z M-30.62 29.31 C-29.62 31.31 -29.62 31.31 -29.62 31.31 Z M-31.62 32.31 C-30.62 34.31 -30.62 34.31 -30.62 34.31 Z M-32.62 34.31 C-31.62 37.31 -31.62 37.31 -31.62 37.31 Z M-33.62 37.31 C-32.62 40.31 -32.62 40.31 -32.62 40.31 Z " fill="#F8D906" transform="translate(815.625,224.6875)"/>
<path d="M0 0 C4.64 3.52 6.32 8.55 7.48 14.12 C8.53 24.28 7.19 32.08 2.48 41.12 C1.82 41.12 1.16 41.12 0.48 41.12 C0.4 41.7 0.33 42.28 0.26 42.87 C-1.6 48.23 -8.27 51.91 -13.08 54.49 C-18.02 56.71 -22.24 58.25 -27.71 58.18 C-28.61 58.17 -29.51 58.17 -30.44 58.16 C-31.13 58.14 -31.82 58.13 -32.52 58.12 C-31.95 62.05 -31.95 62.05 -29.52 65.12 C-28.8 65.9 -28.08 66.69 -27.34 67.5 C-22.31 72.19 -17.3 74.74 -10.46 75.43 C-5.07 75.01 -0.53 73.07 4.48 71.12 C7.99 69.8 10.53 68.87 14.29 69.87 C16.48 71.12 16.48 71.12 18.48 73.12 C18.71 75.65 18.71 75.65 18.66 78.62 C18.66 79.6 18.65 80.58 18.64 81.59 C18.48 84.12 18.48 84.12 17.48 86.12 C6.45 93.26 -5.29 96.98 -18.52 96.12 C-25.81 94.4 -30.72 89.63 -35.52 84.12 C-36.1 83.47 -36.67 82.81 -37.26 82.14 C-38.44 80.79 -39.6 79.44 -40.76 78.07 C-42.47 76.1 -42.47 76.1 -44.41 74.52 C-51.21 68.73 -51.99 61.51 -52.84 52.95 C-53.49 36.61 -47.31 18.33 -36.64 5.93 C-27.13 -3 -11.77 -7.24 0 0 Z M-23.9 22.17 C-28.74 27.98 -31.57 35.69 -32.52 43.12 C-26.06 42.21 -23 40.41 -18.94 35.27 C-15.37 29.84 -15.25 25.35 -16.52 19.12 C-19.95 19.12 -21.35 19.95 -23.9 22.17 Z M-33.52 30.12 C-32.52 32.12 -32.52 32.12 -32.52 32.12 Z M-35.52 35.12 C-34.52 38.12 -34.52 38.12 -34.52 38.12 Z M-36.52 39.12 C-35.52 41.12 -35.52 41.12 -35.52 41.12 Z " fill="#F8DA06" transform="translate(419.5234375,82.87890625)"/>
<path d="M0 0 C6.46 3.85 9.08 8.53 10.94 15.75 C12.19 26.59 10.47 37.3 3.6 46.06 C-5.55 55.34 -16.15 60.2 -29.06 60.75 C-29.06 62.4 -29.06 64.05 -29.06 65.75 C-27.58 66.25 -27.58 66.25 -26.06 66.75 C-24.95 67.89 -24.95 67.89 -23.81 69.06 C-18.62 74.14 -12.85 77.1 -5.46 77.05 C-0.1 76.38 5.13 74.16 9.94 71.75 C17.28 71.28 17.28 71.28 19.88 73.12 C22.32 76.87 22.23 80.38 21.94 84.75 C20.64 88.64 19.26 88.94 15.69 90.81 C14.73 91.32 13.78 91.83 12.8 92.35 C7.58 94.91 2.9 96.24 -2.88 96.94 C-3.55 97.03 -4.22 97.13 -4.92 97.22 C-13.5 98.3 -19.59 97.15 -26.62 91.9 C-29.9 89.01 -32.45 85.79 -35.05 82.29 C-37.13 79.66 -39.39 77.55 -41.88 75.31 C-48.73 68.51 -49.32 60.91 -49.5 51.56 C-49.35 34.66 -43.63 18.86 -31.99 6.37 C-23.5 -0.75 -10.59 -4.25 0 0 Z M-20.44 23.87 C-25.4 29.62 -28.72 37.16 -29.06 44.75 C-23.16 43.83 -19.98 42.61 -16.32 37.81 C-13.44 33.09 -11.89 28.72 -12.38 23.19 C-12.6 22.38 -12.83 21.58 -13.06 20.75 C-16.52 20.75 -17.88 21.63 -20.44 23.87 Z M-26.06 23.75 C-25.06 25.75 -25.06 25.75 -25.06 25.75 Z M-29.06 28.75 C-28.06 30.75 -28.06 30.75 -28.06 30.75 Z M-30.06 30.75 C-29.06 32.75 -29.06 32.75 -29.06 32.75 Z M-31.06 32.75 C-30.06 35.75 -30.06 35.75 -30.06 35.75 Z M-33.06 38.75 C-32.06 42.75 -32.06 42.75 -32.06 42.75 Z " fill="#F8DA06" transform="translate(453.0625,224.25)"/>
<path d="M0 0 C5.82 3.47 8.45 10.77 10.62 16.88 C12.52 27.63 8.04 37.8 2.62 46.88 C-0.58 50.47 -4.15 52.66 -8.38 54.88 C-9.06 55.24 -9.75 55.6 -10.46 55.98 C-15.7 58.68 -19.66 60.02 -25.62 59.94 C-26.52 59.93 -27.41 59.92 -28.33 59.91 C-29 59.9 -29.68 59.89 -30.38 59.88 C-29.13 66.23 -25.39 69.22 -20.38 72.88 C-15.23 76.26 -10.6 77.84 -4.38 76.88 C-0.22 75.89 3.88 74.81 7.66 72.78 C9.9 71.75 11.42 71.67 13.88 71.75 C15.11 71.79 16.35 71.83 17.62 71.88 C17.62 72.53 17.62 73.19 17.62 73.88 C18.28 73.88 18.94 73.88 19.62 73.88 C21.73 77.29 22.11 79.9 21.62 83.88 C18.31 89.91 11.01 93.75 4.62 95.88 C2.06 96.29 -0.49 96.66 -3.06 97 C-3.75 97.1 -4.43 97.2 -5.13 97.3 C-12.98 98.32 -19.31 97.7 -25.88 93.02 C-30.68 88.9 -34.8 84.13 -38.99 79.4 C-41.04 77.14 -43.2 75.01 -45.38 72.88 C-49.9 68.35 -49.65 60.42 -49.76 54.33 C-49.72 36.34 -45.26 20.24 -32.56 6.75 C-23.86 -0.71 -11.02 -4 0 0 Z M-17.38 20.88 C-24.72 27.76 -27.58 34.42 -30.38 43.88 C-28.16 45.25 -28.16 45.25 -24.62 43.94 C-19.65 41.98 -16.93 38.48 -14.38 33.88 C-13.45 31.07 -13.26 28.57 -13.31 25.62 C-13.33 24.39 -13.35 23.15 -13.38 21.88 C-14.7 21.55 -16.01 21.22 -17.38 20.88 Z M-27.38 24.88 C-26.38 26.88 -26.38 26.88 -26.38 26.88 Z M-30.38 29.88 C-29.38 32.88 -29.38 32.88 -29.38 32.88 Z M-33.38 37.88 C-32.38 40.88 -32.38 40.88 -32.38 40.88 Z " fill="#F8D906" transform="translate(670.375,224.125)"/>
<path d="M0 0 C3.29 2.73 4.79 5.33 6.34 9.21 C6.62 9.92 6.91 10.63 7.21 11.36 C8.14 13.7 9.02 16.05 9.9 18.4 C10.19 19.14 10.48 19.88 10.78 20.64 C16.4 35.27 18.56 50.48 20.84 65.9 C20.99 66.96 21.15 68.01 21.31 69.1 C21.75 72.15 22.19 75.2 22.61 78.25 C22.74 79.17 22.88 80.08 23.01 81.03 C24.57 92.55 24.57 92.55 23.34 97.78 C21.9 99.4 21.9 99.4 18.46 100.28 C14.9 100.4 14.9 100.4 11.9 98.4 C11.53 96.24 11.53 96.24 11.53 93.57 C11.51 92.61 11.49 91.64 11.47 90.65 C11.47 88.62 11.46 86.59 11.46 84.56 C11.38 80.23 11.29 77.17 9.3 73.27 C6.19 70.85 3.71 70.52 -0.1 70.4 C-0.99 70.37 -1.88 70.33 -2.8 70.29 C-5.9 70.2 -9 70.17 -12.1 70.15 C-13.16 70.13 -14.21 70.11 -15.3 70.09 C-21.34 70.06 -25.84 70.33 -31.1 73.4 C-32.68 75.77 -33.88 77.88 -35.1 80.4 C-38.14 85.97 -41.46 91.18 -47.1 94.4 C-51.04 94.78 -51.04 94.78 -54.1 94.4 C-56.28 90.04 -55.35 85.22 -54 80.75 C-53.5 79.51 -53 78.26 -52.48 77.03 C-51.92 75.63 -51.37 74.24 -50.82 72.84 C-50.39 71.76 -50.39 71.76 -49.96 70.65 C-48.5 66.82 -47.24 62.92 -45.98 59.03 C-44.2 53.62 -42.35 48.3 -40.14 43.05 C-39.05 40.27 -38.13 37.46 -37.2 34.62 C-34.7 27.13 -31.67 20.1 -28.04 13.09 C-27.63 12.28 -27.22 11.48 -26.79 10.65 C-23.98 5.39 -21.17 2.15 -15.91 -0.85 C-10.32 -2.34 -5.22 -2.69 0 0 Z M-17.1 23.4 C-16.1 25.4 -16.1 25.4 -16.1 25.4 Z M-12.1 24.4 C-14.15 30.13 -15.8 35.89 -17.29 41.78 C-17.47 42.48 -17.65 43.18 -17.83 43.9 C-18.55 46.82 -19.1 49.39 -19.1 52.4 C-14.43 53.61 -9.89 53.5 -5.1 53.4 C-3.99 50.08 -4.22 49.01 -5.03 45.69 C-5.25 44.78 -5.47 43.86 -5.69 42.92 C-5.93 41.96 -6.17 41.01 -6.41 40.03 C-6.64 39.08 -6.87 38.13 -7.1 37.16 C-8.17 32.75 -9.34 28.6 -11.1 24.4 C-11.43 24.4 -11.76 24.4 -12.1 24.4 Z M-18.1 26.4 C-17.1 29.4 -17.1 29.4 -17.1 29.4 Z M-19.1 31.4 C-18.1 34.4 -18.1 34.4 -18.1 34.4 Z M-20.1 36.4 C-19.1 40.4 -19.1 40.4 -19.1 40.4 Z M-21.1 40.4 C-20.1 44.4 -20.1 44.4 -20.1 44.4 Z M-22.1 44.4 C-21.1 47.4 -21.1 47.4 -21.1 47.4 Z M-23.1 47.4 C-22.1 50.4 -22.1 50.4 -22.1 50.4 Z " fill="#F8D906" transform="translate(977.1015625,243.59765625)"/>
<path d="M0 0 C3.15 2.24 3.88 3.46 4.75 7.25 C4.83 8.16 4.91 9.06 5 10 C5.66 9.84 6.32 9.67 7 9.5 C10.96 8.84 13.97 8.55 18 9 C21.2 12.2 21.91 14.34 22.5 18.81 C22.07 25.8 19.19 31.25 14.12 36 C10.84 38.87 8.27 39.38 4 40 C3.95 40.77 3.9 41.54 3.85 42.33 C0.84 87.97 0.84 87.97 -10.25 98.62 C-14.41 101.9 -17.69 102.56 -23 102 C-26.39 99.86 -27.73 98.82 -29 95 C-28.96 92.01 -28.85 89.05 -28.69 86.06 C-28.64 85.16 -28.59 84.25 -28.54 83.32 C-28.11 75.23 -27.56 67.15 -27 59.06 C-26.92 57.86 -26.83 56.66 -26.75 55.42 C-26.67 54.28 -26.58 53.14 -26.5 51.97 C-26.43 50.96 -26.36 49.96 -26.28 48.92 C-25.99 45.91 -25.53 42.97 -25 40 C-26.95 39.94 -26.95 39.94 -28.95 39.89 C-30.67 39.82 -32.4 39.75 -34.12 39.69 C-34.98 39.66 -35.84 39.64 -36.72 39.62 C-42.71 39.37 -46.74 38.14 -51.81 34.81 C-53.87 31.67 -54.42 28.65 -54 25 C-51.57 19.76 -47.99 15 -43 12 C-38.61 10.96 -35.27 11.1 -30.88 12 C-25.86 13.11 -25.86 13.11 -21 12 C-19.19 10.3 -19.19 10.3 -17.56 8.19 C-12.16 1.72 -8.63 -1.93 0 0 Z M17 21 C18 24 18 24 18 24 Z M16 25 C17 27 17 27 17 27 Z M-1 45 C-1 46.65 -1 48.3 -1 50 C-0.67 50 -0.34 50 0 50 C0 48.35 0 46.7 0 45 C-0.33 45 -0.66 45 -1 45 Z M-2 58 C-1 62 -1 62 -1 62 Z M-3 66 C-3 68.64 -3 71.28 -3 74 C-2.67 74 -2.34 74 -2 74 C-2 71.36 -2 68.72 -2 66 C-2.33 66 -2.66 66 -3 66 Z M-4 75 C-4 76.98 -4 78.96 -4 81 C-3.67 81 -3.34 81 -3 81 C-3 79.02 -3 77.04 -3 75 C-3.33 75 -3.66 75 -4 75 Z M-5 81 C-4 84 -4 84 -4 84 Z M-6 84 C-5 86 -5 86 -5 86 Z M-7 86 C-6 88 -6 88 -6 88 Z M-8 88 C-8 91 -8 91 -8 91 Z " fill="#F8D906" transform="translate(1050,220)"/>
<path d="M0 0 C0 0.66 0 1.32 0 2 C0.61 2.22 1.23 2.45 1.86 2.68 C5.53 4.94 6.03 8.4 7.24 12.37 C9.78 24.52 8.77 37.27 2.34 48 C-2.36 55.02 -9.66 59.34 -17.44 62.31 C-22.27 63.24 -27.1 63.66 -32 64 C-31.95 65.18 -31.91 66.36 -31.86 67.58 C-31.82 69.14 -31.79 70.69 -31.75 72.25 C-31.72 73.03 -31.68 73.8 -31.65 74.61 C-31.55 80.39 -31.55 80.39 -33.84 83.48 C-36.81 85.57 -38.33 86.14 -42 86 C-46.13 83.71 -49.48 81.56 -51 77 C-51.07 74.77 -51.08 72.54 -51.06 70.31 C-51.05 69.13 -51.04 67.95 -51.04 66.74 C-51.02 65.83 -51.01 64.93 -51 64 C-51.66 64 -52.32 64 -53 64 C-53 63.34 -53 62.68 -53 62 C-53.97 62.1 -54.94 62.21 -55.94 62.31 C-61.01 62.35 -64.87 59.7 -69 57 C-70 56 -70 56 -70.31 52.19 C-70.28 48.97 -70.17 48.22 -68.12 45.56 C-64.51 42.9 -62.35 42.89 -57.88 42.94 C-56.78 42.95 -55.68 42.96 -54.55 42.96 C-53.29 42.98 -53.29 42.98 -52 43 C-51.84 41.92 -51.68 40.85 -51.52 39.74 C-49.35 25.87 -45.91 10.05 -35.19 0.06 C-23.83 -7.28 -11.84 -5.75 0 0 Z M-23 20 C-23.82 21.75 -24.63 23.5 -25.44 25.25 C-26.12 26.71 -26.12 26.71 -26.81 28.2 C-28.44 32.03 -29.13 35.1 -29.06 39.25 C-29.04 40.49 -29.02 41.72 -29 43 C-26.08 42.9 -23.77 42.82 -21 42 C-17.25 37.58 -15.85 33.72 -15.75 28 C-15.72 27.13 -15.7 26.27 -15.67 25.38 C-15.82 22.96 -15.82 22.96 -17.27 21.19 C-19.2 19.62 -19.2 19.62 -23 20 Z M-29 22 C-28 24 -28 24 -28 24 Z M-30 24 C-29 26 -29 26 -29 26 Z M-31 27 C-30 29 -30 29 -30 29 Z M-32 29 C-31 33 -31 33 -31 33 Z M-33 35 C-32 38 -32 38 -32 38 Z " fill="#F8D906" transform="translate(792,83)"/>
<path d="M0 0 C1.88 3.17 2.21 5.32 2.01 8.98 C1.97 9.97 1.92 10.96 1.87 11.97 C1.81 13.04 1.75 14.1 1.69 15.19 C1.58 17.43 1.47 19.67 1.36 21.91 C1.3 23.07 1.24 24.23 1.18 25.43 C0.89 31.3 0.66 37.18 0.44 43.06 C0.35 45.18 0.27 47.29 0.18 49.41 C0.15 50.3 0.11 51.19 0.08 52.1 C0.04 53.04 0.04 53.04 0 54 C1.42 54.62 1.42 54.62 2.88 55.25 C6.01 57 6.87 57.71 8 61 C6.9 62.01 5.8 63.01 4.69 64 C4.07 64.56 3.46 65.11 2.82 65.69 C1 67 1 67 -2 67 C-1.83 68.05 -1.67 69.1 -1.5 70.19 C-0.65 77.24 -0.11 84.51 -1.88 91.44 C-5.14 95.37 -9.23 98.14 -14 100 C-17.22 99.89 -18.7 99.22 -21.32 97.34 C-23.61 94.15 -23.25 92.36 -22.81 88.5 C-22.62 86.66 -22.62 86.66 -22.43 84.77 C-22.29 83.53 -22.15 82.28 -22 81 C-21.81 78.71 -21.62 76.42 -21.44 74.12 C-21.29 72.43 -21.15 70.74 -21 69 C-31.39 69.5 -31.39 69.5 -42 70 C-40.04 75.28 -40.04 75.28 -38.05 80.56 C-35.91 86.46 -34.92 91.36 -37.38 97.38 C-39 100 -39 100 -41 101 C-42.64 101.15 -44.29 101.22 -45.94 101.25 C-46.81 101.28 -47.69 101.3 -48.59 101.33 C-51.56 100.92 -52.19 100.35 -54 98 C-54.63 95.44 -54.63 95.44 -54.99 92.41 C-55.14 91.32 -55.29 90.22 -55.44 89.09 C-55.73 86.79 -56.01 84.49 -56.29 82.18 C-57.18 75.65 -57.77 72.12 -63 68 C-63.56 65.06 -63.56 65.06 -63 62 C-62.35 61.08 -61.71 60.17 -61.04 59.22 C-58.83 55.73 -58.29 53.46 -57.8 49.39 C-57.65 48.14 -57.49 46.89 -57.32 45.6 C-57.18 44.31 -57.03 43.02 -56.88 41.69 C-53.7 15.6 -53.7 15.6 -46.36 9.68 C-42.21 7.01 -38.84 6.6 -34 7 C-33.34 8.65 -32.68 10.3 -32 12 C-32.33 12.33 -32.66 12.66 -33 13 C-33.12 14.05 -33.25 15.1 -33.38 16.19 C-34 20 -34 20 -35.46 22.73 C-37.24 26.51 -37.78 30.03 -38.19 34.12 C-38.27 34.87 -38.35 35.61 -38.43 36.37 C-39.06 42.6 -39.16 48.74 -39 55 C-32.07 55 -25.14 55 -18 55 C-18 51.7 -18 48.4 -18 45 C-17.84 42.94 -17.64 40.88 -17.38 38.83 C-17.25 37.76 -17.12 36.69 -16.98 35.58 C-16.78 33.93 -16.78 33.93 -16.56 32.25 C-15.54 24 -14.66 15.86 -14.5 7.54 C-13.85 4.27 -12.55 3.08 -10 1 C-6.79 -0.61 -3.56 -0.06 0 0 Z " fill="#F8D906" transform="translate(357,78)"/>
<path d="M0 0 C1.79 -0.04 1.79 -0.04 3.62 -0.09 C7.63 0.46 9.17 1.53 12 4.38 C15.25 9.01 16.53 13.79 17 19.38 C18.32 19.38 19.64 19.38 21 19.38 C22.62 17.76 22.62 17.76 23.94 15.62 C26.74 11.62 29.57 8.59 34 6.38 C39.12 5.87 43.53 5.53 48.06 8.12 C51.58 12.21 52.22 14.68 52.27 20.18 C52 22.37 52 22.37 50.99 25.14 C49.98 28.45 49.8 30.93 49.88 34.38 C49.89 35.53 49.91 36.67 49.93 37.85 C49.95 39.05 49.98 40.26 50 41.5 C50.09 50.37 50.03 59.16 49.19 68 C49.12 68.83 49.05 69.66 48.97 70.51 C48.73 72.79 48.73 72.79 48 76.38 C43.55 79.34 39.22 78.9 34 78.38 C30.81 76.88 30.81 76.88 29 75.38 C29.49 71.39 29.99 67.41 30.57 63.44 C31.95 53.56 31.99 44.3 31 34.38 C29.06 36.8 27.99 38.42 27.06 41.44 C25.83 44.83 25.21 45.77 22 47.38 C15.56 49.07 15.56 49.07 12.19 47.57 C7.2 44.15 5.26 40.69 3.25 35.06 C2.97 34.34 2.7 33.62 2.41 32.88 C1.58 30.72 0.79 28.55 0 26.38 C-0.55 24.92 -1.09 23.47 -1.64 22.02 C-2.46 19.82 -3.26 17.6 -4 15.38 C-4.66 15.38 -5.32 15.38 -6 15.38 C-8.82 26.97 -10.59 38.25 -11.14 50.19 C-11.54 57 -12.44 62.13 -17.71 66.93 C-21.65 69.01 -24.57 69.98 -29 69.38 C-29.99 68.72 -30.98 68.06 -32 67.38 C-33.47 56.02 -30.99 44.33 -28.37 33.32 C-27.86 30.66 -27.93 28.07 -28 25.38 C-27.67 25.05 -27.34 24.72 -27 24.38 C-26.9 23.32 -26.8 22.26 -26.7 21.17 C-25.9 16.83 -24.61 15 -21.75 11.69 C-20.98 10.78 -20.21 9.86 -19.42 8.93 C-13.44 2.63 -8.73 0.09 0 0 Z " fill="#F9DA06" transform="translate(665,89.625)"/>
<path d="M0 0 C0.73 1.98 1.4 3.98 2 6 C-4.07 9.14 -10.2 11.99 -16.5 14.64 C-36.9 23.22 -52.85 33.3 -61.96 54.3 C-64.98 62.15 -66.65 70.33 -63.56 78.38 C-59.62 86.45 -53.2 93.3 -45 97 C-36.34 99.64 -27.97 98.35 -19.89 94.62 C-15.13 91.95 -11.1 88.59 -7 85 C-5.94 84.16 -4.88 83.33 -3.81 82.5 C-0.19 79.28 2.89 75.71 6 72 C6.51 71.39 7.03 70.78 7.55 70.15 C8.71 68.77 9.86 67.39 11 66 C8.54 62.31 6.31 61.79 2.25 60.62 C1.53 60.41 0.82 60.2 0.08 59.99 C-9.05 57.47 -18.47 56.15 -27.84 54.79 C-29.1 54.6 -30.35 54.41 -31.64 54.21 C-32.77 54.05 -33.9 53.89 -35.06 53.72 C-38.14 52.97 -39.81 52.29 -42 50 C-42 48.68 -42 47.36 -42 46 C-25.29 38.97 -3.71 43.89 13.6 46.91 C14.38 47.05 15.15 47.18 15.95 47.32 C19.08 48.36 20.6 50.15 22.21 52.96 C24.21 58.14 23.77 62.09 21.71 67.21 C17.62 75.69 17.62 75.69 15 77 C14.7 77.61 14.4 78.23 14.1 78.86 C12.85 81.3 11.53 82.5 9.44 84.25 C7.25 86.09 5.08 87.92 3 89.88 C-9.15 101.27 -24.01 111.86 -41.2 111.59 C-47.42 111.25 -51.96 109.57 -57 106 C-57.71 105.5 -58.41 105.01 -59.14 104.5 C-69.06 96.65 -74.09 84.72 -78 73 C-79.35 55.36 -74.03 40.94 -62.5 27.44 C-50.13 14.51 -18.69 -9.35 0 0 Z " fill="#F8D906" transform="translate(593,229)"/>
<path d="M0 0 C10.7 6.95 15.19 18.47 17.88 30.61 C19.12 38.32 19.09 44.61 15.35 51.53 C14.95 52.32 14.55 53.12 14.13 53.94 C11.95 57.11 9.33 59.01 6.16 61.09 C5.58 61.48 5 61.87 4.39 62.28 C-5.87 69.07 -18 74.79 -30.65 72.53 C-36.43 70.11 -40.51 66.61 -42.94 60.79 C-47.43 46.41 -46.68 29.23 -39.85 15.62 C-31.17 0.94 -16.59 -9.27 0 0 Z M-24.65 21.53 C-24.98 23.84 -25.31 26.15 -25.65 28.53 C-23.34 25.81 -23.34 25.81 -24.02 23.34 C-24.23 22.74 -24.44 22.14 -24.65 21.53 Z M-19.65 21.53 C-21.64 25.77 -22.19 29.92 -22.65 34.53 C-23.11 39.17 -23.81 43.21 -25.65 47.53 C-25.58 50.2 -25.58 50.2 -24.65 52.53 C-21.5 54.62 -19.48 55.13 -15.71 55.04 C-11.7 54.05 -9.73 50.91 -7.65 47.53 C-5.02 41.8 -4.86 36.37 -6.84 30.4 C-8.42 26.59 -10.29 24.03 -13.65 21.53 C-16.86 21.11 -16.86 21.11 -19.65 21.53 Z M-26.65 30.53 C-25.65 34.53 -25.65 34.53 -25.65 34.53 Z M-27.65 40.53 C-26.65 44.53 -26.65 44.53 -26.65 44.53 Z M-29.65 45.53 C-28.65 47.53 -28.65 47.53 -28.65 47.53 Z " fill="#F8D906" transform="translate(309.6484375,251.47265625)"/>
<path d="M0 0 C9.94 6.74 9.94 6.74 11.45 12.76 C11.7 14.53 11.7 14.53 11.95 16.32 C12.61 16.32 13.27 16.32 13.95 16.32 C14.6 18.05 15.25 19.78 15.89 21.51 C16.43 22.96 16.43 22.96 16.98 24.43 C19.86 33 20.79 43.27 17.08 51.7 C10.65 62.68 -2.36 68.96 -14.23 72.2 C-21.61 73.78 -27.15 74.83 -33.86 70.82 C-38.19 67.61 -40.3 64.37 -42.05 59.32 C-42.46 58.17 -42.87 57.01 -43.3 55.82 C-46.65 40.2 -43.44 23.19 -34.89 9.82 C-26.95 -0.92 -12.39 -7.18 0 0 Z M-23.05 21.32 C-22.05 23.32 -22.05 23.32 -22.05 23.32 Z M-18.05 22.32 C-20.49 27.42 -21.6 31.78 -22.11 37.39 C-22.58 42.27 -23.31 46.71 -25.05 51.32 C-22.26 54.24 -20.87 55.23 -16.73 55.7 C-12.96 55.64 -12.96 55.64 -10.3 53.2 C-5.84 47.5 -4.49 43.27 -4.69 36.08 C-5.36 30.91 -7.38 27.04 -10.98 23.32 C-13.48 22.11 -15.3 22.1 -18.05 22.32 Z M-24.05 23.32 C-23.05 26.32 -23.05 26.32 -23.05 26.32 Z M-25.05 27.32 C-24.05 31.32 -24.05 31.32 -24.05 31.32 Z M-26.05 33.32 C-26.38 37.28 -26.71 41.24 -27.05 45.32 C-26.39 44.99 -25.73 44.66 -25.05 44.32 C-25.05 40.69 -25.05 37.06 -25.05 33.32 C-25.38 33.32 -25.71 33.32 -26.05 33.32 Z M-28.05 45.32 C-27.05 47.32 -27.05 47.32 -27.05 47.32 Z " fill="#F8D906" transform="translate(907.046875,107.67578125)"/>
<path d="M0 0 C2.52 3.79 2.2 6.71 2.09 11.08 C2.07 12.73 2.05 14.39 2.03 16.04 C1.99 18.63 1.94 21.21 1.88 23.8 C1.42 45.86 1.42 45.86 10.81 65.25 C17.62 70.7 24.54 70.77 33 70 C39.62 68 44.91 62.35 48.52 56.57 C49.81 54.07 50.96 51.62 52 49 C52.26 48.36 52.52 47.72 52.79 47.07 C55.08 40.97 55.42 35.47 55.31 29 C55.32 27.6 55.32 27.6 55.32 26.17 C55.28 20.88 54.78 16.04 53.45 10.92 C52.82 8.22 52.73 5.75 53 3 C55 1 55 1 57.82 0.8 C62.41 0.9 62.41 0.9 67 1 C70.44 10.13 71.62 18.26 71.47 27.99 C71.44 30.06 71.45 32.13 71.46 34.21 C71.44 48.48 69.05 60.84 58.74 71.29 C47.01 81.36 35.36 83.25 20.35 82.24 C10.98 81.29 2.93 76.62 -3.26 69.57 C-7.05 64.73 -8.69 59.72 -10.19 53.81 C-10.57 52.34 -10.57 52.34 -10.96 50.83 C-14.76 34.92 -15.18 18.3 -15 2 C-10.02 -1.19 -5.62 -1.78 0 0 Z " fill="#F7D806" transform="translate(184,244)"/>
<path d="M0 0 C9.41 6.56 13.01 19.75 15.17 30.36 C17.78 45.69 19.37 68.54 10.62 82.25 C7.16 85.88 5 86.74 0.12 87.38 C-4.03 86.88 -7 85.9 -10 83 C-11.77 80 -13.24 76.97 -14.64 73.78 C-15.88 71.25 -16.8 69.71 -19 68 C-19.66 68 -20.32 68 -21 68 C-21.09 68.56 -21.19 69.12 -21.29 69.69 C-24.81 89.96 -24.81 89.96 -30 97 C-30.66 97.99 -31.32 98.98 -32 100 C-35.82 101.04 -38.33 101.57 -42.08 100.29 C-44.96 98.64 -46.63 97.17 -47.64 93.96 C-48.57 81.03 -39.27 66.88 -33 56 C-32.28 54.65 -32.28 54.65 -31.54 53.28 C-29.57 50.05 -28.29 48.32 -24.54 47.39 C-18.53 47.09 -13.61 48.54 -8.19 51.03 C-6.13 51.94 -4.2 52.52 -2 53 C1.17 49.04 1.52 45.68 1.34 40.78 C0.5 33.87 -1.97 27.75 -5.34 21.7 C-5.76 20.96 -6.17 20.21 -6.6 19.44 C-7.43 17.96 -8.29 16.5 -9.18 15.05 C-11.39 11.21 -12.09 9.66 -11.45 5.11 C-8.89 -0.39 -5.67 -0.6 0 0 Z " fill="#F8D906" transform="translate(743,221)"/>
<path d="M0 0 C7.68 4.29 11.45 17.02 13.83 25.02 C15.85 33.2 16.13 41.19 16.08 49.58 C16.09 51.31 16.09 51.31 16.1 53.08 C16.08 61.93 15.57 70.47 11.45 78.46 C11.05 79.26 10.65 80.06 10.24 80.89 C8.65 83.29 7.33 84.58 4.83 86.02 C2.43 86.42 2.43 86.42 -0.11 86.39 C-0.94 86.4 -1.78 86.41 -2.64 86.42 C-5.85 85.91 -7.6 85.02 -10.17 83.02 C-11.87 80.21 -11.87 80.21 -13.3 77.02 C-15.49 71.97 -15.49 71.97 -19.17 68.02 C-20.66 67.52 -20.66 67.52 -22.17 67.02 C-22.21 67.6 -22.25 68.18 -22.29 68.79 C-23.14 79.49 -24.83 91.54 -32.61 99.52 C-35.56 101.25 -36.81 101.38 -40.17 101.02 C-42.41 99.71 -42.41 99.71 -44.48 98.02 C-45.18 97.46 -45.88 96.91 -46.6 96.33 C-47.12 95.9 -47.64 95.47 -48.17 95.02 C-47.2 79.07 -38.7 59.27 -27.17 48.02 C-20.85 46.42 -14.7 47.28 -9.11 50.58 C-8.1 51.3 -8.1 51.3 -7.07 52.02 C-5.21 53.22 -5.21 53.22 -3 52.8 C-0.97 52.15 -0.97 52.15 0.08 49.96 C3.11 38.07 -2.29 27.24 -7.98 17.08 C-8.41 16.37 -8.83 15.66 -9.26 14.93 C-11.23 11.49 -12.2 9.68 -12.02 5.63 C-11.13 2.89 -10.48 1.71 -8.17 0.02 C-5 -1.04 -3.17 -1.03 0 0 Z " fill="#F8DA06" transform="translate(984.171875,77.98046875)"/>
<path d="M0 0 C1.35 1.1 2.67 2.25 3.94 3.44 C4.57 3.98 5.2 4.52 5.86 5.08 C12.08 10.75 16.48 17.85 17.18 26.32 C17.43 37.6 14.75 45.18 7.5 53.84 C1.65 59.77 -5.15 64.83 -12.06 69.44 C-10.23 70.84 -8.41 72.25 -6.57 73.65 C-5.02 74.85 -3.46 76.04 -1.91 77.24 C1.47 79.84 4.84 82.42 8.38 84.8 C14.94 89.25 18.46 92.68 20.44 100.4 C20.88 103.89 20.33 105.83 18.42 108.8 C13.99 114.13 9.09 118.87 1.94 119.66 C-7.63 119.21 -14.57 110.25 -21.14 104.14 C-24.72 100.83 -28.37 97.62 -32.06 94.44 C-31.98 95.64 -31.9 96.85 -31.82 98.09 C-31.12 112.64 -31.12 112.64 -34.88 117.31 C-39.11 121.08 -44.46 123.59 -50.06 124.44 C-55.05 122.92 -57.16 120.68 -59.86 116.33 C-62.31 110.45 -61.85 104.15 -61.75 97.89 C-61.75 96.38 -61.75 94.88 -61.75 93.37 C-61.75 90.23 -61.72 87.08 -61.68 83.94 C-61.63 79.94 -61.62 75.94 -61.62 71.95 C-61.62 68.84 -61.6 65.73 -61.58 62.63 C-61.57 61.15 -61.57 59.68 -61.56 58.21 C-61.5 39.95 -57.1 23.83 -44.06 10.44 C-32.91 0.53 -14.54 -9.27 0 0 Z M-42.43 15.11 C-51.4 27.88 -52.38 40.57 -52.4 55.77 C-52.4 57.23 -52.41 58.68 -52.42 60.13 C-52.43 63.15 -52.43 66.17 -52.43 69.19 C-52.43 73.05 -52.46 76.92 -52.49 80.78 C-52.52 83.77 -52.52 86.76 -52.52 89.75 C-52.52 91.17 -52.53 92.6 -52.55 94.02 C-52.57 96.01 -52.56 98 -52.55 99.99 C-52.55 101.11 -52.55 102.24 -52.56 103.4 C-51.95 107.12 -50.65 108.76 -48.06 111.44 C-45.77 113.09 -45.77 113.09 -43.06 113.44 C-39.71 112.68 -39.71 112.68 -37.06 110.44 C-36.27 107.79 -36.08 106.14 -36.06 103.44 C-36.04 102.42 -36.01 101.4 -35.98 100.35 C-35.94 97.37 -35.9 94.41 -36.06 91.44 C-36.39 91.11 -36.72 90.78 -37.06 90.44 C-37.14 87.91 -37.15 85.4 -37.12 82.88 C-37.12 82.16 -37.12 81.45 -37.11 80.72 C-37.1 78.96 -37.08 77.2 -37.06 75.44 C-31.31 78.41 -27.01 82 -22.38 86.5 C-20.97 87.84 -19.56 89.18 -18.15 90.52 C-17.11 91.51 -17.11 91.51 -16.06 92.53 C-13.22 95.24 -10.37 97.94 -7.5 100.62 C-6.61 101.46 -5.72 102.3 -4.81 103.17 C0.73 107.8 0.73 107.8 7.5 109.38 C10.49 108.23 13.2 107.12 15.94 105.44 C17.19 102.32 16.97 100.05 16 96.88 C12.83 89.45 5.81 86.05 -0.75 81.92 C-4.78 79.33 -8.66 76.53 -12.56 73.75 C-14.01 72.72 -15.46 71.7 -16.91 70.68 C-17.95 69.94 -18.99 69.2 -20.06 68.44 C-1.1 52.29 -1.1 52.29 5.09 49.45 C9.3 47.14 11.29 41.83 13.25 37.62 C14.26 32.94 14.61 28.2 13.94 23.44 C12.58 21.37 12.58 21.37 10.94 19.44 C10.16 17.83 9.41 16.2 8.69 14.56 C5.56 8.21 1.7 5 -4.38 1.56 C-18.85 -2.85 -33.17 3.81 -42.43 15.11 Z " fill="#020200" transform="translate(1202.0625,235.5625)"/>
<path d="M0 0 C0.51 1.58 1.01 3.17 1.5 4.75 C1.78 5.63 2.06 6.51 2.34 7.42 C3 10 3 10 3 14 C11.53 19.02 24.45 17.13 34 17 C35.03 20.75 35.22 24.1 35 28 C33 30 33 30 30.42 30.23 C29.35 30.22 28.29 30.2 27.19 30.19 C26.03 30.17 24.87 30.16 23.68 30.14 C18.96 29.96 14.28 29.53 9.58 29.02 C8.73 29.02 7.88 29.01 7 29 C1.47 34.53 3.77 48.97 3.68 56.63 C3.66 58.23 3.64 59.83 3.62 61.43 C3.57 65.62 3.52 69.81 3.47 73.99 C3.42 78.28 3.36 82.56 3.31 86.85 C3.2 95.23 3.1 103.62 3 112 C-1.73 114.6 -5.67 114.66 -10.88 113.19 C-16.58 107.31 -14.11 93.71 -14.04 85.78 C-14.03 83.45 -14.02 81.12 -14.01 78.79 C-13.98 72.18 -13.95 65.57 -13.9 58.96 C-13.88 54.89 -13.86 50.83 -13.85 46.76 C-13.84 45.22 -13.83 43.67 -13.82 42.13 C-13.8 39.98 -13.79 37.83 -13.79 35.68 C-13.78 34.46 -13.77 33.24 -13.77 31.98 C-13.77 28.82 -13.77 28.82 -16 26 C-19.71 25.85 -23.3 25.98 -27 26.21 C-32.71 26.4 -37.35 25.55 -42 22 C-43.19 18.94 -43.19 18.94 -43 16 C-41.85 14.33 -41.85 14.33 -40 13 C-37.36 12.67 -37.36 12.67 -34.19 12.75 C-32.47 12.79 -32.47 12.79 -30.72 12.83 C-24.8 13.1 -18.9 13.5 -13 14 C-13.12 12.14 -13.12 12.14 -13.25 10.25 C-13.25 7.09 -13.19 6.26 -11.25 3.62 C-7.24 0.73 -4.96 -0.1 0 0 Z " fill="#F9DA06" transform="translate(253,85)"/>
<path d="M0 0 C3.23 3.31 3.95 5.25 4.25 9.88 C4.17 10.91 4.09 11.94 4 13 C3.34 13 2.68 13 2 13 C2 13.99 2 14.98 2 16 C0.33 16.56 0.33 16.56 -1.37 17.14 C-16.02 21.36 -16.02 21.36 -28 30 C-29.5 38.14 -26.93 46.1 -24.56 53.81 C-23.92 55.98 -23.27 58.16 -22.63 60.33 C-22.34 61.28 -22.05 62.22 -21.76 63.2 C-19.62 71.13 -18.16 80.67 -21.5 88.44 C-25.11 94.54 -31.87 97.49 -38.44 99.5 C-47.25 101.22 -56.17 100.64 -64 96 C-65.45 93.1 -65.37 91.23 -65 88 C-62.81 83.61 -62.81 83.61 -60 82 C-56.7 81.66 -53.56 81.76 -50.25 81.92 C-46.12 82.02 -42.92 81.23 -39 80 C-39.03 71.43 -40.73 63.94 -43.06 55.75 C-46.42 43.67 -48.83 31.72 -43 20 C-37.28 10.49 -26.23 6.21 -16.25 2.56 C-15.21 2.17 -15.21 2.17 -14.14 1.78 C-9.26 0.09 -5.16 -0.45 0 0 Z " fill="#F8D906" transform="translate(869,71)"/>
<path d="M0 0 C3.23 3.31 3.95 5.25 4.25 9.88 C4.17 10.91 4.09 11.94 4 13 C3.34 13 2.68 13 2 13 C2 13.99 2 14.98 2 16 C1.23 16.28 0.47 16.56 -0.32 16.85 C-3.8 18.14 -7.28 19.45 -10.75 20.75 C-11.96 21.19 -13.16 21.64 -14.41 22.09 C-16.15 22.75 -16.15 22.75 -17.92 23.42 C-18.99 23.82 -20.06 24.22 -21.16 24.63 C-24.19 26.09 -25.95 27.33 -28 30 C-29.74 37.99 -26.89 46.22 -24.56 53.81 C-23.92 55.98 -23.27 58.16 -22.63 60.33 C-22.34 61.28 -22.05 62.22 -21.76 63.2 C-19.63 71.09 -18.19 80.6 -21.38 88.38 C-24.81 94.25 -31.26 96.86 -37.31 99.38 C-46.25 100.89 -54.95 101.07 -62.88 96.25 C-65 94 -65 94 -65.56 91.06 C-64.88 87.36 -63.6 85.68 -61 83 C-58.33 81.67 -56.35 81.98 -53.38 82.06 C-48.18 82.12 -43.95 81.52 -39 80 C-39.03 71.43 -40.73 63.95 -43.06 55.75 C-46.19 44.42 -48.93 32.53 -43.94 21.31 C-36.41 9 -14.48 -2.59 0 0 Z " fill="#F8D906" transform="translate(1070,71)"/>
<path d="M0 0 C2.48 0.5 2.48 0.5 5 1 C5.5 2.46 6 3.92 6.5 5.38 C6.78 6.19 7.06 7 7.34 7.84 C8 10 8 10 8 12 C8.66 11.84 9.33 11.69 10.01 11.53 C10.89 11.33 11.78 11.14 12.69 10.94 C13.56 10.74 14.43 10.54 15.32 10.34 C18.2 9.97 20.24 10.15 23 11 C24.6 14.2 24.36 17.52 24 21 C22.63 24.43 21.45 25.7 18.38 27.75 C15.46 28.83 13.33 29.28 10.29 29.58 C9.08 29.7 9.08 29.7 7.85 29.83 C7.24 29.88 6.63 29.94 6 30 C5.98 30.68 5.96 31.36 5.94 32.05 C5.58 43.93 5.17 55.79 4.12 67.62 C4.06 68.46 3.99 69.29 3.92 70.15 C3.28 76.84 1.89 82.62 -2.38 88 C-5 90 -5 90 -7.62 90.44 C-10 90 -10 90 -13 88 C-14.9 75.73 -12.14 61.63 -11.21 49.31 C-10.99 46.36 -10.77 43.41 -10.56 40.46 C-10.45 39.1 -10.45 39.1 -10.34 37.71 C-10.25 36.46 -10.25 36.46 -10.16 35.17 C-10.11 34.44 -10.05 33.7 -9.99 32.94 C-9.9 30.78 -9.9 30.78 -11 28 C-12.97 27.93 -12.97 27.93 -14.98 27.85 C-16.72 27.78 -18.45 27.7 -20.19 27.62 C-21.05 27.59 -21.92 27.56 -22.81 27.53 C-28.84 27.25 -32.9 26.4 -38 23 C-37.25 16.38 -37.25 16.38 -35 13 C-34.46 13.07 -33.93 13.14 -33.38 13.22 C-25.25 14.18 -17.17 14.09 -9 14 C-8.57 12.93 -8.14 11.85 -7.7 10.75 C-6.42 7.76 -5.02 5.47 -2.81 3.06 C-2.28 2.48 -1.75 1.89 -1.21 1.29 C-0.81 0.86 -0.41 0.44 0 0 Z " fill="#F8D906" transform="translate(377,222)"/>
<path d="M0 0 C3.15 2.24 3.88 3.46 4.75 7.25 C4.83 8.16 4.91 9.06 5 10 C5.66 9.84 6.32 9.67 7 9.5 C10.96 8.84 13.97 8.55 18 9 C21.2 12.2 21.91 14.34 22.5 18.81 C22.07 25.8 19.19 31.25 14.12 36 C10.84 38.87 8.27 39.38 4 40 C3.95 40.77 3.9 41.54 3.85 42.33 C0.84 87.97 0.84 87.97 -10.25 98.62 C-14.41 101.9 -17.69 102.56 -23 102 C-26.39 99.86 -27.73 98.82 -29 95 C-28.96 92.01 -28.85 89.05 -28.69 86.06 C-28.64 85.16 -28.59 84.25 -28.54 83.32 C-28.11 75.23 -27.56 67.15 -27 59.06 C-26.92 57.86 -26.83 56.66 -26.75 55.42 C-26.67 54.28 -26.58 53.14 -26.5 51.97 C-26.43 50.96 -26.36 49.96 -26.28 48.92 C-25.99 45.91 -25.53 42.97 -25 40 C-26.95 39.94 -26.95 39.94 -28.95 39.89 C-30.67 39.82 -32.4 39.75 -34.12 39.69 C-34.98 39.66 -35.84 39.64 -36.72 39.62 C-42.71 39.37 -46.74 38.14 -51.81 34.81 C-53.87 31.67 -54.42 28.65 -54 25 C-51.57 19.76 -47.99 15 -43 12 C-38.61 10.96 -35.27 11.1 -30.88 12 C-25.86 13.11 -25.86 13.11 -21 12 C-19.19 10.3 -19.19 10.3 -17.56 8.19 C-12.16 1.72 -8.63 -1.93 0 0 Z M-9.62 4.44 C-12.5 8.21 -13.76 12.47 -15 17 C-16.73 16.9 -18.46 16.8 -20.18 16.69 C-21.65 16.61 -23.11 16.52 -24.58 16.44 C-29.47 16.14 -34.26 15.63 -39.08 14.79 C-41.2 14.81 -41.2 14.81 -42.7 16.87 C-44.54 19.73 -44.54 19.73 -45 23 C-41.99 26.6 -39.73 28.75 -34.93 29.19 C-34.16 29.22 -33.38 29.25 -32.59 29.28 C-31.74 29.32 -30.9 29.36 -30.03 29.39 C-28.25 29.47 -26.47 29.54 -24.7 29.61 C-23.85 29.64 -23.01 29.68 -22.15 29.72 C-21.38 29.75 -20.61 29.78 -19.81 29.81 C-18 30 -18 30 -17 31 C-16.53 40.48 -17.25 49.93 -18 59.38 C-18.9 71.52 -18.9 71.52 -19.31 83.69 C-19.33 84.89 -19.35 86.09 -19.36 87.32 C-19.24 88.21 -19.12 89.09 -19 90 C-15.81 92.13 -13.73 92.5 -10 93 C-5.14 87.47 -2.65 82.42 -3 75 C-2.67 74.67 -2.34 74.34 -2 74 C-1.77 67.92 -1.77 67.92 -3 62 C-2.34 62 -1.68 62 -1 62 C-0.92 57.84 -1.02 54.05 -2 50 C-1.34 50 -0.68 50 0 50 C0 44.39 0 38.78 0 33 C1.69 32.57 3.38 32.13 5.12 31.69 C11.37 30.04 11.37 30.04 17 27 C18.96 21.85 17.33 17.15 16 12 C11.38 12.33 6.76 12.66 2 13 C1.71 11.93 1.42 10.85 1.12 9.75 C0.27 6.91 -0.56 4.56 -2 2 C-5.79 1.35 -6.75 1.77 -9.62 4.44 Z " fill="#030400" transform="translate(1050,220)"/>
<path d="M0 0 C3.91 5.02 4.4 9.77 4 16 C3.56 17.69 3.08 19.38 2.58 21.06 C1.01 26.68 0.12 32.22 -0.57 38.01 C-0.7 39.02 -0.82 40.04 -0.95 41.08 C-1.22 43.2 -1.48 45.33 -1.73 47.46 C-2.12 50.66 -2.52 53.87 -2.93 57.07 C-4.33 68.37 -5.49 79.62 -6 91 C-13.96 95.02 -13.96 95.02 -18.31 94.94 C-23.01 93.3 -23.01 93.3 -25 91 C-25.29 87.85 -25.3 85.17 -24.51 82.09 C-23.93 79.7 -23.76 77.44 -23.61 74.99 C-22.94 65.17 -22.22 55.5 -20.06 45.88 C-19.9 45.16 -19.75 44.45 -19.58 43.71 C-18.83 40.58 -17.97 37.95 -16.41 35.13 C-14.44 30.76 -14.51 26.74 -14.44 22 C-14.17 8.44 -14.17 8.44 -9.5 3.19 C-6.23 0.32 -4.36 -0.64 0 0 Z " fill="#F8D906" transform="translate(621,84)"/>
<path d="M0 0 C10.39 7.92 16.44 21.13 18.17 33.82 C18.96 46 17.45 54.04 9.45 63.41 C-2.36 75.9 -18.87 83.48 -36.08 84.32 C-41.81 84.14 -45.67 82.8 -49.83 78.82 C-58.11 69.05 -59.64 55.12 -58.67 42.75 C-56.76 26.34 -49.67 11.99 -36.95 1.32 C-25.38 -6.89 -11.92 -7.68 0 0 Z M-39.39 9.85 C-47.04 20.27 -49.08 30.77 -49.14 43.51 C-49.15 44.39 -49.16 45.27 -49.16 46.17 C-49.06 54.99 -48.22 63.25 -41.83 69.82 C-36.91 73.66 -33.06 74.46 -26.86 74.2 C-13.11 72.46 1.97 65.33 11.17 54.82 C11.87 52.67 11.87 52.67 12.17 50.82 C12.83 50.49 13.49 50.16 14.17 49.82 C14.64 47.3 14.64 47.3 14.79 44.38 C14.87 43.39 14.94 42.41 15.02 41.39 C15.11 39.87 15.17 38.34 15.17 36.82 C14.51 36.82 13.85 36.82 13.17 36.82 C13.5 34.51 13.83 32.2 14.17 29.82 C13.51 29.82 12.85 29.82 12.17 29.82 C12.08 28.82 11.98 27.82 11.89 26.79 C11.28 22.53 9.62 19.15 7.61 15.38 C7.28 14.75 6.95 14.11 6.61 13.46 C5.8 11.91 4.99 10.36 4.17 8.82 C3.51 8.82 2.85 8.82 2.17 8.82 C1.67 7.34 1.67 7.34 1.17 5.82 C0.51 5.82 -0.15 5.82 -0.83 5.82 C-1.09 5.21 -1.35 4.59 -1.61 3.96 C-3.7 0.3 -6.92 -0.91 -10.83 -2.18 C-22.31 -3.83 -32.19 0.96 -39.39 9.85 Z " fill="#020300" transform="translate(1121.83203125,250.1796875)"/>
<path d="M0 0 C4.76 4.03 7.86 7.96 8.81 14.19 C9.62 24.83 5.88 33.14 -0.86 41.23 C-5.94 46.64 -11.73 51.68 -19.38 52.25 C-22.32 50.85 -22.61 50.3 -23.88 47.44 C-24.25 46.3 -24.62 45.17 -25 44 C-26.97 44.15 -26.97 44.15 -29 45 C-30.03 47.05 -30.03 47.05 -30.56 49.5 C-31.19 51.97 -31.19 51.97 -32 54 C-33.48 54.5 -33.48 54.5 -35 55 C-39.75 52.36 -43.34 49.01 -47 45 C-47 44.34 -47 43.68 -47 43 C-47.99 42.67 -48.98 42.34 -50 42 C-52.7 36.6 -52.19 30.88 -52 25 C-51.34 25 -50.68 25 -50 25 C-50.21 24.24 -50.41 23.47 -50.62 22.69 C-51 20 -51 20 -49 17 C-47.6 14.72 -46.23 12.49 -45.1 10.06 C-41.07 2.51 -34.03 -1.07 -26.18 -3.58 C-17.36 -5.27 -7.61 -5.1 0 0 Z M-43.59 15.8 C-47.91 22.53 -47.89 30.27 -47 38 C-45.37 42.06 -43.07 44.93 -40 48 C-36.78 48.34 -36.78 48.34 -34.44 45.62 C-33.63 44.76 -32.83 43.89 -32 43 C-31.34 42.34 -30.68 41.68 -30 41 C-26.62 41 -26.62 41 -23 42 C-20.56 45.06 -20.56 45.06 -19 48 C-13.84 47.39 -10.04 45.3 -6.58 41.39 C-2.02 35.33 0.11 28.6 0 21 C-1.73 15.44 -3.86 11.97 -8.8 8.87 C-21.4 2.26 -34.61 5.32 -43.59 15.8 Z " fill="#020300" transform="translate(139,248)"/>
<path d="M0 0 C5.35 3.9 8.46 9.62 10 16 C11.15 25.63 8.71 31.91 3.09 39.62 C0.01 43.2 -2.36 45.62 -7.04 46.7 C-13.2 46.92 -17.44 46.2 -22 42 C-24 39 -24 39 -24 36 C-23.34 36 -22.68 36 -22 36 C-22.5 34.51 -22.5 34.51 -23 33 C-22.01 32.5 -22.01 32.5 -21 32 C-21 29.03 -21 26.06 -21 23 C-20.34 23 -19.68 23 -19 23 C-19.33 21.02 -19.66 19.04 -20 17 C-19.34 17 -18.68 17 -18 17 C-18.09 15.21 -18.09 15.21 -18.19 13.38 C-18.18 9.23 -17.3 6.53 -15 3 C-10.56 -1.11 -5.76 -0.92 0 0 Z M-13 10 C-14.99 14.24 -15.54 18.39 -16 23 C-16.46 27.64 -17.16 31.68 -19 36 C-18.93 38.67 -18.93 38.67 -18 41 C-14.85 43.1 -12.83 43.6 -9.07 43.51 C-5.05 42.52 -3.08 39.38 -1 36 C1.63 30.27 1.79 24.84 -0.19 18.88 C-1.77 15.06 -3.64 12.5 -7 10 C-10.21 9.58 -10.21 9.58 -13 10 Z " fill="#030400" transform="translate(303,263)"/>
<path d="M0 0 C5.36 3.91 8.43 9.61 10 16 C10.94 24.25 9.32 30.59 4.32 37.23 C-2.81 45.63 -2.81 45.63 -7.59 46.43 C-13.56 46.44 -17.35 46.17 -22 42 C-24 39 -24 39 -23.62 35.81 C-23.42 34.88 -23.21 33.96 -23 33 C-22.34 33 -21.68 33 -21 33 C-21 29.37 -21 25.74 -21 22 C-20.34 22 -19.68 22 -19 22 C-19.33 20.02 -19.66 18.04 -20 16 C-19.34 16 -18.68 16 -18 16 C-18.12 14.21 -18.12 14.21 -18.25 12.38 C-18.26 7.9 -16.89 5.46 -14 2 C-9.55 -0.97 -5.22 -0.75 0 0 Z M-13 10 C-15.61 16.77 -16.72 23.25 -17.57 30.45 C-18 34 -18 34 -18.74 37.27 C-19.28 39.98 -19.28 39.98 -17.83 41.84 C-14.96 43.66 -12.63 43.66 -9.29 43.54 C-5.77 42.71 -4.23 40.92 -2.16 38.06 C1.23 32.03 1.4 26.67 0 20 C-1.78 15.37 -3.76 12.63 -8 10 C-10.71 9.66 -10.71 9.66 -13 10 Z " fill="#030300" transform="translate(1111,263)"/>
<path d="M0 0 C2.65 2.21 3.49 3.14 5 6 C5.39 6.56 5.78 7.11 6.18 7.69 C10.09 13.94 9.79 20.87 9 28 C7.24 35.38 1.04 41.76 -5 46 C-9.61 47.24 -13.62 47.01 -18.03 45.14 C-19.69 44.12 -19.69 44.12 -22 42 C-22 41.34 -22 40.68 -22 40 C-22.66 40 -23.32 40 -24 40 C-24.19 37.12 -24.19 37.12 -24 34 C-23.01 33.34 -22.02 32.68 -21 32 C-20.63 28.87 -20.63 28.87 -20.81 25.38 C-20.85 23.59 -20.85 23.59 -20.89 21.77 C-20.93 20.86 -20.96 19.94 -21 19 C-20.34 19 -19.68 19 -19 19 C-19.33 17.35 -19.66 15.7 -20 14 C-19.34 14 -18.68 14 -18 14 C-18.08 12.97 -18.16 11.94 -18.25 10.88 C-17.96 6.38 -16.8 4.46 -14 1 C-9.77 -1.11 -4.58 -0.63 0 0 Z M-13 10 C-15.44 15.1 -16.56 19.45 -17.06 25.06 C-17.53 29.94 -18.26 34.38 -20 39 C-17.21 41.92 -15.82 42.91 -11.69 43.38 C-7.91 43.32 -7.91 43.32 -5.25 40.88 C-0.79 35.18 0.56 30.94 0.36 23.76 C-0.31 18.59 -2.34 14.72 -5.94 11 C-8.44 9.79 -10.25 9.77 -13 10 Z " fill="#020200" transform="translate(902,120)"/>
<path d="M0 0 C3.76 4.65 5.22 9.33 6.69 15.06 C7.01 16.25 7.01 16.25 7.33 17.46 C11.07 31.52 11.07 31.52 10 38 C6.89 41.57 3.53 42.85 -1 44 C-4.48 44.1 -7.91 43.87 -11.38 43.62 C-12.3 43.57 -13.23 43.51 -14.18 43.45 C-16.46 43.31 -18.73 43.16 -21 43 C-19.25 36.25 -19.25 36.25 -17 34 C-15.45 29.53 -14.77 25.72 -15 21 C-14.34 21 -13.68 21 -13 21 C-13.33 19.35 -13.66 17.7 -14 16 C-13.34 16 -12.68 16 -12 16 C-12.19 15.24 -12.37 14.47 -12.56 13.69 C-13.18 9.88 -12.12 8.2 -10.12 4.94 C-7.25 0.96 -4.94 -0.96 0 0 Z M-7 11 C-9.04 16.72 -10.7 22.48 -12.19 28.38 C-12.37 29.08 -12.55 29.78 -12.73 30.5 C-13.45 33.41 -14 35.99 -14 39 C-9.33 40.21 -4.79 40.09 0 40 C1.11 36.67 0.88 35.61 0.07 32.29 C-0.15 31.37 -0.37 30.46 -0.59 29.52 C-0.83 28.56 -1.07 27.61 -1.31 26.62 C-1.54 25.68 -1.76 24.73 -2 23.76 C-3.07 19.35 -4.24 15.19 -6 11 C-6.33 11 -6.66 11 -7 11 Z " fill="#040400" transform="translate(972,257)"/>
<path d="M0 0 C2.12 2.2 2.12 2.2 3.88 5.12 C4.47 6.08 5.07 7.03 5.68 8.01 C7.18 11.4 7.51 13.34 7 17 C1.87 26.84 -6.59 34.14 -16.78 38.36 C-20.3 39.38 -23.36 39.26 -27 39 C-28.68 34.61 -29.25 31 -29.19 26.31 C-29.18 25.19 -29.17 24.08 -29.17 22.93 C-28.96 19.32 -28.58 17.58 -26 15 C-25.72 14.38 -25.45 13.77 -25.16 13.13 C-22.16 7.63 -15.48 3.31 -9.75 1 C-6.13 0.03 -3.7 -0.47 0 0 Z M-22 17 C-24.44 20.64 -24.2 23.96 -24.12 28.25 C-24.11 29.51 -24.09 30.78 -24.07 32.08 C-24.05 33.04 -24.02 34.01 -24 35 C-21.81 36.38 -21.81 36.38 -18.44 35 C-11.98 32.44 -5.75 27.92 -2 22 C-2 16.48 -4.36 13.82 -8 10 C-13.03 10 -18.57 13.67 -22 17 Z " fill="#040500" transform="translate(1192,252)"/>
<path d="M0 0 C3.8 3.95 7.17 9.24 7.48 14.83 C5.74 22.63 -1.45 29.09 -7.71 33.56 C-14.21 37.65 -19.29 39.56 -27 39 C-28.68 34.61 -29.25 31 -29.19 26.31 C-29.18 25.19 -29.17 24.08 -29.17 22.93 C-28.74 15.45 -22.82 10.52 -17.56 5.69 C-12.87 1.82 -6.1 -1.59 0 0 Z M-14.86 11.82 C-19.01 14.11 -21.9 16.71 -24 21 C-24.56 25.73 -24.42 30.26 -24 35 C-21.81 36.38 -21.81 36.38 -18.44 35 C-11.99 32.45 -5.72 27.92 -2 22 C-2.19 17.62 -3.39 14.51 -6 11 C-9.57 9.81 -11.44 10.39 -14.86 11.82 Z " fill="#040400" transform="translate(887,252)"/>
<path d="M0 0 C4 4.1 5.18 6.93 5.31 12.56 C5.22 19.61 3.94 24.85 -0.94 30.07 C-5.79 34.48 -8.98 36.14 -15.62 36.12 C-16.61 36.13 -17.59 36.13 -18.6 36.13 C-21 36 -21 36 -22 35 C-22.04 32.67 -22.04 30.33 -22 28 C-21.34 28 -20.68 28 -20 28 C-20.33 26.35 -20.66 24.7 -21 23 C-20.34 23 -19.68 23 -19 23 C-19 20.69 -19 18.38 -19 16 C-18.34 16 -17.68 16 -17 16 C-17.12 15.2 -17.25 14.39 -17.38 13.56 C-16.84 8.46 -14.34 4.84 -11 1 C-7.12 -1.48 -4.44 -1.19 0 0 Z M-11 10 C-11.82 11.75 -12.63 13.5 -13.44 15.25 C-14.12 16.71 -14.12 16.71 -14.81 18.2 C-16.44 22.03 -17.13 25.1 -17.06 29.25 C-17.04 30.49 -17.02 31.72 -17 33 C-14.08 32.9 -11.77 32.82 -9 32 C-5.25 27.58 -3.85 23.72 -3.75 18 C-3.72 17.13 -3.7 16.27 -3.67 15.38 C-3.82 12.96 -3.82 12.96 -5.27 11.19 C-7.2 9.62 -7.2 9.62 -11 10 Z " fill="#030300" transform="translate(780,93)"/>
<path d="M0 0 C2.84 2.94 3.25 5.81 3.44 9.75 C3.1 19.13 -1.57 25.52 -8 32 C-8.74 32.76 -9.49 33.53 -10.25 34.31 C-15.19 37.34 -21.2 39 -27 39 C-28.25 32.38 -28.25 32.38 -26 29 C-25.3 26.68 -24.64 24.34 -24 22 C-23 18.62 -23 18.62 -22 16 C-21.34 15.67 -20.68 15.34 -20 15 C-19.79 14.3 -19.59 13.6 -19.38 12.88 C-16.36 6.58 -7.41 -1.56 0 0 Z M-14.38 14.05 C-19.21 19.86 -22.05 27.57 -23 35 C-16.53 34.09 -13.48 32.29 -9.41 27.15 C-5.84 21.72 -5.73 17.23 -7 11 C-10.42 11 -11.82 11.83 -14.38 14.05 Z " fill="#030300" transform="translate(410,91)"/>
<path d="M0 0 C3 4.62 2.56 9.71 2 15 C-0.06 23.01 -5.69 30.06 -12.47 34.68 C-14.89 35.94 -16.9 36.65 -19.56 37.19 C-20.31 37.35 -21.05 37.5 -21.82 37.67 C-24 38 -24 38 -28 38 C-28.8 34.71 -29.1 33.29 -28 30 C-27.34 30 -26.68 30 -26 30 C-26.04 29.3 -26.08 28.6 -26.12 27.88 C-25.88 22.35 -23.84 18.38 -20.5 14.06 C-18.97 12.11 -18.97 12.11 -18.15 10.1 C-16.8 7.63 -15.26 6.2 -13.12 4.38 C-12.45 3.78 -11.77 3.19 -11.07 2.59 C-7.23 -0.36 -4.75 -1.75 0 0 Z M-11 10 C-18.34 16.89 -21.2 23.54 -24 33 C-21.79 34.38 -21.79 34.38 -18.25 33.06 C-13.27 31.1 -10.55 27.6 -8 23 C-7.07 20.19 -6.89 17.69 -6.94 14.75 C-6.96 13.51 -6.98 12.28 -7 11 C-8.32 10.67 -9.64 10.34 -11 10 Z " fill="#030300" transform="translate(664,235)"/>
<path d="M0 0 C3 4.62 2.56 9.71 2 15 C-0.06 23.01 -5.69 30.06 -12.47 34.68 C-14.89 35.94 -16.9 36.65 -19.56 37.19 C-20.31 37.35 -21.05 37.5 -21.82 37.67 C-24 38 -24 38 -28 38 C-28.8 34.71 -29.1 33.29 -28 30 C-27.34 30 -26.68 30 -26 30 C-25.96 28.99 -25.96 28.99 -25.92 27.95 C-25.45 20.55 -25.45 20.55 -23.06 17.62 C-22.38 17.09 -21.7 16.55 -21 16 C-19.92 14.07 -19.06 12.13 -18.19 10.1 C-16.8 7.65 -15.26 6.2 -13.12 4.38 C-12.45 3.78 -11.77 3.19 -11.07 2.59 C-7.23 -0.36 -4.75 -1.75 0 0 Z M-11 10 C-17.14 16.17 -22.79 22.7 -23.09 31.8 C-23.06 32.52 -23.03 33.25 -23 34 C-18.68 33.16 -15.15 32.25 -12.1 28.94 C-7.92 22.73 -6.86 18.5 -7 11 C-8.32 10.67 -9.64 10.34 -11 10 Z " fill="#020300" transform="translate(809,235)"/>
<path d="M0 0 C2.93 3.34 3.49 6.43 3.27 10.84 C1.96 21.33 -4.03 27.94 -12.06 34.5 C-16.94 36.99 -21.48 38 -27 38 C-27.33 36.02 -27.66 34.04 -28 32 C-27.34 32 -26.68 32 -26 32 C-26.06 31.13 -26.12 30.27 -26.19 29.38 C-25.97 25.52 -24.8 23.38 -23 20 C-22.3 17.26 -22.3 17.26 -22 15 C-21.34 15 -20.68 15 -20 15 C-19.67 13.99 -19.34 12.98 -19 11.94 C-16.11 5.14 -7.74 -2.98 0 0 Z M-14.38 13.12 C-19.34 18.87 -22.65 26.41 -23 34 C-17.1 33.08 -13.92 31.86 -10.26 27.06 C-7.38 22.34 -5.83 17.97 -6.31 12.44 C-6.54 11.63 -6.77 10.83 -7 10 C-10.45 10 -11.81 10.88 -14.38 13.12 Z " fill="#040400" transform="translate(447,235)"/>
<path d="M0 0 C0.66 0 1.32 0 2 0 C2 6.6 2 13.2 2 20 C1.34 20 0.68 20 0 20 C-1.7 13.41 -1.36 6.63 0 0 Z " fill="#C5AC01" transform="translate(265,284)"/>
</svg>
