<svg version="1.1" id="Layer_1" xmlns="http://www.w3.org/2000/svg" xmlns:xlink="http://www.w3.org/1999/xlink" x="0px" y="0px"
	 width="100%" viewBox="0 0 1024 436" enable-background="new 0 0 1024 436" xml:space="preserve">
<path fill="#010100" opacity="1.000000" stroke="none" 
	d="
M765.000000,437.000000 
	C510.000000,437.000000 255.500000,437.000000 1.000000,437.000000 
	C1.000000,291.666656 1.000000,146.333328 1.000000,1.000000 
	C342.333344,1.000000 683.666687,1.000000 1025.000000,1.000000 
	C1025.000000,146.333328 1025.000000,291.666656 1025.000000,437.000000 
	C938.500000,437.000000 852.000000,437.000000 765.000000,437.000000 
M464.718353,54.780659 
	C460.362793,53.311199 456.067444,50.805428 451.641449,50.548210 
	C430.284363,49.307060 410.602356,55.085724 393.325989,67.551300 
	C379.446045,77.566238 375.934723,94.724915 391.139496,108.453835 
	C394.822571,111.779411 398.881561,114.826347 403.163208,117.323204 
	C412.510376,122.774040 422.155151,127.711678 431.594666,133.008102 
	C438.519379,136.893494 445.560272,140.722672 449.901367,148.709793 
	C448.027649,149.247757 446.362366,150.148804 444.706848,150.131134 
	C435.415344,150.031937 426.081818,150.180817 416.851105,149.308777 
	C410.182159,148.678726 403.617828,146.725861 397.067108,145.117599 
	C390.009247,143.384827 383.473053,148.010132 383.573364,154.887604 
	C383.617859,157.937775 384.674347,159.933228 388.105133,160.269104 
	C404.157135,161.840607 420.183502,163.698517 436.251984,165.067322 
	C444.497040,165.769653 451.527496,163.153915 458.090790,157.424454 
	C464.994751,151.397598 465.933228,148.706955 460.699860,138.945145 
	C456.477356,131.068771 449.303101,126.069725 441.714569,121.685211 
	C425.313110,112.208748 407.885132,104.453415 393.338959,91.878929 
	C388.071106,87.325111 388.056641,82.285576 394.415314,79.142708 
	C397.534454,77.601021 400.985779,76.703629 404.031189,75.045319 
	C415.356567,68.878304 427.630859,66.077988 440.278290,64.825188 
	C444.521637,64.404869 448.906525,65.006287 453.185486,65.498596 
	C455.945251,65.816093 458.014099,67.055519 458.368530,70.527977 
	C458.524078,72.051392 460.690399,74.615364 461.748230,74.520775 
	C463.515137,74.362816 465.984802,72.804619 466.644409,71.209663 
	C468.871002,65.825783 469.728516,60.234928 464.718353,54.780659 
M97.471031,284.119629 
	C98.909676,286.143250 99.978165,289.202576 101.895195,289.887726 
	C103.671638,290.522644 107.741737,289.160034 108.308861,287.705200 
	C109.125076,285.611359 107.941017,282.554657 107.136513,280.061951 
	C106.276329,277.396729 104.552155,275.002258 103.757675,272.325623 
	C101.860313,265.933319 102.594170,264.111755 108.686707,261.404755 
	C120.334274,256.229523 129.542664,248.134598 136.169708,237.498581 
	C145.436920,222.625259 146.415344,204.857819 128.335175,192.989258 
	C122.974335,189.470184 117.096169,186.385620 111.034233,184.363464 
	C99.247917,180.431717 87.941338,182.646011 77.756897,189.644836 
	C60.855114,201.259903 52.094635,225.049011 57.232124,244.876389 
	C58.624519,250.250153 61.277576,254.556442 66.771576,256.872253 
	C71.669044,258.936646 76.415092,261.406128 81.079704,263.966919 
	C88.974899,268.301208 94.461212,274.756622 97.471031,284.119629 
M700.483459,190.918823 
	C688.797119,198.151337 683.869446,209.096008 683.394592,222.379715 
	C683.198486,227.865952 683.355957,233.364914 683.356079,238.858078 
	C683.356262,248.512741 682.910889,258.201050 683.631104,267.801819 
	C683.850281,270.724182 686.726746,274.765045 689.386658,275.857361 
	C692.812317,277.264130 695.110291,273.366089 695.029785,267.860443 
	C694.926880,260.818481 695.004822,253.773880 695.004822,245.521423 
	C699.073608,248.794022 702.611450,251.416519 705.893127,254.327652 
	C711.866211,259.626282 717.519409,265.296173 723.629333,270.426178 
	C727.868774,273.985565 731.994324,273.423615 735.058228,269.684906 
	C737.318298,266.927063 736.148804,261.688232 732.410522,258.771088 
	C729.395569,256.418365 726.179993,254.324036 723.075256,252.084778 
	C718.012512,248.433380 712.967590,244.757339 707.562561,240.835815 
	C714.144531,235.765656 720.208374,231.369629 725.962891,226.600342 
	C735.661316,218.562271 736.839966,206.817947 729.215820,196.890625 
	C721.290710,186.571457 713.849243,184.899841 700.483459,190.918823 
M956.504028,248.066528 
	C953.336426,245.741364 950.168762,243.416199 946.627075,240.816422 
	C948.596802,239.274277 950.016724,238.157944 951.441528,237.047958 
	C956.430054,233.161560 961.654907,229.539444 966.355103,225.331161 
	C973.489380,218.943527 975.120972,209.326004 970.986572,201.191620 
	C965.482727,190.362900 957.668579,185.623260 947.375000,188.280655 
	C942.434875,189.556000 937.405518,192.277832 933.566223,195.652542 
	C925.499084,202.743362 922.488525,212.442795 922.439758,223.035721 
	C922.373047,237.519379 922.421631,252.003586 922.423767,266.487549 
	C922.423889,267.319580 922.118042,268.400665 922.522339,268.941071 
	C924.389648,271.437195 926.063049,275.136719 928.547974,275.861725 
	C932.180725,276.921661 934.249451,273.409180 934.042603,268.176697 
	C933.805969,262.189392 933.549622,256.202515 933.380676,250.213226 
	C933.346741,249.010590 933.666443,247.798004 933.964966,245.496353 
	C937.918762,248.642029 941.238342,251.047882 944.285583,253.759872 
	C949.506104,258.406219 954.529175,263.273773 959.695312,267.982452 
	C961.161072,269.318451 962.718811,270.634247 964.437927,271.594971 
	C968.206299,273.700897 972.460083,272.768280 974.421021,269.134644 
	C976.589417,265.116638 974.705688,261.528046 971.641113,259.022705 
	C967.011658,255.238052 961.955078,251.975922 956.504028,248.066528 
M458.412231,333.850586 
	C456.676544,326.735260 455.078430,319.582275 453.146820,312.520538 
	C452.188568,309.017212 450.935150,305.514374 449.248840,302.309326 
	C446.724976,297.512329 443.802826,296.835846 438.292450,299.111725 
	C434.245331,300.783264 435.316376,304.185791 435.717133,307.238770 
	C435.908356,308.695526 436.378326,310.208740 437.093109,311.489227 
	C443.369049,322.732422 445.927917,335.101379 448.321259,347.554779 
	C450.142883,357.033356 452.149292,366.479858 454.279388,375.894012 
	C455.087952,379.467499 456.346741,384.046661 460.937683,383.148651 
	C468.329041,381.702850 475.646240,379.065308 478.420227,370.830902 
	C481.499725,361.689819 484.291412,352.451111 487.161011,343.240112 
	C491.358612,329.766327 494.422974,315.848633 502.739410,304.004791 
	C503.300079,303.206329 504.032806,302.066589 503.844055,301.290192 
	C503.268127,298.921631 502.737335,296.256836 501.239655,294.531158 
	C500.595612,293.789032 496.728729,294.401276 495.847870,295.557556 
	C492.079865,300.503479 487.977234,305.511963 485.654968,311.177368 
	C480.421753,323.944153 476.224884,337.133514 471.471344,350.101440 
	C470.667633,352.294067 469.190277,354.239777 467.467621,357.282593 
	C462.086609,349.752991 460.909454,341.971588 458.412231,333.850586 
M579.534912,363.583282 
	C575.671631,363.794586 571.808350,364.005890 567.028870,364.267273 
	C568.241699,361.793579 569.022949,360.199890 569.804382,358.606262 
	C575.152466,347.699982 580.783142,336.919067 585.706299,325.824249 
	C587.614685,321.523621 588.627686,316.540405 588.812195,311.819794 
	C589.191162,302.123108 582.708130,296.974915 574.859985,292.990173 
	C568.211853,289.614777 562.299500,291.459442 557.361145,295.954407 
	C550.735718,301.984924 544.658142,308.621613 538.410522,315.061249 
	C534.825012,318.756897 537.049500,321.548096 539.928345,324.336945 
	C543.368286,327.669342 545.108704,324.733154 547.185059,322.630402 
	C552.794617,316.949524 558.281921,311.134613 564.127136,305.705994 
	C566.628296,303.383118 569.749207,302.490234 573.204468,304.946320 
	C576.555969,307.328674 577.719360,310.341125 576.651123,314.018066 
	C575.730896,317.185394 574.368103,320.276306 572.822205,323.200775 
	C565.584717,336.892578 557.979126,350.396545 551.056030,364.243103 
	C549.256653,367.841827 549.101013,372.409882 548.815552,376.575562 
	C548.541870,380.569122 550.852173,381.982605 554.933533,381.550293 
	C562.207092,380.779846 569.543457,380.617432 576.827148,379.922852 
	C581.616943,379.466064 586.430481,378.819244 591.105103,377.714417 
	C596.010437,376.554993 596.557922,374.798096 594.649963,370.070587 
	C591.947693,363.374878 586.311035,363.284851 579.534912,363.583282 
M533.355469,107.108803 
	C535.284729,108.175774 537.107849,109.834633 539.162415,110.203262 
	C546.523621,111.524017 547.810791,104.899086 550.568176,99.836868 
	C553.260010,106.626457 553.027100,117.109680 550.327148,126.499001 
	C548.776062,131.893112 550.253479,134.097687 555.763977,134.244598 
	C557.908142,134.301788 560.108459,134.069565 562.195190,133.587952 
	C563.044800,133.391861 564.218933,132.234924 564.295105,131.425690 
	C564.962708,124.335815 565.430847,117.226784 565.927246,110.121277 
	C566.421631,103.044632 566.640686,95.938583 567.431335,88.896049 
	C568.056641,83.326088 566.784790,80.376030 561.636169,78.218407 
	C556.948425,76.253944 552.735046,77.285439 549.270142,80.779640 
	C546.651306,83.420624 544.401550,86.427521 541.695007,89.616241 
	C540.437683,86.373161 539.542603,83.554695 538.279053,80.912529 
	C535.719971,75.561516 531.949768,72.231117 525.395874,72.735016 
	C517.414795,73.348648 508.206696,81.335068 506.643799,89.426758 
	C505.557800,95.049713 504.064880,100.602287 503.176331,106.252754 
	C502.376862,111.336777 501.943329,116.502808 501.734924,121.648323 
	C501.531769,126.664032 503.874725,128.227493 508.703339,126.781006 
	C514.101624,125.163857 517.369995,120.043922 517.845886,113.248276 
	C518.321716,106.454262 519.036499,99.668556 519.925903,92.916000 
	C520.291687,90.138657 521.387756,87.457497 522.151672,84.732590 
	C522.777893,84.703018 523.404114,84.673454 524.030334,84.643883 
	C527.009155,91.924202 529.987976,99.204514 533.355469,107.108803 
M477.866577,182.476822 
	C474.711304,182.239426 471.105621,180.887436 468.475677,181.950119 
	C454.131195,187.746323 442.122803,196.851730 433.158081,209.590103 
	C420.763031,227.202866 422.135101,245.760742 436.779053,261.499573 
	C447.332764,272.842377 458.192627,274.398468 471.118530,265.927582 
	C482.595825,258.406067 491.676117,248.434952 498.228363,236.412262 
	C500.047333,233.074692 500.823700,228.850723 500.964996,224.992615 
	C501.170593,219.379425 498.926025,216.872055 493.316223,216.638123 
	C484.022797,216.250549 474.692139,216.365112 465.392578,216.697784 
	C461.457458,216.838562 457.498047,217.845627 453.683014,218.928482 
	C452.414948,219.288406 451.562714,221.113205 450.520355,222.268295 
	C451.882996,223.238754 453.173706,224.897522 454.621948,225.048904 
	C458.746704,225.480026 462.967957,224.988434 467.092651,225.419800 
	C475.748840,226.325073 484.367554,227.588516 494.048615,228.840271 
	C487.319702,240.523193 480.893463,250.328369 470.803711,257.075653 
	C463.121429,262.212982 454.948578,263.171478 446.774780,258.394867 
	C438.448944,253.529449 434.370026,246.136734 434.875305,236.353043 
	C435.806000,218.332123 446.476654,206.823624 460.725769,197.776245 
	C466.206970,194.295990 471.832733,191.031738 477.501007,187.863007 
	C480.038269,186.444626 480.625824,185.098953 477.866577,182.476822 
M561.741333,246.131363 
	C563.339355,242.854401 564.428833,239.593552 561.362793,236.504288 
	C558.210938,233.328644 555.010498,234.105331 551.337769,235.834000 
	C548.080566,237.367096 544.462830,238.564468 540.902466,238.936554 
	C532.640137,239.800034 524.372437,233.610260 523.160461,225.880798 
	C525.109497,225.603043 527.065125,225.370987 529.003967,225.040756 
	C544.322510,222.431458 555.271240,209.060226 554.481506,193.951141 
	C553.881226,182.466736 544.692261,174.585373 533.800171,177.463989 
	C528.449097,178.878174 522.450012,181.872879 519.090515,186.042679 
	C508.536743,199.142075 504.492920,214.322083 509.170837,231.047928 
	C509.681305,232.873138 510.851959,234.652374 512.118469,236.101532 
	C515.950806,240.486465 519.670898,245.055161 524.041138,248.854691 
	C527.043335,251.464813 531.257996,254.855606 534.577271,254.509338 
	C543.782410,253.549057 553.805237,254.057098 561.741333,246.131363 
M335.565399,227.907272 
	C335.950867,234.719177 341.825226,237.729416 345.430389,242.351166 
	C351.975677,250.742157 358.506500,257.350464 370.995331,253.678604 
	C376.398346,252.090057 381.906342,251.285248 386.627197,247.997833 
	C390.191284,245.515930 391.709106,240.478271 389.548828,237.611862 
	C386.913269,234.114822 383.647308,233.350784 379.435272,235.392914 
	C376.042877,237.037674 372.314850,238.399979 368.603455,238.893906 
	C360.191956,240.013397 351.749329,233.894531 350.318451,225.884933 
	C352.267365,225.607803 354.223663,225.372467 356.164795,225.046783 
	C371.331360,222.502258 382.204559,209.507553 381.728302,194.518448 
	C381.354370,182.749451 372.295471,175.025345 361.036011,177.251480 
	C354.300903,178.583099 348.554871,181.949814 344.634827,187.798325 
	C336.642639,199.722305 332.649994,212.627686 335.565399,227.907272 
M621.055969,214.707993 
	C619.741516,226.527969 624.198181,235.468613 632.788330,243.810501 
	C639.807495,250.626801 645.436279,257.796112 656.475525,253.312897 
	C656.760193,253.197281 657.137695,253.280609 657.468140,253.311539 
	C663.716125,253.896271 668.745239,251.028458 673.572937,247.613327 
	C677.125183,245.100403 677.694702,241.564789 676.087708,237.921722 
	C674.493286,234.307373 670.383362,233.603302 666.180237,235.282181 
	C662.502441,236.751236 658.732178,238.397217 654.864502,238.899033 
	C646.385010,239.999191 637.629883,233.459778 636.979919,225.929352 
	C638.909119,225.628815 640.863953,225.358109 642.806335,225.016327 
	C658.074707,222.329727 668.990173,208.892975 668.161194,193.823090 
	C667.535828,182.455078 658.314270,174.992508 647.291809,177.285782 
	C640.388977,178.721970 634.616394,182.252502 630.665100,188.317520 
	C625.597229,196.096344 622.016113,204.438110 621.055969,214.707993 
M755.156433,228.441071 
	C753.550354,232.994537 751.940063,237.546509 750.339294,242.101837 
	C748.080811,248.528931 745.640442,254.902328 743.701111,261.424500 
	C743.182739,263.167847 744.204529,265.369110 744.519226,267.360138 
	C746.819946,266.826996 749.790161,267.007477 751.279968,265.609924 
	C754.247437,262.826202 756.813110,259.403046 758.791870,255.827393 
	C761.562378,250.821030 765.312195,247.845200 771.064148,247.934204 
	C777.048157,248.026794 783.036255,248.278336 789.006653,248.691086 
	C793.475403,249.000000 796.069336,251.693298 796.279114,256.116333 
	C796.459412,259.917847 795.869995,263.755585 796.046448,267.557587 
	C796.114197,269.015350 797.253662,271.538269 798.092651,271.618835 
	C799.978699,271.799957 802.740173,271.349121 803.745239,270.062164 
	C804.988892,268.469727 805.422546,265.692963 805.152405,263.561401 
	C803.645325,251.670227 802.453552,239.681061 799.903992,227.998215 
	C797.825317,218.473038 794.729004,209.001221 790.748901,200.102905 
	C785.904114,189.271530 773.978943,189.166580 767.561157,199.282684 
	C766.316040,201.245377 765.124939,203.286713 764.247620,205.430389 
	C761.222778,212.821381 758.347961,220.273727 755.156433,228.441071 
M587.800049,90.226219 
	C587.222961,93.968460 586.645874,97.710701 586.034302,101.676720 
	C583.961426,101.401237 582.197144,101.044540 580.419495,100.954994 
	C576.234375,100.744179 572.702332,102.012024 571.367676,106.361824 
	C570.232544,110.061646 572.864380,113.717110 577.599487,115.193680 
	C580.255493,116.021912 583.044128,116.424828 585.422729,116.943054 
	C586.447632,121.632820 587.003845,126.129395 588.469421,130.306885 
	C589.797607,134.092590 593.125671,135.477081 597.045044,134.149506 
	C600.693054,132.913834 602.285522,130.280548 601.470642,126.361122 
	C601.165894,124.895287 601.079346,123.383339 600.760803,121.921272 
	C600.028259,118.558800 601.062805,117.237747 604.757690,117.037430 
	C627.576477,115.800331 634.919250,97.743347 632.197632,79.536568 
	C631.119263,72.322815 627.028931,67.287766 619.937927,65.186501 
	C612.267334,62.913460 604.793396,62.644028 598.430725,68.724525 
	C592.505249,74.387245 590.176941,81.864899 587.800049,90.226219 
M193.105133,77.531281 
	C184.966751,101.703423 183.353806,126.750191 183.149246,151.981949 
	C183.119034,155.706955 184.984207,158.025620 188.727005,158.393417 
	C192.528870,158.767059 196.363129,159.077713 200.176819,159.016693 
	C213.771591,158.799225 227.069183,156.918777 239.631943,151.326675 
	C242.853622,149.892624 244.963089,147.730637 243.971008,143.958511 
	C242.903793,139.900604 239.882309,141.133957 237.066864,141.589035 
	C227.168396,143.189056 217.235443,144.403900 207.296890,141.942108 
	C198.909103,139.864441 195.417862,136.213165 196.735977,127.778084 
	C198.937714,113.688141 202.392746,99.793152 205.355560,85.823593 
	C206.212006,81.785347 207.606995,77.811661 207.986664,73.736786 
	C208.324265,70.113289 206.042725,68.514702 202.220612,68.740463 
	C196.927505,69.053116 194.732880,72.386726 193.105133,77.531281 
M216.865555,200.481033 
	C215.375137,194.401810 212.710388,192.740448 206.865402,194.440384 
	C201.533173,195.991196 204.335999,199.723343 204.956390,202.624985 
	C208.045807,217.074814 207.446213,230.624786 197.281952,242.658218 
	C192.120789,248.768494 185.889969,250.354309 178.544266,249.192841 
	C171.592545,248.093704 168.053558,243.170731 166.030304,236.998428 
	C165.052521,234.015564 164.147995,230.860718 164.063950,227.760605 
	C163.812027,218.467865 163.928223,209.163269 164.005753,199.864182 
	C164.049484,194.620422 162.591400,193.038956 157.384979,193.131683 
	C152.115463,193.225540 150.463242,194.944000 150.805099,200.006790 
	C151.287140,207.146179 151.243637,214.374573 152.416290,221.399399 
	C153.693878,229.052994 155.394608,236.805405 158.293884,243.953812 
	C159.970627,248.087967 163.759872,252.153931 167.657288,254.464325 
	C185.979126,265.325531 210.408447,255.779602 216.191238,235.344223 
	C219.326859,224.263458 219.568253,212.706970 216.865555,200.481033 
M751.551758,106.962151 
	C747.742493,115.426781 743.724426,123.806145 740.216797,132.393997 
	C738.598877,136.355377 739.775940,140.022537 744.107239,141.900467 
	C748.227905,143.687027 751.459412,142.084763 753.352722,138.461838 
	C755.249207,134.832657 756.719666,130.923721 757.899109,126.994026 
	C758.955078,123.475410 759.360596,119.761581 760.053162,116.133888 
	C760.664001,115.972649 761.274841,115.811417 761.885681,115.650185 
	C764.161987,119.164276 766.884521,122.477676 768.582275,126.252022 
	C770.111938,129.652664 772.240845,131.162659 775.741943,131.342163 
	C781.681641,131.646713 785.713013,128.171021 787.687317,120.177658 
	C790.400146,109.194191 790.200500,98.075005 788.428833,86.948257 
	C787.161987,78.991371 783.486694,72.159103 778.643005,65.888351 
	C776.430481,63.023785 773.645996,61.983521 770.388916,64.245804 
	C767.314819,66.380974 767.388367,69.048279 769.143188,72.080757 
	C770.725464,74.814972 772.487793,77.552361 773.437317,80.522804 
	C775.340393,86.476013 777.662781,92.524193 778.096863,98.654610 
	C778.544617,104.979057 775.078125,106.511665 769.641479,103.607826 
	C761.633240,99.330452 755.869812,100.217865 751.551758,106.962151 
M598.807129,242.934479 
	C607.103577,244.733063 611.591980,242.377686 613.866943,233.519775 
	C617.670044,218.712036 617.624268,203.810394 612.003235,189.369461 
	C610.519592,185.557953 607.921143,182.148178 605.621216,178.696136 
	C603.531250,175.559265 600.693726,174.136093 597.120911,176.459763 
	C593.702087,178.683304 594.328125,181.377472 595.894165,184.655319 
	C598.967224,191.087296 601.901489,197.629318 604.217407,204.358398 
	C605.179626,207.154221 604.978638,210.677460 604.295288,213.636368 
	C603.253357,218.147797 601.351501,218.368713 597.194946,216.567398 
	C593.615601,215.016220 589.687073,213.895523 585.824402,213.536118 
	C583.971191,213.363693 580.926514,214.891312 580.110901,216.503616 
	C575.331604,225.951965 570.887695,235.582062 566.686646,245.304688 
	C565.084717,249.012115 566.765259,252.182465 570.377380,254.019394 
	C574.109924,255.917526 577.453308,254.880280 579.468445,251.489487 
	C581.472168,248.118042 583.051758,244.398575 584.204102,240.643555 
	C585.404114,236.733246 585.871155,232.598007 586.658691,228.561127 
	C587.132324,228.347946 587.606018,228.134766 588.079712,227.921570 
	C590.263550,230.848450 592.515869,233.727432 594.606079,236.719727 
	C595.908630,238.584473 596.966187,240.620438 598.807129,242.934479 
M257.539062,97.001167 
	C251.118454,108.504791 250.007477,120.686600 253.453720,133.224747 
	C255.567657,140.915695 260.055908,144.590042 266.345001,144.253311 
	C277.191254,143.672592 287.075409,140.076523 294.578247,132.174652 
	C297.671936,128.916443 300.223694,123.997078 300.669373,119.595070 
	C301.817230,108.258553 297.558655,98.340515 289.438477,90.301926 
	C282.311798,83.246819 272.436340,82.706383 264.563171,89.024994 
	C262.017975,91.067627 260.110535,93.904945 257.539062,97.001167 
M909.884949,220.669022 
	C906.940918,215.149307 904.762085,209.008621 900.892395,204.240067 
	C893.003174,194.518295 881.090149,194.543015 872.120911,203.408066 
	C861.633667,213.773468 858.238342,236.665146 865.238586,249.675232 
	C867.867004,254.560120 871.912354,257.556366 877.419495,256.353943 
	C883.997681,254.917664 890.827454,253.387543 896.720032,250.311447 
	C909.720337,243.524963 912.826111,235.850311 909.884949,220.669022 
M231.620499,252.908234 
	C235.495026,257.330170 240.550201,257.052063 245.505585,255.968002 
	C273.052582,249.941788 282.068115,234.111908 269.999634,210.818985 
	C268.568970,208.057709 266.456055,205.562653 264.305267,203.277496 
	C256.759094,195.259872 245.775635,194.880356 237.512329,202.174454 
	C224.952194,213.261368 221.746185,238.513214 231.620499,252.908234 
M682.452881,121.403374 
	C683.323853,126.114616 683.646484,131.015137 685.192200,135.493469 
	C687.610229,142.499039 692.249512,145.262680 699.559875,143.936264 
	C705.210632,142.910950 710.987427,141.394913 716.112610,138.882172 
	C731.290710,131.440781 735.501282,119.844597 729.245117,104.095039 
	C727.969177,100.882912 726.266052,97.742439 724.244019,94.941238 
	C714.070435,80.847229 698.090759,81.466728 688.821655,96.220970 
	C684.166077,103.631569 682.443237,111.843468 682.452881,121.403374 
M652.090881,76.690475 
	C651.863464,81.937057 650.816956,87.309921 651.601746,92.400459 
	C652.761902,99.925545 655.285034,107.234863 657.110901,114.664795 
	C658.493530,120.291473 657.785461,121.447403 651.981750,122.250481 
	C649.056030,122.655319 646.026733,122.258629 643.047913,122.346352 
	C639.122253,122.461952 636.329346,124.953651 636.342651,128.391785 
	C636.351746,130.739349 638.645996,134.613007 640.637451,135.153030 
	C649.399292,137.528900 658.189209,137.198700 665.811462,131.297974 
	C672.731934,125.940536 672.201416,118.586670 670.503357,111.218529 
	C668.898682,104.255394 666.820312,97.402756 665.042542,90.477829 
	C663.099365,82.909264 664.570679,79.757423 671.774963,76.670616 
	C676.202332,74.773666 680.832764,73.356476 685.310913,71.570656 
	C689.277954,69.988693 690.972290,67.075066 689.711121,62.812122 
	C688.595215,59.040184 685.284180,57.336094 680.920837,58.561813 
	C677.083435,59.639778 673.235229,60.818787 669.588196,62.404819 
	C662.697693,65.401421 655.869324,68.623070 652.090881,76.690475 
M800.631409,135.948486 
	C803.121521,136.102020 805.618347,136.458511 808.100647,136.376022 
	C823.715210,135.857132 830.920227,127.201736 828.008850,111.949860 
	C826.671265,104.942764 824.393127,98.116486 822.572571,91.200035 
	C820.348694,82.751190 821.752563,79.744476 829.827698,76.366463 
	C834.122803,74.569740 838.600525,73.213432 842.920471,71.471535 
	C846.946167,69.848343 848.422058,66.796661 847.063232,62.604881 
	C845.692444,58.376202 842.254822,57.401794 838.644409,58.541985 
	C832.637573,60.438980 826.543396,62.438122 821.011597,65.381958 
	C809.435608,71.542404 806.002625,79.581924 808.830688,92.355858 
	C810.305359,99.017044 812.198669,105.584969 813.869141,112.203529 
	C816.077271,120.952293 814.564819,122.831291 805.473389,122.668228 
	C804.477661,122.650375 803.486145,122.465034 802.489807,122.403603 
	C797.697510,122.108116 793.883240,124.416740 793.497559,128.336746 
	C793.063721,132.745926 795.728210,135.010590 800.631409,135.948486 
M333.880157,134.446594 
	C343.367157,129.982788 346.484344,124.327454 344.373322,113.970764 
	C342.782135,106.164307 340.536041,98.490601 338.555450,90.764473 
	C336.529022,82.859543 337.890533,79.806953 345.403625,76.596107 
	C349.833252,74.703026 354.468475,73.296379 358.937653,71.489029 
	C362.959839,69.862442 364.410370,66.808708 363.073090,62.619968 
	C361.716766,58.371727 358.251343,57.365654 354.682678,58.547848 
	C348.239868,60.682140 341.712524,62.930416 335.783081,66.163025 
	C325.666809,71.678200 322.445648,79.511322 324.570831,90.890480 
	C325.119049,93.826141 325.974274,96.705589 326.716797,99.603607 
	C328.079498,104.922234 329.397980,110.253487 330.859772,115.544983 
	C331.949951,119.491325 330.596741,121.694221 326.528015,122.072205 
	C324.061859,122.301308 321.568207,122.534058 319.103455,122.416855 
	C313.727631,122.161247 309.840729,124.634636 309.477875,128.799576 
	C309.145203,132.618637 312.383301,135.851410 317.889343,135.978271 
	C322.967499,136.095245 328.069061,135.194595 333.880157,134.446594 
M841.848267,228.488327 
	C842.550964,219.064697 843.253662,209.641068 843.954041,200.248322 
	C846.241699,199.771317 848.010071,199.282867 849.811523,199.048233 
	C856.696228,198.151535 857.784851,194.397537 857.660522,187.986877 
	C857.606079,185.180695 856.158325,183.770691 853.020874,184.568665 
	C850.375000,185.241608 847.625549,185.507416 846.297607,185.726471 
	C844.154968,182.162567 842.578247,179.539841 841.001465,176.917084 
	C838.864075,178.516815 835.396057,179.746216 834.829163,181.783066 
	C832.820435,189.000473 828.022156,189.107101 822.277832,188.035782 
	C820.004395,187.611771 817.648254,187.481750 815.455811,186.807846 
	C812.197449,185.806320 810.230347,187.623993 809.878174,190.105148 
	C809.599243,192.070236 810.568237,195.351593 812.032104,196.168381 
	C814.467041,197.526947 817.727051,197.597290 820.668396,197.807816 
	C824.091492,198.052826 827.545471,197.864960 831.324524,197.864960 
	C831.324524,200.194748 831.417603,201.828018 831.309692,203.447906 
	C830.490906,215.737473 829.478638,228.017548 828.929382,240.318542 
	C828.830566,242.530518 830.588928,244.825394 831.489807,247.082001 
	C833.752502,245.808945 837.187805,245.060516 838.039856,243.156265 
	C839.957336,238.870697 840.594604,234.012314 841.848267,228.488327 
M313.332520,242.729111 
	C314.202240,239.727203 315.539246,236.773590 315.855408,233.714478 
	C316.863586,223.958969 317.637695,214.172363 318.186096,204.380081 
	C318.369202,201.110443 319.428314,199.482605 322.738892,199.364197 
	C323.885040,199.323212 325.033203,198.970627 326.154510,198.665222 
	C331.081085,197.323471 334.212372,191.010910 331.932709,186.413132 
	C331.429047,185.397278 329.361115,184.598175 328.054993,184.654892 
	C325.302185,184.774460 322.576813,185.526550 319.634521,186.056107 
	C319.425934,184.813278 319.448761,183.955521 319.132355,183.249893 
	C318.181763,181.129944 317.098816,179.069336 316.067505,176.985580 
	C313.971863,178.320541 310.482849,179.287903 310.017212,181.052872 
	C307.775024,189.551941 301.868408,189.059174 295.434143,187.947647 
	C293.645508,187.638672 291.821320,187.381851 290.110046,186.811295 
	C286.839966,185.721039 284.922607,187.734070 284.577637,190.156235 
	C284.299652,192.108246 285.303925,195.375473 286.773987,196.188568 
	C289.212646,197.537430 292.467133,197.599182 295.405945,197.806885 
	C298.822906,198.048386 302.270020,197.863190 306.076477,197.863190 
	C306.076477,200.175171 306.168762,201.800430 306.061737,203.412445 
	C305.257904,215.520401 304.253693,227.618652 303.720795,239.737900 
	C303.615173,242.140579 305.271423,244.620712 306.115204,247.065109 
	C308.395233,245.828964 310.675293,244.592819 313.332520,242.729111 
M481.665222,82.721893 
	C482.031860,87.727043 482.121643,92.618523 479.031891,97.066780 
	C478.035217,98.501579 477.611877,100.471031 477.350555,102.257950 
	C475.693115,113.591797 474.068604,124.932121 472.627960,136.294998 
	C472.179535,139.831772 475.134644,142.647995 478.758362,142.706528 
	C482.839081,142.772446 487.918121,139.300034 488.229340,136.625320 
	C490.280334,118.999092 492.513184,101.393898 494.528473,83.763741 
	C494.937286,80.187485 495.308533,76.397636 494.570129,72.947449 
	C493.393707,67.450569 489.774994,66.743553 485.394257,70.401665 
	C481.701965,73.484856 481.720367,77.619545 481.665222,82.721893 
M524.409058,364.964264 
	C522.667908,366.201813 520.655029,367.189087 519.239502,368.726471 
	C515.774780,372.489746 513.913513,377.077545 515.974243,381.986115 
	C516.551453,383.360992 519.829529,384.368011 521.790466,384.249542 
	C527.258301,383.919159 530.954895,380.725891 532.906006,375.584045 
	C533.023560,375.274261 533.098450,374.946716 533.174683,374.623047 
	C534.619629,368.492279 531.615784,364.826569 524.409058,364.964264 
z"/>
<path fill="#F5D500" opacity="1.000000" stroke="none" 
	d="
M464.981079,55.037762 
	C469.728516,60.234928 468.871002,65.825783 466.644409,71.209663 
	C465.984802,72.804619 463.515137,74.362816 461.748230,74.520775 
	C460.690399,74.615364 458.524078,72.051392 458.368530,70.527977 
	C458.014099,67.055519 455.945251,65.816093 453.185486,65.498596 
	C448.906525,65.006287 444.521637,64.404869 440.278290,64.825188 
	C427.630859,66.077988 415.356567,68.878304 404.031189,75.045319 
	C400.985779,76.703629 397.534454,77.601021 394.415314,79.142708 
	C388.056641,82.285576 388.071106,87.325111 393.338959,91.878929 
	C407.885132,104.453415 425.313110,112.208748 441.714569,121.685211 
	C449.303101,126.069725 456.477356,131.068771 460.699860,138.945145 
	C465.933228,148.706955 464.994751,151.397598 458.090790,157.424454 
	C451.527496,163.153915 444.497040,165.769653 436.251984,165.067322 
	C420.183502,163.698517 404.157135,161.840607 388.105133,160.269104 
	C384.674347,159.933228 383.617859,157.937775 383.573364,154.887604 
	C383.473053,148.010132 390.009247,143.384827 397.067108,145.117599 
	C403.617828,146.725861 410.182159,148.678726 416.851105,149.308777 
	C426.081818,150.180817 435.415344,150.031937 444.706848,150.131134 
	C446.362366,150.148804 448.027649,149.247757 449.901367,148.709793 
	C445.560272,140.722672 438.519379,136.893494 431.594666,133.008102 
	C422.155151,127.711678 412.510376,122.774040 403.163208,117.323204 
	C398.881561,114.826347 394.822571,111.779411 391.139496,108.453835 
	C375.934723,94.724915 379.446045,77.566238 393.325989,67.551300 
	C410.602356,55.085724 430.284363,49.307060 451.641449,50.548210 
	C456.067444,50.805428 460.362793,53.311199 464.981079,55.037762 
z"/>
<path fill="#F3D400" opacity="1.000000" stroke="none" 
	d="
M97.379272,283.748840 
	C94.461212,274.756622 88.974899,268.301208 81.079704,263.966919 
	C76.415092,261.406128 71.669044,258.936646 66.771576,256.872253 
	C61.277576,254.556442 58.624519,250.250153 57.232124,244.876389 
	C52.094635,225.049011 60.855114,201.259903 77.756897,189.644836 
	C87.941338,182.646011 99.247917,180.431717 111.034233,184.363464 
	C117.096169,186.385620 122.974335,189.470184 128.335175,192.989258 
	C146.415344,204.857819 145.436920,222.625259 136.169708,237.498581 
	C129.542664,248.134598 120.334274,256.229523 108.686707,261.404755 
	C102.594170,264.111755 101.860313,265.933319 103.757675,272.325623 
	C104.552155,275.002258 106.276329,277.396729 107.136513,280.061951 
	C107.941017,282.554657 109.125076,285.611359 108.308861,287.705200 
	C107.741737,289.160034 103.671638,290.522644 101.895195,289.887726 
	C99.978165,289.202576 98.909676,286.143250 97.379272,283.748840 
M89.530029,248.081070 
	C90.315536,246.582474 91.101044,245.083878 92.027840,243.315750 
	C93.302216,244.248703 94.128700,244.603363 94.577232,245.228989 
	C95.930496,247.116516 97.304344,249.024063 98.354057,251.084824 
	C99.433235,253.203430 100.564270,254.133438 103.023636,253.043350 
	C117.382957,246.678741 127.142479,236.730911 129.263474,220.464233 
	C130.415375,211.630020 127.031036,205.293472 119.572495,200.762039 
	C98.306923,187.842194 69.217056,203.348892 67.824036,228.379623 
	C67.092293,241.528107 73.856285,252.018570 86.553322,256.580841 
	C87.459427,253.994812 88.366219,251.406784 89.530029,248.081070 
z"/>
<path fill="#F2D300" opacity="1.000000" stroke="none" 
	d="
M700.817871,190.752716 
	C713.849243,184.899841 721.290710,186.571457 729.215820,196.890625 
	C736.839966,206.817947 735.661316,218.562271 725.962891,226.600342 
	C720.208374,231.369629 714.144531,235.765656 707.562561,240.835815 
	C712.967590,244.757339 718.012512,248.433380 723.075256,252.084778 
	C726.179993,254.324036 729.395569,256.418365 732.410522,258.771088 
	C736.148804,261.688232 737.318298,266.927063 735.058228,269.684906 
	C731.994324,273.423615 727.868774,273.985565 723.629333,270.426178 
	C717.519409,265.296173 711.866211,259.626282 705.893127,254.327652 
	C702.611450,251.416519 699.073608,248.794022 695.004822,245.521423 
	C695.004822,253.773880 694.926880,260.818481 695.029785,267.860443 
	C695.110291,273.366089 692.812317,277.264130 689.386658,275.857361 
	C686.726746,274.765045 683.850281,270.724182 683.631104,267.801819 
	C682.910889,258.201050 683.356262,248.512741 683.356079,238.858078 
	C683.355957,233.364914 683.198486,227.865952 683.394592,222.379715 
	C683.869446,209.096008 688.797119,198.151337 700.817871,190.752716 
M713.039917,223.603088 
	C715.328674,220.972412 717.807983,218.481369 719.861572,215.678391 
	C722.952820,211.459015 722.242004,208.113235 718.050598,202.749878 
	C715.093384,198.965698 711.523010,199.654663 708.194031,201.405289 
	C694.474976,208.619934 691.336975,215.380661 694.838928,230.971069 
	C701.629395,231.024658 707.282227,228.146835 713.039917,223.603088 
z"/>
<path fill="#F2D300" opacity="1.000000" stroke="none" 
	d="
M956.791992,248.279144 
	C961.955078,251.975922 967.011658,255.238052 971.641113,259.022705 
	C974.705688,261.528046 976.589417,265.116638 974.421021,269.134644 
	C972.460083,272.768280 968.206299,273.700897 964.437927,271.594971 
	C962.718811,270.634247 961.161072,269.318451 959.695312,267.982452 
	C954.529175,263.273773 949.506104,258.406219 944.285583,253.759872 
	C941.238342,251.047882 937.918762,248.642029 933.964966,245.496353 
	C933.666443,247.798004 933.346741,249.010590 933.380676,250.213226 
	C933.549622,256.202515 933.805969,262.189392 934.042603,268.176697 
	C934.249451,273.409180 932.180725,276.921661 928.547974,275.861725 
	C926.063049,275.136719 924.389648,271.437195 922.522339,268.941071 
	C922.118042,268.400665 922.423889,267.319580 922.423767,266.487549 
	C922.421631,252.003586 922.373047,237.519379 922.439758,223.035721 
	C922.488525,212.442795 925.499084,202.743362 933.566223,195.652542 
	C937.405518,192.277832 942.434875,189.556000 947.375000,188.280655 
	C957.668579,185.623260 965.482727,190.362900 970.986572,201.191620 
	C975.120972,209.326004 973.489380,218.943527 966.355103,225.331161 
	C961.654907,229.539444 956.430054,233.161560 951.441528,237.047958 
	C950.016724,238.157944 948.596802,239.274277 946.627075,240.816422 
	C950.168762,243.416199 953.336426,245.741364 956.791992,248.279144 
M944.473328,202.813675 
	C933.345398,209.953079 930.379639,215.584442 933.839355,230.680054 
	C943.796204,231.098511 957.319641,222.138580 960.593140,212.841812 
	C960.947083,211.836700 960.902832,210.539093 960.624817,209.487823 
	C958.225708,200.414017 953.630371,198.346558 944.473328,202.813675 
z"/>
<path fill="#F4D500" opacity="1.000000" stroke="none" 
	d="
M458.529144,334.242004 
	C460.909454,341.971588 462.086609,349.752991 467.467621,357.282593 
	C469.190277,354.239777 470.667633,352.294067 471.471344,350.101440 
	C476.224884,337.133514 480.421753,323.944153 485.654968,311.177368 
	C487.977234,305.511963 492.079865,300.503479 495.847870,295.557556 
	C496.728729,294.401276 500.595612,293.789032 501.239655,294.531158 
	C502.737335,296.256836 503.268127,298.921631 503.844055,301.290192 
	C504.032806,302.066589 503.300079,303.206329 502.739410,304.004791 
	C494.422974,315.848633 491.358612,329.766327 487.161011,343.240112 
	C484.291412,352.451111 481.499725,361.689819 478.420227,370.830902 
	C475.646240,379.065308 468.329041,381.702850 460.937683,383.148651 
	C456.346741,384.046661 455.087952,379.467499 454.279388,375.894012 
	C452.149292,366.479858 450.142883,357.033356 448.321259,347.554779 
	C445.927917,335.101379 443.369049,322.732422 437.093109,311.489227 
	C436.378326,310.208740 435.908356,308.695526 435.717133,307.238770 
	C435.316376,304.185791 434.245331,300.783264 438.292450,299.111725 
	C443.802826,296.835846 446.724976,297.512329 449.248840,302.309326 
	C450.935150,305.514374 452.188568,309.017212 453.146820,312.520538 
	C455.078430,319.582275 456.676544,326.735260 458.529144,334.242004 
z"/>
<path fill="#F4D500" opacity="1.000000" stroke="none" 
	d="
M579.996094,363.583313 
	C586.311035,363.284851 591.947693,363.374878 594.649963,370.070587 
	C596.557922,374.798096 596.010437,376.554993 591.105103,377.714417 
	C586.430481,378.819244 581.616943,379.466064 576.827148,379.922852 
	C569.543457,380.617432 562.207092,380.779846 554.933533,381.550293 
	C550.852173,381.982605 548.541870,380.569122 548.815552,376.575562 
	C549.101013,372.409882 549.256653,367.841827 551.056030,364.243103 
	C557.979126,350.396545 565.584717,336.892578 572.822205,323.200775 
	C574.368103,320.276306 575.730896,317.185394 576.651123,314.018066 
	C577.719360,310.341125 576.555969,307.328674 573.204468,304.946320 
	C569.749207,302.490234 566.628296,303.383118 564.127136,305.705994 
	C558.281921,311.134613 552.794617,316.949524 547.185059,322.630402 
	C545.108704,324.733154 543.368286,327.669342 539.928345,324.336945 
	C537.049500,321.548096 534.825012,318.756897 538.410522,315.061249 
	C544.658142,308.621613 550.735718,301.984924 557.361145,295.954407 
	C562.299500,291.459442 568.211853,289.614777 574.859985,292.990173 
	C582.708130,296.974915 589.191162,302.123108 588.812195,311.819794 
	C588.627686,316.540405 587.614685,321.523621 585.706299,325.824249 
	C580.783142,336.919067 575.152466,347.699982 569.804382,358.606262 
	C569.022949,360.199890 568.241699,361.793579 567.028870,364.267273 
	C571.808350,364.005890 575.671631,363.794586 579.996094,363.583313 
z"/>
<path fill="#F4D500" opacity="1.000000" stroke="none" 
	d="
M533.161133,106.796814 
	C529.987976,99.204514 527.009155,91.924202 524.030334,84.643883 
	C523.404114,84.673454 522.777893,84.703018 522.151672,84.732590 
	C521.387756,87.457497 520.291687,90.138657 519.925903,92.916000 
	C519.036499,99.668556 518.321716,106.454262 517.845886,113.248276 
	C517.369995,120.043922 514.101624,125.163857 508.703339,126.781006 
	C503.874725,128.227493 501.531769,126.664032 501.734924,121.648323 
	C501.943329,116.502808 502.376862,111.336777 503.176331,106.252754 
	C504.064880,100.602287 505.557800,95.049713 506.643799,89.426758 
	C508.206696,81.335068 517.414795,73.348648 525.395874,72.735016 
	C531.949768,72.231117 535.719971,75.561516 538.279053,80.912529 
	C539.542603,83.554695 540.437683,86.373161 541.695007,89.616241 
	C544.401550,86.427521 546.651306,83.420624 549.270142,80.779640 
	C552.735046,77.285439 556.948425,76.253944 561.636169,78.218407 
	C566.784790,80.376030 568.056641,83.326088 567.431335,88.896049 
	C566.640686,95.938583 566.421631,103.044632 565.927246,110.121277 
	C565.430847,117.226784 564.962708,124.335815 564.295105,131.425690 
	C564.218933,132.234924 563.044800,133.391861 562.195190,133.587952 
	C560.108459,134.069565 557.908142,134.301788 555.763977,134.244598 
	C550.253479,134.097687 548.776062,131.893112 550.327148,126.499001 
	C553.027100,117.109680 553.260010,106.626457 550.568176,99.836868 
	C547.810791,104.899086 546.523621,111.524017 539.162415,110.203262 
	C537.107849,109.834633 535.284729,108.175774 533.161133,106.796814 
z"/>
<path fill="#F0D100" opacity="1.000000" stroke="none" 
	d="
M478.108276,182.756256 
	C480.625824,185.098953 480.038269,186.444626 477.501007,187.863007 
	C471.832733,191.031738 466.206970,194.295990 460.725769,197.776245 
	C446.476654,206.823624 435.806000,218.332123 434.875305,236.353043 
	C434.370026,246.136734 438.448944,253.529449 446.774780,258.394867 
	C454.948578,263.171478 463.121429,262.212982 470.803711,257.075653 
	C480.893463,250.328369 487.319702,240.523193 494.048615,228.840271 
	C484.367554,227.588516 475.748840,226.325073 467.092651,225.419800 
	C462.967957,224.988434 458.746704,225.480026 454.621948,225.048904 
	C453.173706,224.897522 451.882996,223.238754 450.520386,222.268295 
	C451.562714,221.113205 452.414948,219.288406 453.683014,218.928482 
	C457.498047,217.845627 461.457458,216.838562 465.392578,216.697784 
	C474.692139,216.365112 484.022797,216.250549 493.316223,216.638123 
	C498.926025,216.872055 501.170593,219.379425 500.964996,224.992615 
	C500.823700,228.850723 500.047333,233.074692 498.228363,236.412262 
	C491.676117,248.434952 482.595825,258.406067 471.118530,265.927582 
	C458.192627,274.398468 447.332764,272.842377 436.779053,261.499573 
	C422.135101,245.760742 420.763031,227.202866 433.158081,209.590103 
	C442.122803,196.851730 454.131195,187.746323 468.475677,181.950119 
	C471.105621,180.887436 474.711304,182.239426 478.108276,182.756256 
z"/>
<path fill="#F4D400" opacity="1.000000" stroke="none" 
	d="
M561.487854,246.388550 
	C553.805237,254.057098 543.782410,253.549057 534.577271,254.509338 
	C531.257996,254.855606 527.043335,251.464813 524.041138,248.854691 
	C519.670898,245.055161 515.950806,240.486465 512.118469,236.101532 
	C510.851959,234.652374 509.681305,232.873138 509.170837,231.047928 
	C504.492920,214.322083 508.536743,199.142075 519.090515,186.042679 
	C522.450012,181.872879 528.449097,178.878174 533.800171,177.463989 
	C544.692261,174.585373 553.881226,182.466736 554.481506,193.951141 
	C555.271240,209.060226 544.322510,222.431458 529.003967,225.040756 
	C527.065125,225.370987 525.109497,225.603043 523.160461,225.880798 
	C524.372437,233.610260 532.640137,239.800034 540.902466,238.936554 
	C544.462830,238.564468 548.080566,237.367096 551.337769,235.834000 
	C555.010498,234.105331 558.210938,233.328644 561.362793,236.504288 
	C564.428833,239.593552 563.339355,242.854401 561.487854,246.388550 
M524.235107,215.797913 
	C525.040161,215.594269 525.844055,215.385620 526.650513,215.187729 
	C535.782654,212.946762 544.048645,201.599594 543.324036,192.296844 
	C542.882446,186.627670 539.870789,184.860855 535.155945,187.556488 
	C527.642273,191.852310 523.444458,198.669235 520.940613,206.670837 
	C519.951538,209.831482 519.315186,213.102478 518.372253,216.913162 
	C520.864502,216.449066 522.160522,216.207718 524.235107,215.797913 
z"/>
<path fill="#F4D400" opacity="1.000000" stroke="none" 
	d="
M335.462891,227.501465 
	C332.649994,212.627686 336.642639,199.722305 344.634827,187.798325 
	C348.554871,181.949814 354.300903,178.583099 361.036011,177.251480 
	C372.295471,175.025345 381.354370,182.749451 381.728302,194.518448 
	C382.204559,209.507553 371.331360,222.502258 356.164795,225.046783 
	C354.223663,225.372467 352.267365,225.607803 350.318451,225.884933 
	C351.749329,233.894531 360.191956,240.013397 368.603455,238.893906 
	C372.314850,238.399979 376.042877,237.037674 379.435272,235.392914 
	C383.647308,233.350784 386.913269,234.114822 389.548828,237.611862 
	C391.709106,240.478271 390.191284,245.515930 386.627197,247.997833 
	C381.906342,251.285248 376.398346,252.090057 370.995331,253.678604 
	C358.506500,257.350464 351.975677,250.742157 345.430389,242.351166 
	C341.825226,237.729416 335.950867,234.719177 335.462891,227.501465 
M349.828888,216.133163 
	C351.449707,215.764725 353.082916,215.443375 354.689240,215.019974 
	C363.258575,212.761246 371.531036,200.693481 370.543121,191.926804 
	C369.914886,186.352051 366.933563,184.848038 362.063416,187.728928 
	C351.996338,193.684052 348.542297,203.713562 346.010895,214.220184 
	C345.409454,216.716400 347.109680,216.950882 349.828888,216.133163 
z"/>
<path fill="#F3D400" opacity="1.000000" stroke="none" 
	d="
M621.080566,214.243988 
	C622.016113,204.438110 625.597229,196.096344 630.665100,188.317520 
	C634.616394,182.252502 640.388977,178.721970 647.291809,177.285782 
	C658.314270,174.992508 667.535828,182.455078 668.161194,193.823090 
	C668.990173,208.892975 658.074707,222.329727 642.806335,225.016327 
	C640.863953,225.358109 638.909119,225.628815 636.979919,225.929352 
	C637.629883,233.459778 646.385010,239.999191 654.864502,238.899033 
	C658.732178,238.397217 662.502441,236.751236 666.180237,235.282181 
	C670.383362,233.603302 674.493286,234.307373 676.087708,237.921722 
	C677.694702,241.564789 677.125183,245.100403 673.572937,247.613327 
	C668.745239,251.028458 663.716125,253.896271 657.468140,253.311539 
	C657.137695,253.280609 656.760193,253.197281 656.475525,253.312897 
	C645.436279,257.796112 639.807495,250.626801 632.788330,243.810501 
	C624.198181,235.468613 619.741516,226.527969 621.080566,214.243988 
M641.300598,193.828751 
	C636.001587,200.452744 633.492371,208.099899 632.184326,216.985535 
	C635.956116,216.154083 638.901794,215.659836 641.756348,214.846085 
	C649.944031,212.512070 658.055237,200.044815 656.933716,191.694107 
	C656.218872,186.371216 653.277344,184.809921 648.724304,187.659622 
	C646.215088,189.230072 644.076233,191.392120 641.300598,193.828751 
z"/>
<path fill="#F2D300" opacity="1.000000" stroke="none" 
	d="
M755.286255,228.071899 
	C758.347961,220.273727 761.222778,212.821381 764.247620,205.430389 
	C765.124939,203.286713 766.316040,201.245377 767.561157,199.282684 
	C773.978943,189.166580 785.904114,189.271530 790.748901,200.102905 
	C794.729004,209.001221 797.825317,218.473038 799.903992,227.998215 
	C802.453552,239.681061 803.645325,251.670227 805.152405,263.561401 
	C805.422546,265.692963 804.988892,268.469727 803.745239,270.062164 
	C802.740173,271.349121 799.978699,271.799957 798.092651,271.618835 
	C797.253662,271.538269 796.114197,269.015350 796.046448,267.557587 
	C795.869995,263.755585 796.459412,259.917847 796.279114,256.116333 
	C796.069336,251.693298 793.475403,249.000000 789.006653,248.691086 
	C783.036255,248.278336 777.048157,248.026794 771.064148,247.934204 
	C765.312195,247.845200 761.562378,250.821030 758.791870,255.827393 
	C756.813110,259.403046 754.247437,262.826202 751.279968,265.609924 
	C749.790161,267.007477 746.819946,266.826996 744.519226,267.360138 
	C744.204529,265.369110 743.182739,263.167847 743.701111,261.424500 
	C745.640442,254.902328 748.080811,248.528931 750.339294,242.101837 
	C751.940063,237.546509 753.550354,232.994537 755.286255,228.071899 
M772.467834,215.114822 
	C770.766663,222.455170 769.065491,229.795517 767.363098,237.141403 
	C770.703552,237.404419 774.031372,238.103027 777.267822,237.805908 
	C780.947632,237.468109 784.681030,236.582474 788.109863,235.224564 
	C789.405457,234.711472 790.896545,232.014694 790.620667,230.653381 
	C789.041748,222.861679 787.265503,215.077362 784.923157,207.485870 
	C783.631897,203.300964 779.034180,202.718292 776.327637,206.270752 
	C774.584351,208.558838 773.845154,211.611923 772.467834,215.114822 
z"/>
<path fill="#F4D500" opacity="1.000000" stroke="none" 
	d="
M587.888367,89.817482 
	C590.176941,81.864899 592.505249,74.387245 598.430725,68.724525 
	C604.793396,62.644028 612.267334,62.913460 619.937927,65.186501 
	C627.028931,67.287766 631.119263,72.322815 632.197632,79.536568 
	C634.919250,97.743347 627.576477,115.800331 604.757690,117.037430 
	C601.062805,117.237747 600.028259,118.558800 600.760803,121.921272 
	C601.079346,123.383339 601.165894,124.895287 601.470642,126.361122 
	C602.285522,130.280548 600.693054,132.913834 597.045044,134.149506 
	C593.125671,135.477081 589.797607,134.092590 588.469421,130.306885 
	C587.003845,126.129395 586.447632,121.632820 585.422729,116.943054 
	C583.044128,116.424828 580.255493,116.021912 577.599487,115.193680 
	C572.864380,113.717110 570.232544,110.061646 571.367676,106.361824 
	C572.702332,102.012024 576.234375,100.744179 580.419495,100.954994 
	C582.197144,101.044540 583.961426,101.401237 586.034302,101.676720 
	C586.645874,97.710701 587.222961,93.968460 587.888367,89.817482 
M602.602722,87.299477 
	C601.478149,92.524887 600.353638,97.750290 599.230164,102.970772 
	C613.576050,105.627296 624.831970,93.656891 620.684998,81.093086 
	C619.839294,78.530899 616.459778,75.955734 613.733215,75.166855 
	C611.960999,74.654099 608.754272,76.914017 607.099670,78.750893 
	C605.173157,80.889732 604.239136,83.922607 602.602722,87.299477 
z"/>
<path fill="#F5D500" opacity="1.000000" stroke="none" 
	d="
M193.239014,77.172905 
	C194.732880,72.386726 196.927505,69.053116 202.220612,68.740463 
	C206.042725,68.514702 208.324265,70.113289 207.986664,73.736786 
	C207.606995,77.811661 206.212006,81.785347 205.355560,85.823593 
	C202.392746,99.793152 198.937714,113.688141 196.735977,127.778084 
	C195.417862,136.213165 198.909103,139.864441 207.296890,141.942108 
	C217.235443,144.403900 227.168396,143.189056 237.066864,141.589035 
	C239.882309,141.133957 242.903793,139.900604 243.971008,143.958511 
	C244.963089,147.730637 242.853622,149.892624 239.631943,151.326675 
	C227.069183,156.918777 213.771591,158.799225 200.176819,159.016693 
	C196.363129,159.077713 192.528870,158.767059 188.727005,158.393417 
	C184.984207,158.025620 183.119034,155.706955 183.149246,151.981949 
	C183.353806,126.750191 184.966751,101.703423 193.239014,77.172905 
z"/>
<path fill="#F1D200" opacity="1.000000" stroke="none" 
	d="
M216.960297,200.880859 
	C219.568253,212.706970 219.326859,224.263458 216.191238,235.344223 
	C210.408447,255.779602 185.979126,265.325531 167.657288,254.464325 
	C163.759872,252.153931 159.970627,248.087967 158.293884,243.953812 
	C155.394608,236.805405 153.693878,229.052994 152.416290,221.399399 
	C151.243637,214.374573 151.287140,207.146179 150.805099,200.006790 
	C150.463242,194.944000 152.115463,193.225540 157.384979,193.131683 
	C162.591400,193.038956 164.049484,194.620422 164.005753,199.864182 
	C163.928223,209.163269 163.812027,218.467865 164.063950,227.760605 
	C164.147995,230.860718 165.052521,234.015564 166.030304,236.998428 
	C168.053558,243.170731 171.592545,248.093704 178.544266,249.192841 
	C185.889969,250.354309 192.120789,248.768494 197.281952,242.658218 
	C207.446213,230.624786 208.045807,217.074814 204.956390,202.624985 
	C204.335999,199.723343 201.533173,195.991196 206.865402,194.440384 
	C212.710388,192.740448 215.375137,194.401810 216.960297,200.880859 
z"/>
<path fill="#F4D500" opacity="1.000000" stroke="none" 
	d="
M751.740845,106.648544 
	C755.869812,100.217865 761.633240,99.330452 769.641479,103.607826 
	C775.078125,106.511665 778.544617,104.979057 778.096863,98.654610 
	C777.662781,92.524193 775.340393,86.476013 773.437317,80.522804 
	C772.487793,77.552361 770.725464,74.814972 769.143188,72.080757 
	C767.388367,69.048279 767.314819,66.380974 770.388916,64.245804 
	C773.645996,61.983521 776.430481,63.023785 778.643005,65.888351 
	C783.486694,72.159103 787.161987,78.991371 788.428833,86.948257 
	C790.200500,98.075005 790.400146,109.194191 787.687317,120.177658 
	C785.713013,128.171021 781.681641,131.646713 775.741943,131.342163 
	C772.240845,131.162659 770.111938,129.652664 768.582275,126.252022 
	C766.884521,122.477676 764.161987,119.164276 761.885681,115.650185 
	C761.274841,115.811417 760.664001,115.972649 760.053162,116.133888 
	C759.360596,119.761581 758.955078,123.475410 757.899109,126.994026 
	C756.719666,130.923721 755.249207,134.832657 753.352722,138.461838 
	C751.459412,142.084763 748.227905,143.687027 744.107239,141.900467 
	C739.775940,140.022537 738.598877,136.355377 740.216797,132.393997 
	C743.724426,123.806145 747.742493,115.426781 751.740845,106.648544 
z"/>
<path fill="#F4D400" opacity="1.000000" stroke="none" 
	d="
M598.470459,242.757019 
	C596.966187,240.620438 595.908630,238.584473 594.606079,236.719727 
	C592.515869,233.727432 590.263550,230.848450 588.079712,227.921570 
	C587.606018,228.134766 587.132324,228.347946 586.658691,228.561127 
	C585.871155,232.598007 585.404114,236.733246 584.204102,240.643555 
	C583.051758,244.398575 581.472168,248.118042 579.468445,251.489487 
	C577.453308,254.880280 574.109924,255.917526 570.377380,254.019394 
	C566.765259,252.182465 565.084717,249.012115 566.686646,245.304688 
	C570.887695,235.582062 575.331604,225.951965 580.110901,216.503616 
	C580.926514,214.891312 583.971191,213.363693 585.824402,213.536118 
	C589.687073,213.895523 593.615601,215.016220 597.194946,216.567398 
	C601.351501,218.368713 603.253357,218.147797 604.295288,213.636368 
	C604.978638,210.677460 605.179626,207.154221 604.217407,204.358398 
	C601.901489,197.629318 598.967224,191.087296 595.894165,184.655319 
	C594.328125,181.377472 593.702087,178.683304 597.120911,176.459763 
	C600.693726,174.136093 603.531250,175.559265 605.621216,178.696136 
	C607.921143,182.148178 610.519592,185.557953 612.003235,189.369461 
	C617.624268,203.810394 617.670044,218.712036 613.866943,233.519775 
	C611.591980,242.377686 607.103577,244.733063 598.470459,242.757019 
z"/>
<path fill="#F3D400" opacity="1.000000" stroke="none" 
	d="
M257.725220,96.689957 
	C260.110535,93.904945 262.017975,91.067627 264.563171,89.024994 
	C272.436340,82.706383 282.311798,83.246819 289.438477,90.301926 
	C297.558655,98.340515 301.817230,108.258553 300.669373,119.595070 
	C300.223694,123.997078 297.671936,128.916443 294.578247,132.174652 
	C287.075409,140.076523 277.191254,143.672592 266.345001,144.253311 
	C260.055908,144.590042 255.567657,140.915695 253.453720,133.224747 
	C250.007477,120.686600 251.118454,108.504791 257.725220,96.689957 
M270.839813,98.192802 
	C269.548248,100.856773 267.782532,103.399178 267.061981,106.209541 
	C265.466095,112.433739 264.182129,118.761574 263.258057,125.117958 
	C263.023010,126.734848 264.145447,129.166367 265.450348,130.272644 
	C269.180450,133.434982 274.033783,134.165512 278.062469,131.750427 
	C287.652618,126.001396 293.509491,112.816528 286.072418,101.534042 
	C282.467407,96.064964 277.526031,94.828049 270.839813,98.192802 
z"/>
<path fill="#F3D300" opacity="1.000000" stroke="none" 
	d="
M909.967773,221.083649 
	C912.826111,235.850311 909.720337,243.524963 896.720032,250.311447 
	C890.827454,253.387543 883.997681,254.917664 877.419495,256.353943 
	C871.912354,257.556366 867.867004,254.560120 865.238586,249.675232 
	C858.238342,236.665146 861.633667,213.773468 872.120911,203.408066 
	C881.090149,194.543015 893.003174,194.518295 900.892395,204.240067 
	C904.762085,209.008621 906.940918,215.149307 909.967773,221.083649 
M894.107971,211.310440 
	C886.354370,205.724747 880.040833,207.735352 877.538330,216.986008 
	C875.730713,223.667923 874.409058,230.503693 873.327209,237.343048 
	C873.072327,238.954529 874.239746,241.255249 875.476440,242.545334 
	C878.387817,245.582565 885.461853,245.934845 889.034912,243.656693 
	C900.048584,236.634567 902.551575,222.425507 894.107971,211.310440 
z"/>
<path fill="#F3D400" opacity="1.000000" stroke="none" 
	d="
M231.380417,252.635422 
	C221.746185,238.513214 224.952194,213.261368 237.512329,202.174454 
	C245.775635,194.880356 256.759094,195.259872 264.305267,203.277496 
	C266.456055,205.562653 268.568970,208.057709 269.999634,210.818985 
	C282.068115,234.111908 273.052582,249.941788 245.505585,255.968002 
	C240.550201,257.052063 235.495026,257.330170 231.380417,252.635422 
M253.543793,243.389130 
	C255.684814,241.075424 258.121918,238.968719 259.911438,236.409241 
	C265.317780,228.676849 264.715027,218.156784 258.781555,211.905563 
	C253.205780,206.031189 245.115646,207.291718 242.468765,214.860672 
	C240.842346,219.511612 240.417389,224.581284 239.432846,229.458862 
	C239.075684,231.228348 238.866287,233.064377 238.231689,234.734070 
	C236.493530,239.307419 237.275375,242.541138 241.873886,243.807434 
	C245.294861,244.749466 249.212479,243.888000 253.543793,243.389130 
z"/>
<path fill="#F4D400" opacity="1.000000" stroke="none" 
	d="
M682.440430,120.947220 
	C682.443237,111.843468 684.166077,103.631569 688.821655,96.220970 
	C698.090759,81.466728 714.070435,80.847229 724.244019,94.941238 
	C726.266052,97.742439 727.969177,100.882912 729.245117,104.095039 
	C735.501282,119.844597 731.290710,131.440781 716.112610,138.882172 
	C710.987427,141.394913 705.210632,142.910950 699.559875,143.936264 
	C692.249512,145.262680 687.610229,142.499039 685.192200,135.493469 
	C683.646484,131.015137 683.323853,126.114616 682.440430,120.947220 
M704.385498,132.764755 
	C715.430176,131.696686 723.317871,116.719582 718.867004,105.267387 
	C716.544006,99.290161 712.227051,95.912239 707.121887,96.077126 
	C702.281189,96.233459 699.535522,99.028816 697.823486,106.160141 
	C696.973694,109.699677 696.661804,113.369186 696.125366,116.982689 
	C695.930786,118.293457 695.980774,119.670921 695.595703,120.918114 
	C693.045959,129.176666 694.967590,132.075241 704.385498,132.764755 
z"/>
<path fill="#F4D500" opacity="1.000000" stroke="none" 
	d="
M652.234253,76.339493 
	C655.869324,68.623070 662.697693,65.401421 669.588196,62.404819 
	C673.235229,60.818787 677.083435,59.639778 680.920837,58.561813 
	C685.284180,57.336094 688.595215,59.040184 689.711121,62.812122 
	C690.972290,67.075066 689.277954,69.988693 685.310913,71.570656 
	C680.832764,73.356476 676.202332,74.773666 671.774963,76.670616 
	C664.570679,79.757423 663.099365,82.909264 665.042542,90.477829 
	C666.820312,97.402756 668.898682,104.255394 670.503357,111.218529 
	C672.201416,118.586670 672.731934,125.940536 665.811462,131.297974 
	C658.189209,137.198700 649.399292,137.528900 640.637451,135.153030 
	C638.645996,134.613007 636.351746,130.739349 636.342651,128.391785 
	C636.329346,124.953651 639.122253,122.461952 643.047913,122.346352 
	C646.026733,122.258629 649.056030,122.655319 651.981750,122.250481 
	C657.785461,121.447403 658.493530,120.291473 657.110901,114.664795 
	C655.285034,107.234863 652.761902,99.925545 651.601746,92.400459 
	C650.816956,87.309921 651.863464,81.937057 652.234253,76.339493 
z"/>
<path fill="#F4D400" opacity="1.000000" stroke="none" 
	d="
M800.231201,135.889282 
	C795.728210,135.010590 793.063721,132.745926 793.497559,128.336746 
	C793.883240,124.416740 797.697510,122.108116 802.489807,122.403603 
	C803.486145,122.465034 804.477661,122.650375 805.473389,122.668228 
	C814.564819,122.831291 816.077271,120.952293 813.869141,112.203529 
	C812.198669,105.584969 810.305359,99.017044 808.830688,92.355858 
	C806.002625,79.581924 809.435608,71.542404 821.011597,65.381958 
	C826.543396,62.438122 832.637573,60.438980 838.644409,58.541985 
	C842.254822,57.401794 845.692444,58.376202 847.063232,62.604881 
	C848.422058,66.796661 846.946167,69.848343 842.920471,71.471535 
	C838.600525,73.213432 834.122803,74.569740 829.827698,76.366463 
	C821.752563,79.744476 820.348694,82.751190 822.572571,91.200035 
	C824.393127,98.116486 826.671265,104.942764 828.008850,111.949860 
	C830.920227,127.201736 823.715210,135.857132 808.100647,136.376022 
	C805.618347,136.458511 803.121521,136.102020 800.231201,135.889282 
z"/>
<path fill="#F4D500" opacity="1.000000" stroke="none" 
	d="
M333.520233,134.594391 
	C328.069061,135.194595 322.967499,136.095245 317.889343,135.978271 
	C312.383301,135.851410 309.145203,132.618637 309.477875,128.799576 
	C309.840729,124.634636 313.727631,122.161247 319.103455,122.416855 
	C321.568207,122.534058 324.061859,122.301308 326.528015,122.072205 
	C330.596741,121.694221 331.949951,119.491325 330.859772,115.544983 
	C329.397980,110.253487 328.079498,104.922234 326.716797,99.603607 
	C325.974274,96.705589 325.119049,93.826141 324.570831,90.890480 
	C322.445648,79.511322 325.666809,71.678200 335.783081,66.163025 
	C341.712524,62.930416 348.239868,60.682140 354.682678,58.547848 
	C358.251343,57.365654 361.716766,58.371727 363.073090,62.619968 
	C364.410370,66.808708 362.959839,69.862442 358.937653,71.489029 
	C354.468475,73.296379 349.833252,74.703026 345.403625,76.596107 
	C337.890533,79.806953 336.529022,82.859543 338.555450,90.764473 
	C340.536041,98.490601 342.782135,106.164307 344.373322,113.970764 
	C346.484344,124.327454 343.367157,129.982788 333.520233,134.594391 
z"/>
<path fill="#F1D200" opacity="1.000000" stroke="none" 
	d="
M841.800659,228.937714 
	C840.594604,234.012314 839.957336,238.870697 838.039856,243.156265 
	C837.187805,245.060516 833.752502,245.808945 831.489807,247.082001 
	C830.588928,244.825394 828.830566,242.530518 828.929382,240.318542 
	C829.478638,228.017548 830.490906,215.737473 831.309692,203.447906 
	C831.417603,201.828018 831.324524,200.194748 831.324524,197.864960 
	C827.545471,197.864960 824.091492,198.052826 820.668396,197.807816 
	C817.727051,197.597290 814.467041,197.526947 812.032104,196.168381 
	C810.568237,195.351593 809.599243,192.070236 809.878174,190.105148 
	C810.230347,187.623993 812.197449,185.806320 815.455811,186.807846 
	C817.648254,187.481750 820.004395,187.611771 822.277832,188.035782 
	C828.022156,189.107101 832.820435,189.000473 834.829163,181.783066 
	C835.396057,179.746216 838.864075,178.516815 841.001465,176.917099 
	C842.578247,179.539841 844.154968,182.162567 846.297607,185.726471 
	C847.625549,185.507416 850.375000,185.241608 853.020874,184.568665 
	C856.158325,183.770691 857.606079,185.180695 857.660522,187.986877 
	C857.784851,194.397537 856.696228,198.151535 849.811523,199.048233 
	C848.010071,199.282867 846.241699,199.771317 843.954041,200.248322 
	C843.253662,209.641068 842.550964,219.064697 841.800659,228.937714 
z"/>
<path fill="#F2D200" opacity="1.000000" stroke="none" 
	d="
M313.143921,243.042892 
	C310.675293,244.592819 308.395233,245.828964 306.115204,247.065109 
	C305.271423,244.620712 303.615173,242.140579 303.720795,239.737900 
	C304.253693,227.618652 305.257904,215.520401 306.061737,203.412445 
	C306.168762,201.800430 306.076477,200.175171 306.076477,197.863190 
	C302.270020,197.863190 298.822906,198.048386 295.405945,197.806885 
	C292.467133,197.599182 289.212646,197.537430 286.773987,196.188568 
	C285.303925,195.375473 284.299652,192.108246 284.577637,190.156235 
	C284.922607,187.734070 286.839966,185.721039 290.110046,186.811295 
	C291.821320,187.381851 293.645508,187.638672 295.434143,187.947647 
	C301.868408,189.059174 307.775024,189.551941 310.017212,181.052872 
	C310.482849,179.287903 313.971863,178.320541 316.067505,176.985580 
	C317.098816,179.069336 318.181763,181.129944 319.132355,183.249893 
	C319.448761,183.955521 319.425934,184.813278 319.634521,186.056107 
	C322.576813,185.526550 325.302185,184.774460 328.054993,184.654892 
	C329.361115,184.598175 331.429047,185.397278 331.932709,186.413132 
	C334.212372,191.010910 331.081085,197.323471 326.154510,198.665222 
	C325.033203,198.970627 323.885040,199.323212 322.738892,199.364197 
	C319.428314,199.482605 318.369202,201.110443 318.186096,204.380081 
	C317.637695,214.172363 316.863586,223.958969 315.855408,233.714478 
	C315.539246,236.773590 314.202240,239.727203 313.143921,243.042892 
z"/>
<path fill="#F2D300" opacity="1.000000" stroke="none" 
	d="
M481.666809,82.264313 
	C481.720367,77.619545 481.701965,73.484856 485.394257,70.401665 
	C489.774994,66.743553 493.393707,67.450569 494.570129,72.947449 
	C495.308533,76.397636 494.937286,80.187485 494.528473,83.763741 
	C492.513184,101.393898 490.280334,118.999092 488.229340,136.625320 
	C487.918121,139.300034 482.839081,142.772446 478.758362,142.706528 
	C475.134644,142.647995 472.179535,139.831772 472.627960,136.294998 
	C474.068604,124.932121 475.693115,113.591797 477.350555,102.257950 
	C477.611877,100.471031 478.035217,98.501579 479.031891,97.066780 
	C482.121643,92.618523 482.031860,87.727043 481.666809,82.264313 
z"/>
<path fill="#F2D200" opacity="1.000000" stroke="none" 
	d="
M524.760986,364.872925 
	C531.615784,364.826569 534.619629,368.492279 533.174683,374.623047 
	C533.098450,374.946716 533.023560,375.274261 532.906006,375.584045 
	C530.954895,380.725891 527.258301,383.919159 521.790466,384.249542 
	C519.829529,384.368011 516.551453,383.360992 515.974243,381.986115 
	C513.913513,377.077545 515.774780,372.489746 519.239502,368.726471 
	C520.655029,367.189087 522.667908,366.201813 524.760986,364.872925 
z"/>
<path fill="#050400" opacity="1.000000" stroke="none" 
	d="
M89.401520,248.449921 
	C88.366219,251.406784 87.459427,253.994812 86.553322,256.580841 
	C73.856285,252.018570 67.092293,241.528107 67.824036,228.379623 
	C69.217056,203.348892 98.306923,187.842194 119.572495,200.762039 
	C127.031036,205.293472 130.415375,211.630020 129.263474,220.464233 
	C127.142479,236.730911 117.382957,246.678741 103.023636,253.043350 
	C100.564270,254.133438 99.433235,253.203430 98.354057,251.084824 
	C97.304344,249.024063 95.930496,247.116516 94.577232,245.228989 
	C94.128700,244.603363 93.302216,244.248703 92.027840,243.315750 
	C91.101044,245.083878 90.315536,246.582474 89.401520,248.449921 
z"/>
<path fill="#0A0900" opacity="1.000000" stroke="none" 
	d="
M712.762573,223.831390 
	C707.282227,228.146835 701.629395,231.024658 694.838928,230.971069 
	C691.336975,215.380661 694.474976,208.619934 708.194031,201.405289 
	C711.523010,199.654663 715.093384,198.965698 718.050598,202.749878 
	C722.242004,208.113235 722.952820,211.459015 719.861572,215.678391 
	C717.807983,218.481369 715.328674,220.972412 712.762573,223.831390 
z"/>
<path fill="#0A0900" opacity="1.000000" stroke="none" 
	d="
M944.789673,202.611099 
	C953.630371,198.346558 958.225708,200.414017 960.624817,209.487823 
	C960.902832,210.539093 960.947083,211.836700 960.593140,212.841812 
	C957.319641,222.138580 943.796204,231.098511 933.839355,230.680054 
	C930.379639,215.584442 933.345398,209.953079 944.789673,202.611099 
z"/>
<path fill="#0D0B00" opacity="1.000000" stroke="none" 
	d="
M523.845825,215.882141 
	C522.160522,216.207718 520.864502,216.449066 518.372253,216.913162 
	C519.315186,213.102478 519.951538,209.831482 520.940613,206.670837 
	C523.444458,198.669235 527.642273,191.852310 535.155945,187.556488 
	C539.870789,184.860855 542.882446,186.627670 543.324036,192.296844 
	C544.048645,201.599594 535.782654,212.946762 526.650513,215.187729 
	C525.844055,215.385620 525.040161,215.594269 523.845825,215.882141 
z"/>
<path fill="#0E0C00" opacity="1.000000" stroke="none" 
	d="
M349.440887,216.219879 
	C347.109680,216.950882 345.409454,216.716400 346.010895,214.220184 
	C348.542297,203.713562 351.996338,193.684052 362.063416,187.728928 
	C366.933563,184.848038 369.914886,186.352051 370.543121,191.926804 
	C371.531036,200.693481 363.258575,212.761246 354.689240,215.019974 
	C353.082916,215.443375 351.449707,215.764725 349.440887,216.219879 
z"/>
<path fill="#0D0B00" opacity="1.000000" stroke="none" 
	d="
M641.535522,193.558105 
	C644.076233,191.392120 646.215088,189.230072 648.724304,187.659622 
	C653.277344,184.809921 656.218872,186.371216 656.933716,191.694107 
	C658.055237,200.044815 649.944031,212.512070 641.756348,214.846085 
	C638.901794,215.659836 635.956116,216.154083 632.184326,216.985535 
	C633.492371,208.099899 636.001587,200.452744 641.535522,193.558105 
z"/>
<path fill="#0C0B00" opacity="1.000000" stroke="none" 
	d="
M772.561890,214.718491 
	C773.845154,211.611923 774.584351,208.558838 776.327637,206.270752 
	C779.034180,202.718292 783.631897,203.300964 784.923157,207.485870 
	C787.265503,215.077362 789.041748,222.861679 790.620667,230.653381 
	C790.896545,232.014694 789.405457,234.711472 788.109863,235.224564 
	C784.681030,236.582474 780.947632,237.468109 777.267822,237.805908 
	C774.031372,238.103027 770.703552,237.404419 767.363098,237.141403 
	C769.065491,229.795517 770.766663,222.455170 772.561890,214.718491 
z"/>
<path fill="#0C0A00" opacity="1.000000" stroke="none" 
	d="
M602.738525,86.933487 
	C604.239136,83.922607 605.173157,80.889732 607.099670,78.750893 
	C608.754272,76.914017 611.960999,74.654099 613.733215,75.166855 
	C616.459778,75.955734 619.839294,78.530899 620.684998,81.093086 
	C624.831970,93.656891 613.576050,105.627296 599.230164,102.970772 
	C600.353638,97.750290 601.478149,92.524887 602.738525,86.933487 
z"/>
<path fill="#0A0800" opacity="1.000000" stroke="none" 
	d="
M271.123322,97.930359 
	C277.526031,94.828049 282.467407,96.064964 286.072418,101.534042 
	C293.509491,112.816528 287.652618,126.001396 278.062469,131.750427 
	C274.033783,134.165512 269.180450,133.434982 265.450348,130.272644 
	C264.145447,129.166367 263.023010,126.734848 263.258057,125.117958 
	C264.182129,118.761574 265.466095,112.433739 267.061981,106.209541 
	C267.782532,103.399178 269.548248,100.856773 271.123322,97.930359 
z"/>
<path fill="#0A0800" opacity="1.000000" stroke="none" 
	d="
M894.373535,211.576263 
	C902.551575,222.425507 900.048584,236.634567 889.034912,243.656693 
	C885.461853,245.934845 878.387817,245.582565 875.476440,242.545334 
	C874.239746,241.255249 873.072327,238.954529 873.327209,237.343048 
	C874.409058,230.503693 875.730713,223.667923 877.538330,216.986008 
	C880.040833,207.735352 886.354370,205.724747 894.373535,211.576263 
z"/>
<path fill="#0A0900" opacity="1.000000" stroke="none" 
	d="
M253.226349,243.609467 
	C249.212479,243.888000 245.294861,244.749466 241.873886,243.807434 
	C237.275375,242.541138 236.493530,239.307419 238.231689,234.734070 
	C238.866287,233.064377 239.075684,231.228348 239.432846,229.458862 
	C240.417389,224.581284 240.842346,219.511612 242.468765,214.860672 
	C245.115646,207.291718 253.205780,206.031189 258.781555,211.905563 
	C264.715027,218.156784 265.317780,228.676849 259.911438,236.409241 
	C258.121918,238.968719 255.684814,241.075424 253.226349,243.609467 
z"/>
<path fill="#0A0900" opacity="1.000000" stroke="none" 
	d="
M703.976807,132.765808 
	C694.967590,132.075241 693.045959,129.176666 695.595703,120.918114 
	C695.980774,119.670921 695.930786,118.293457 696.125366,116.982689 
	C696.661804,113.369186 696.973694,109.699677 697.823486,106.160141 
	C699.535522,99.028816 702.281189,96.233459 707.121887,96.077126 
	C712.227051,95.912239 716.544006,99.290161 718.867004,105.267387 
	C723.317871,116.719582 715.430176,131.696686 703.976807,132.765808 
z"/>
</svg>