<?xml version="1.0" standalone="no"?>
<!DOCTYPE svg PUBLIC "-//W3C//DTD SVG 20010904//EN"
 "http://www.w3.org/TR/2001/REC-SVG-20010904/DTD/svg10.dtd">
<svg version="1.0" xmlns="http://www.w3.org/2000/svg"
 width="1024.000000pt" height="169.000000pt" viewBox="0 0 1024.000000 169.000000"
 preserveAspectRatio="xMidYMid meet">

<g transform="translate(0.000000,169.000000) scale(0.100000,-0.100000)"
fill="#000000" stroke="none">
<path d="M9660 1195 c-20 -22 -24 -39 -31 -137 -10 -139 -21 -165 -29 -73 -13
153 -101 243 -156 160 -14 -22 -13 -28 15 -93 43 -97 42 -100 -26 -98 -55 1
-57 0 -85 -39 -15 -22 -37 -66 -49 -97 -21 -57 -39 -76 -39 -40 0 9 7 64 15
122 9 58 18 128 21 156 11 87 -26 119 -82 71 -21 -18 -28 -36 -35 -87 -4 -36
-15 -94 -23 -130 -9 -36 -16 -76 -16 -90 0 -20 -2 -22 -10 -10 -5 8 -10 25
-10 37 0 42 -50 180 -74 206 -31 34 -82 36 -120 6 -34 -27 -63 -85 -120 -239
-57 -153 -63 -182 -41 -200 22 -19 54 -2 101 54 38 45 39 46 100 46 38 0 66
-5 72 -13 6 -7 12 -35 14 -62 3 -46 5 -50 29 -53 31 -4 69 37 69 73 0 17 6 22
30 22 17 0 45 10 62 23 27 20 32 21 40 6 28 -50 90 -35 124 31 10 21 20 40 22
42 1 3 9 -5 18 -17 10 -15 26 -22 47 -22 41 0 71 21 87 60 15 36 30 39 30 6 0
-62 69 -54 97 12 51 121 68 349 28 378 -27 20 -48 17 -75 -11z m79 -33 c12
-38 11 -57 -8 -163 -12 -66 -28 -136 -36 -155 -27 -66 -65 -26 -50 54 4 20 10
89 15 152 4 64 12 126 19 138 18 35 44 23 60 -26z m-187 -59 c35 -63 47 -163
28 -242 -20 -84 -83 -107 -110 -40 -7 16 -21 34 -31 39 -16 9 -19 5 -24 -27
-13 -88 -62 -137 -95 -98 -12 14 -11 25 4 68 27 77 65 136 91 143 13 3 37 -2
56 -11 31 -16 33 -16 46 1 20 28 16 63 -17 133 -33 69 -33 94 1 89 14 -2 32
-22 51 -55z m-266 2 c4 -14 1 -45 -5 -68 -15 -57 -31 -187 -31 -248 0 -43 -3
-51 -24 -61 -49 -22 -58 -7 -50 84 4 46 13 106 21 133 9 28 17 75 20 105 3 30
10 61 15 68 18 21 47 14 54 -13z m-253 -59 c30 -32 64 -140 82 -262 19 -126
19 -150 -1 -158 -26 -10 -34 3 -28 47 9 65 -9 80 -95 85 -76 5 -78 4 -148 -82
-25 -31 -53 -34 -53 -7 0 23 90 273 119 330 37 71 85 89 124 47z"/>
<path d="M8964 989 c-7 -11 -44 -155 -44 -170 0 -12 87 -11 111 1 24 13 25 56
4 128 -13 44 -20 52 -40 52 -13 0 -27 -5 -31 -11z m35 -66 c22 -80 20 -88 -21
-91 -21 -2 -38 0 -38 3 0 7 19 92 26 113 7 24 23 12 33 -25z"/>
<path d="M7413 1195 c-65 -20 -132 -63 -154 -98 -23 -38 -24 -92 -4 -167 22
-83 21 -90 -20 -90 -63 0 -99 -65 -57 -103 40 -37 164 -10 202 43 26 36 25 86
0 178 -11 40 -18 78 -14 83 3 6 31 21 61 35 83 36 103 74 63 114 -23 23 -21
23 -77 5z m65 -17 c18 -18 15 -48 -5 -55 -10 -3 -42 -16 -70 -29 -49 -21 -53
-26 -53 -56 0 -18 9 -67 20 -108 33 -122 4 -170 -101 -170 -65 0 -87 16 -69
49 8 16 20 21 53 21 64 0 68 10 45 94 -37 134 -25 187 55 227 73 38 107 45
125 27z"/>
<path d="M5569 1167 c-44 -30 -87 -117 -134 -276 -20 -69 -40 -132 -45 -141
-9 -17 -103 -32 -215 -34 -43 -1 -51 2 -64 26 -21 38 -11 45 100 73 102 26
122 42 117 90 -3 27 -7 30 -40 33 -22 2 -56 -5 -84 -17 -76 -34 -94 -26 -94
39 0 36 14 46 74 54 104 13 162 71 120 118 -18 19 -28 20 -130 16 -92 -3 -116
-8 -146 -26 -55 -34 -70 -75 -62 -173 l7 -82 -31 6 c-36 7 -82 -23 -82 -53 0
-27 38 -50 82 -50 l38 0 0 -55 c0 -113 32 -132 204 -120 61 5 143 9 183 9 65
1 74 4 103 31 18 17 40 46 50 66 11 20 26 39 35 43 32 12 193 7 202 -6 4 -7
10 -40 13 -73 l5 -60 39 0 c31 0 43 6 59 27 l20 27 -36 156 c-34 145 -88 287
-129 336 -37 44 -107 51 -159 16z m132 -14 c46 -39 94 -153 135 -317 19 -77
34 -149 34 -161 0 -46 -55 -63 -66 -21 -3 14 -3 30 1 35 10 16 -14 88 -31 95
-30 12 -175 6 -209 -8 -22 -9 -41 -28 -53 -53 -32 -61 -57 -78 -121 -80 -31 0
-119 -4 -196 -8 -170 -9 -172 -8 -177 100 l-3 70 -30 1 c-55 1 -87 13 -83 32
3 13 14 17 53 17 l50 0 -4 101 c-4 115 4 139 54 160 46 19 183 29 218 15 56
-22 25 -64 -61 -80 -91 -18 -106 -24 -116 -53 -12 -34 3 -97 25 -111 12 -8 31
-4 71 12 54 22 112 30 124 18 3 -3 3 -14 0 -25 -5 -15 -27 -25 -97 -42 -107
-27 -144 -52 -134 -92 14 -56 30 -61 184 -53 l140 8 14 36 c8 20 31 92 51 161
50 167 81 230 126 252 47 24 63 23 101 -9z"/>
<path d="M5601 1078 c-12 -12 -23 -38 -26 -57 -6 -36 -29 -144 -36 -170 -7
-25 117 -24 169 0 23 12 42 25 42 29 0 5 -11 45 -25 88 -39 124 -79 159 -124
110z m47 -31 c6 -7 22 -48 37 -91 19 -56 23 -82 16 -89 -6 -6 -41 -13 -77 -15
-66 -4 -67 -4 -61 19 3 13 11 56 18 94 6 39 16 76 21 83 13 16 33 15 46 -1z"/>
<path d="M7989 1168 c-55 -37 -109 -167 -195 -473 -35 -123 65 -128 137 -7 35
58 44 62 145 62 63 0 95 -4 101 -12 4 -7 10 -40 13 -73 5 -57 6 -60 33 -63 40
-5 75 21 82 62 l7 34 35 -39 c79 -87 176 -73 312 44 85 74 121 140 101 191
-12 34 -69 48 -192 50 -87 1 -100 -1 -119 -20 -36 -37 -14 -58 75 -72 41 -6
90 -18 107 -25 l32 -13 -38 -38 c-55 -56 -116 -81 -160 -66 -77 26 -105 102
-66 185 26 57 59 83 174 140 55 27 102 55 104 60 1 6 -4 19 -13 30 -61 81
-352 -105 -380 -243 -8 -43 -16 -33 -38 48 -24 91 -80 203 -117 234 -39 33
-93 35 -140 4z m125 -9 c54 -43 108 -174 151 -371 23 -106 26 -130 15 -143 -7
-9 -23 -15 -34 -13 -18 3 -21 11 -24 63 -5 87 -16 95 -121 94 -111 -1 -131 -8
-158 -49 -42 -68 -74 -100 -99 -100 -34 0 -32 14 27 207 74 240 104 303 154
324 34 13 61 10 89 -12z m534 -51 c2 -10 -2 -18 -8 -18 -25 0 -158 -69 -194
-101 -43 -37 -86 -118 -86 -162 0 -102 110 -168 203 -121 38 19 137 113 137
130 0 15 -74 40 -159 53 -70 11 -76 14 -66 32 9 14 204 7 248 -10 52 -20 33
-88 -49 -167 -105 -101 -210 -131 -273 -78 -53 44 -85 110 -86 174 0 68 22
115 83 176 87 85 241 142 250 92z"/>
<path d="M8021 1081 c-11 -11 -22 -31 -25 -43 -17 -93 -35 -176 -41 -189 -6
-15 3 -17 74 -15 64 1 86 6 108 23 30 22 31 30 7 109 -36 116 -80 158 -123
115z m68 -86 c52 -131 50 -137 -45 -143 l-67 -5 7 34 c4 19 12 61 17 94 18
105 51 113 88 20z"/>
<path d="M1929 1147 c-82 -43 -136 -159 -126 -269 5 -53 10 -64 53 -111 68
-74 96 -88 162 -77 30 5 69 18 88 30 20 11 37 20 40 20 2 0 4 -30 4 -67 0 -51
5 -74 19 -93 19 -24 20 -24 55 -7 35 16 36 18 36 72 0 30 4 55 8 55 4 0 28
-21 52 -46 25 -25 58 -52 73 -60 26 -14 31 -13 60 3 23 14 33 27 35 48 3 38 1
41 -77 100 l-64 49 34 25 c19 14 46 38 61 54 14 15 28 27 31 27 2 0 7 -18 10
-40 6 -46 92 -153 136 -168 33 -12 117 0 160 22 62 32 79 99 32 122 -19 10
-32 9 -67 -4 -69 -25 -141 10 -76 37 63 26 122 114 122 181 0 64 -49 120 -105
120 -72 -1 -144 -58 -180 -143 -8 -20 -17 -37 -20 -37 -2 0 -12 16 -21 36 -9
19 -32 47 -51 61 -29 22 -40 25 -80 19 -99 -13 -170 -95 -180 -207 -5 -54 -8
-60 -25 -56 -11 3 -39 -2 -63 -11 -33 -12 -52 -14 -71 -7 -30 11 -44 35 -21
35 26 0 115 89 127 127 20 58 7 123 -29 155 -39 35 -82 36 -142 5z m128 -12
c12 -8 27 -31 33 -49 25 -77 -35 -172 -124 -195 -52 -13 -56 -22 -22 -56 34
-34 69 -40 119 -21 55 21 64 20 77 -3 18 -34 -24 -70 -95 -81 -75 -12 -95 -4
-155 62 l-45 50 0 82 c0 68 4 89 26 131 14 28 41 60 59 73 38 26 96 29 127 7z
m668 9 c23 -9 45 -57 45 -99 0 -69 -55 -135 -127 -155 -50 -13 -54 -30 -16
-59 39 -31 69 -35 119 -16 55 21 76 15 72 -22 -4 -35 -46 -59 -121 -68 l-58
-7 -45 49 c-72 76 -78 89 -78 158 0 143 109 257 209 219z m-317 -70 c32 -22
52 -66 52 -114 0 -42 -8 -52 -109 -138 l-34 -28 71 -52 c79 -58 100 -85 81
-108 -21 -26 -46 -15 -130 61 -45 41 -86 75 -91 75 -4 0 -8 -36 -8 -79 0 -89
-12 -108 -43 -70 -18 22 -19 37 -15 174 3 131 7 156 27 198 41 84 138 124 199
81z"/>
<path d="M1969 1083 c-48 -41 -91 -153 -59 -153 25 0 78 30 98 55 27 35 38 90
22 110 -17 20 -24 19 -61 -12z m25 -64 c-9 -32 -58 -78 -70 -66 -11 11 5 54
32 87 33 38 52 27 38 -21z"/>
<path d="M2660 1093 c-14 -10 -33 -27 -42 -38 -20 -24 -53 -114 -44 -122 3 -4
24 -1 46 6 63 19 115 105 90 151 -13 24 -19 25 -50 3z m20 -49 c0 -39 -59
-108 -77 -90 -10 10 7 55 33 85 26 31 44 33 44 5z"/>
<path d="M2314 1016 c-49 -22 -74 -61 -74 -117 0 -44 2 -49 23 -49 48 0 136
74 137 116 0 20 -33 64 -48 64 -4 -1 -21 -7 -38 -14z m39 -48 c21 -33 -50
-109 -89 -94 -24 9 -16 55 16 88 32 31 56 34 73 6z"/>
<path d="M628 1140 c-43 -13 -91 -46 -118 -82 -23 -30 -25 -44 -28 -145 -4
-122 18 -265 46 -295 16 -19 48 -23 69 -10 23 15 33 64 27 128 l-7 64 34 0
c49 1 111 32 146 75 l31 37 -5 -45 c-8 -67 5 -134 32 -165 20 -23 31 -27 68
-25 52 2 130 33 165 66 68 63 70 168 4 256 -62 84 -170 72 -233 -27 l-29 -46
0 35 c0 104 -113 204 -202 179z m99 -36 c12 -7 34 -30 50 -51 23 -29 28 -47
28 -91 0 -48 -3 -57 -32 -82 -39 -35 -101 -53 -150 -44 l-36 7 6 -34 c17 -100
18 -144 3 -164 l-15 -20 -19 20 c-26 28 -52 158 -52 265 0 104 6 124 51 168
52 51 111 60 166 26z m319 -80 c68 -45 101 -173 58 -231 -39 -53 -142 -94
-194 -78 -52 17 -69 159 -29 243 36 73 109 102 165 66z"/>
<path d="M596 1031 c-13 -14 -16 -33 -14 -77 l3 -59 58 -3 c52 -3 60 0 87 27
37 36 38 60 4 100 -22 27 -33 31 -73 31 -34 0 -53 -5 -65 -19z m112 -47 c38
-43 -1 -81 -74 -72 -27 3 -29 7 -32 50 -3 42 -1 47 20 51 35 6 61 -2 86 -29z"/>
<path d="M956 961 c-10 -11 -21 -43 -25 -73 -4 -29 -11 -59 -15 -66 -12 -20
23 -52 57 -52 35 0 82 46 92 90 18 81 -61 154 -109 101z m58 -43 c20 -28 20
-61 1 -98 -12 -23 -22 -30 -45 -30 -43 0 -43 2 -15 128 7 29 39 29 59 0z"/>
<path d="M3573 1140 c-23 -5 -54 -16 -68 -26 -48 -31 -56 -63 -59 -225 -3
-140 -4 -151 -25 -165 -13 -10 -21 -26 -21 -45 0 -27 6 -33 56 -56 49 -22 66
-25 133 -21 86 5 138 27 187 80 72 76 83 142 31 192 -18 17 -40 36 -50 41 -16
9 -17 15 -6 62 15 65 1 105 -50 138 -45 30 -75 35 -128 25z m109 -36 c58 -30
77 -107 38 -157 l-20 -26 52 -28 c33 -17 58 -39 67 -58 13 -28 12 -33 -16 -85
-24 -46 -39 -60 -87 -84 -71 -37 -167 -42 -233 -12 -58 26 -70 66 -20 66 22 0
22 1 22 170 l0 170 27 26 c42 43 108 49 170 18z"/>
<path d="M3542 1048 c-13 -13 -15 -40 -6 -87 6 -26 11 -31 36 -31 75 0 137 55
119 104 -10 24 -15 26 -74 26 -36 0 -68 -5 -75 -12z m106 -20 c32 -32 -6 -78
-65 -78 -32 0 -33 2 -33 38 0 21 3 42 7 45 11 12 78 8 91 -5z"/>
<path d="M3557 863 c-15 -4 -17 -15 -15 -81 l3 -77 29 2 c68 5 140 26 162 48
20 20 22 28 13 53 -7 21 -20 32 -47 40 -48 14 -122 22 -145 15z m98 -43 c36
-8 65 -31 65 -52 0 -14 -61 -36 -118 -44 l-52 -7 0 50 c0 27 3 53 7 56 9 10
50 8 98 -3z"/>
<path d="M4768 1140 c-59 -11 -112 -52 -142 -111 -25 -51 -26 -59 -26 -224 0
-160 1 -173 20 -190 19 -17 22 -18 55 -2 34 16 35 19 35 73 l0 56 60 -56 c70
-64 99 -75 136 -52 57 38 44 82 -41 143 -36 26 -65 49 -65 53 0 3 22 22 48 42
96 71 107 163 30 235 -32 30 -67 41 -110 33z m104 -50 c31 -34 38 -48 38 -81
0 -54 -10 -70 -80 -124 -33 -25 -60 -49 -60 -53 0 -4 32 -29 71 -57 73 -51 94
-80 77 -102 -20 -25 -51 -12 -129 57 -43 39 -84 70 -89 70 -6 0 -10 -34 -10
-80 0 -73 -2 -80 -20 -80 -35 0 -42 33 -38 198 3 152 4 159 31 205 21 35 41
54 70 68 66 29 94 25 139 -21z"/>
<path d="M4726 1027 c-32 -31 -36 -40 -36 -86 0 -49 1 -51 28 -51 35 0 101 46
122 84 12 24 12 31 -1 54 -23 42 -68 41 -113 -1z m79 -28 c9 -27 -16 -62 -56
-82 -40 -19 -49 -15 -49 21 0 69 87 118 105 61z"/>
<path d="M6068 1136 c-160 -43 -240 -230 -169 -391 39 -89 154 -145 298 -145
65 0 77 3 98 25 52 51 30 73 -100 100 -96 19 -142 38 -177 72 -26 24 -28 33
-28 99 0 51 4 77 15 87 18 19 145 32 218 23 43 -6 56 -4 67 9 24 29 1 66 -60
97 -71 35 -104 40 -162 24z m156 -45 c73 -39 70 -49 -16 -49 -97 1 -186 -16
-211 -40 -23 -24 -35 -141 -19 -184 17 -43 72 -77 163 -98 151 -37 160 -40
157 -57 -4 -23 -54 -35 -118 -28 -180 18 -270 101 -270 248 0 122 65 211 175
238 41 10 81 2 139 -30z"/>
<path d="M6467 1110 c-28 -24 -40 -29 -66 -24 -65 13 -109 -55 -59 -90 12 -9
41 -16 63 -16 l40 0 0 -180 c0 -201 1 -205 65 -196 56 9 60 21 60 203 l0 162
51 -2 c45 -2 54 1 72 25 17 23 19 31 9 53 -11 23 -17 25 -72 25 -59 0 -60 1
-74 35 -19 44 -43 45 -89 5z m84 -22 c13 -32 17 -33 77 -36 59 -3 62 -4 62
-29 0 -26 -1 -26 -61 -20 -57 5 -61 4 -70 -20 -5 -13 -9 -95 -9 -182 0 -147
-1 -159 -19 -164 -42 -11 -46 3 -48 185 -1 95 -2 179 -2 186 -1 8 -17 12 -45
12 -58 0 -76 8 -76 32 0 19 5 20 56 16 48 -4 56 -2 66 16 24 46 50 47 69 4z"/>
<path d="M7020 1111 c-70 -8 -95 -18 -124 -50 -30 -33 -14 -50 51 -53 l58 -3
6 -50 c4 -27 10 -101 14 -162 9 -129 9 -129 -70 -91 -39 19 -49 20 -66 9 -18
-11 -23 -10 -36 8 -17 25 -59 27 -92 5 -56 -40 -60 -134 -6 -134 32 0 81 24
93 46 7 13 14 12 57 -10 87 -47 193 -28 224 40 8 19 9 42 2 83 -5 31 -11 103
-13 160 l-3 105 45 26 c34 20 45 32 45 51 0 23 -3 24 -60 25 -33 1 -89 -2
-125 -5z m176 -19 c-3 -5 -23 -17 -46 -27 -27 -12 -43 -26 -47 -44 -4 -14 -1
-97 5 -185 6 -87 9 -163 6 -168 -13 -21 -77 -39 -114 -33 -41 7 -100 39 -100
55 0 16 27 12 70 -10 46 -24 73 -25 90 -5 9 11 9 45 -1 157 -7 79 -12 158 -11
176 l1 32 -65 0 c-35 0 -64 3 -64 8 1 18 20 35 51 42 46 11 232 12 225 2z
m-358 -379 c15 -26 -5 -69 -38 -83 -36 -15 -50 -7 -50 29 0 53 66 94 88 54z"/>
<path d="M1701 1098 c-42 -15 -48 -34 -43 -133 5 -100 -4 -193 -18 -179 -5 5
-25 47 -45 94 -20 47 -43 93 -52 102 -26 29 -59 22 -102 -21 -34 -34 -50 -67
-86 -169 -10 -27 -24 1 -40 76 -24 109 -33 137 -55 157 -15 14 -22 15 -42 5
-29 -16 -57 -50 -58 -71 0 -9 13 -45 29 -80 16 -35 45 -108 66 -162 44 -118
70 -142 113 -110 25 18 40 49 86 176 10 26 23 46 30 44 6 -2 23 -39 39 -83 44
-128 100 -161 166 -101 31 29 46 67 71 178 23 105 27 237 8 261 -18 22 -39 27
-67 16z m58 -30 c16 -45 -13 -297 -41 -353 -19 -36 -51 -65 -74 -65 -32 0 -61
41 -84 119 -18 63 -52 111 -77 111 -6 0 -28 -48 -48 -107 -56 -160 -85 -179
-125 -83 -91 221 -112 283 -101 306 12 27 33 31 51 9 6 -8 21 -56 32 -107 39
-179 62 -190 113 -53 29 77 57 120 87 136 31 16 50 -9 100 -131 34 -82 48
-105 62 -105 29 0 37 41 40 191 2 72 6 136 10 142 12 20 46 13 55 -10z"/>
<path d="M4144 1021 c-16 -16 -42 -62 -59 -101 -16 -40 -38 -78 -47 -84 -30
-18 -58 20 -68 93 -5 35 -16 72 -26 82 -23 26 -60 24 -89 -5 -26 -26 -26 -38
-3 -129 11 -46 71 -115 116 -134 40 -16 95 -9 135 19 l27 19 0 -23 c0 -35 -41
-100 -79 -125 -26 -18 -48 -23 -96 -23 -47 0 -69 -5 -86 -19 -23 -19 -23 -21
-9 -47 19 -35 48 -42 129 -31 114 15 176 64 222 178 18 43 23 80 27 181 2 70
1 139 -2 153 -9 36 -54 34 -92 -4z m76 4 c17 -21 7 -232 -14 -301 -35 -112
-104 -168 -223 -180 -48 -5 -62 -3 -76 10 -27 28 -20 36 31 36 142 0 232 90
232 232 0 54 -12 62 -30 19 -18 -45 -45 -63 -98 -69 -44 -4 -52 -1 -86 28 -48
43 -74 94 -78 156 -3 45 -1 49 20 52 35 5 49 -13 55 -72 3 -30 13 -68 21 -85
14 -26 22 -31 51 -31 44 0 60 18 96 111 25 63 58 108 80 109 4 0 12 -7 19 -15z"/>
<path d="M2845 1024 c-11 -12 -14 -28 -11 -58 3 -22 8 -68 12 -101 6 -57 38
-229 50 -269 5 -16 13 -18 61 -13 58 6 78 17 185 102 78 61 101 108 96 196 -4
78 -24 114 -79 141 -48 25 -289 26 -314 2z m259 -4 c75 -12 102 -36 116 -106
13 -60 2 -116 -30 -157 -37 -46 -159 -130 -203 -138 -23 -4 -46 -4 -50 0 -12
12 -55 230 -63 321 l-6 79 48 4 c97 7 130 7 188 -3z"/>
<path d="M2944 879 c8 -100 23 -189 36 -203 16 -17 79 16 129 69 51 54 51 54
51 120 0 65 0 66 -32 79 -18 8 -69 17 -112 21 l-79 7 7 -93z m165 29 c22 -8
23 -12 18 -66 -6 -52 -10 -61 -57 -105 -79 -76 -91 -63 -106 112 l-7 83 64 -7
c35 -4 75 -12 88 -17z"/>
<path d="M7649 919 c-26 -26 -22 -70 8 -85 17 -8 20 -13 11 -22 -13 -13 -37
-187 -38 -275 0 -51 3 -59 25 -69 30 -14 72 10 81 47 8 34 -23 299 -37 304 -6
2 -3 11 7 22 17 19 17 20 -1 13 -21 -8 -47 20 -38 42 7 19 32 18 55 -3 20 -18
25 -4 8 28 -14 25 -55 24 -81 -2z m65 -264 c14 -121 10 -155 -18 -155 -32 0
-37 25 -26 121 13 118 20 162 25 157 2 -2 11 -57 19 -123z"/>
<path d="M9616 701 c-28 -31 -31 -82 -6 -114 26 -32 62 -35 90 -7 24 24 28
111 6 129 -12 10 -13 7 -4 -21 13 -43 -3 -88 -31 -88 -36 0 -57 80 -29 108 7
7 8 12 2 12 -6 0 -19 -8 -28 -19z"/>
</g>
</svg>
